<svg width="25" height="26" viewBox="0 0 25 26" fill="none" xmlns="http://www.w3.org/2000/svg">
<path d="M13.0764 0.362117C13.4266 0.445053 13.7859 0.491138 14.1269 0.60172C15.6843 1.09012 16.8085 2.08535 17.4997 3.55978C17.5642 3.69801 17.6195 3.7625 17.7945 3.75329C21.0106 3.54134 23.4342 6.37963 22.7339 9.53121C22.697 9.67865 22.7339 9.75237 22.8629 9.84452C24.2636 10.8305 24.8534 12.5814 24.3465 14.1941C23.8305 15.8252 22.3653 16.9126 20.6512 16.931C20.4024 16.931 20.1536 16.931 19.8864 16.931C19.8864 17.4102 19.8864 17.8525 19.8864 18.304C19.8864 19.1058 19.5823 19.4467 18.7898 19.5389C18.7345 19.5481 18.6608 19.6126 18.6331 19.6679C18.4857 20.0088 18.3382 20.3498 18.2092 20.6908C18.1816 20.7553 18.2 20.8659 18.2369 20.9119C18.6976 21.4648 18.6884 21.9809 18.1816 22.4877C17.8683 22.801 17.5549 23.1143 17.2416 23.4277C16.7809 23.8792 16.2187 23.8884 15.7396 23.4461C15.6474 23.3632 15.5829 23.3539 15.4723 23.4C15.1498 23.5475 14.8273 23.6857 14.4955 23.8055C14.3757 23.8516 14.3389 23.9068 14.3296 24.0266C14.302 24.6809 13.8781 25.0772 13.2238 25.0772C12.7631 25.0772 12.3023 25.0772 11.8508 25.0772C11.2241 25.0772 10.8002 24.6717 10.7726 24.0451C10.7634 23.8976 10.7173 23.8423 10.5791 23.7963C10.2105 23.6672 9.85107 23.5106 9.46404 23.3539C9.44561 23.3724 9.39953 23.4092 9.36267 23.4461C8.8927 23.8792 8.31214 23.87 7.8606 23.4185C7.52885 23.0959 7.20632 22.7734 6.88379 22.4416C6.41382 21.9717 6.4046 21.4095 6.85615 20.9211C6.93908 20.829 6.93908 20.7553 6.89301 20.6539C6.74557 20.3314 6.60734 20.0088 6.48754 19.6771C6.44147 19.5573 6.38617 19.5204 6.26638 19.5204C5.6121 19.4928 5.22506 19.0781 5.21585 18.4146C5.21585 17.9354 5.21585 17.4655 5.20663 16.9863C5.20663 16.9678 5.19742 16.9586 5.16977 16.9218C4.95783 16.9218 4.73666 16.9218 4.5155 16.9218C2.23935 16.9125 0.488473 15.1156 0.580625 12.8487C0.626701 11.577 1.19804 10.5725 2.23014 9.8261C2.34994 9.73395 2.3868 9.66942 2.35915 9.51276C1.6588 6.36118 4.08239 3.52292 7.29848 3.73487C7.45513 3.74408 7.51964 3.69801 7.58414 3.55978C8.45958 1.74439 9.88793 0.67545 11.8876 0.380565C11.9337 0.37135 11.9798 0.352903 12.0259 0.334473C12.3668 0.362118 12.7262 0.362117 13.0764 0.362117ZM15.6658 16.9679C15.6474 16.9586 15.6382 16.9494 15.6198 16.9494C15.3341 16.9494 15.0392 16.9494 14.7535 16.9402C14.4494 16.931 14.2467 16.7467 14.2467 16.4794C14.2375 16.2122 14.431 16.0095 14.7259 15.9818C14.8088 15.9726 14.8826 15.9818 14.9655 15.9818C16.8177 15.9818 18.67 15.9818 20.5222 15.9818C20.6973 15.9818 20.8816 15.9818 21.0567 15.9542C22.3192 15.7514 23.3144 14.7931 23.5264 13.5859C23.7475 12.2773 23.1762 11.0793 22.0059 10.4435C21.6465 10.25 21.582 10.0841 21.711 9.69708C21.9229 9.07966 21.9782 8.45302 21.8584 7.81718C21.4622 5.72534 19.5546 4.4168 17.4444 4.78541C17.1311 4.8407 16.9283 4.73011 16.8177 4.43523C16.7993 4.37072 16.7809 4.31542 16.7532 4.25092C15.6935 1.39422 12.1272 0.408188 9.74971 2.31573C9.06779 2.85942 8.59781 3.54134 8.31214 4.36149C8.17392 4.74853 8.01726 4.84069 7.62101 4.77619C7.45513 4.74854 7.28926 4.73011 7.11417 4.7209C4.42335 4.63796 2.55267 7.14447 3.40046 9.7155C3.52026 10.0841 3.45575 10.2592 3.10558 10.4527C1.87075 11.1346 1.28098 12.4432 1.62194 13.7794C1.95368 15.0972 3.12401 15.991 4.52471 15.991C5.51073 15.991 6.50597 15.991 7.49199 15.991C8.42272 15.991 9.36267 15.991 10.2934 15.991C10.6436 15.991 10.8555 16.1938 10.8555 16.4886C10.8463 16.7743 10.6436 16.9586 10.3026 16.9586C10.0169 16.9586 9.72206 16.9586 9.44561 16.9586C9.04014 18.0552 9.54697 19.5481 10.5699 20.3314C11.7125 21.2068 13.2607 21.2345 14.4218 20.4051C15.5184 19.6034 16.0529 18.1197 15.6658 16.9679ZM6.17423 16.9586C6.17423 17.3272 6.17423 17.6866 6.17423 18.0552C6.17423 18.5805 6.17423 18.5805 6.70871 18.5805C7.05888 18.5805 7.17868 18.7003 7.29848 19.032C7.47356 19.5297 7.66708 20.0273 7.89746 20.4972C8.10941 20.9396 8.12784 21.0409 7.76845 21.4003C7.6763 21.4925 7.58415 21.6031 7.51042 21.6768C7.90668 22.073 8.26607 22.4417 8.68996 22.8655C8.79133 22.7365 8.8927 22.5891 9.01249 22.4693C9.25209 22.2297 9.41796 22.2389 9.72206 22.3771C10.2381 22.6167 10.7634 22.8287 11.2979 23.0314C11.602 23.142 11.7218 23.271 11.731 23.5843C11.731 23.7686 11.731 23.9437 11.731 24.1096C11.7863 24.128 11.8047 24.1372 11.8139 24.1372C12.1364 24.1372 12.459 24.1372 12.7815 24.1372C13.3528 24.1372 13.3528 24.1372 13.362 23.5659C13.3713 23.271 13.4818 23.1051 13.7583 23.0406C14.3389 22.9024 14.8826 22.672 15.3986 22.3679C15.6566 22.2113 15.8409 22.2389 16.0529 22.4416C16.1911 22.5706 16.3201 22.7089 16.4399 22.8195C16.827 22.4324 17.2048 22.0638 17.6102 21.6491C17.5089 21.5662 17.3891 21.4741 17.2785 21.3635C16.9744 21.0686 16.9836 20.9211 17.1587 20.5525C17.3891 20.0733 17.5918 19.5849 17.7669 19.0873C17.9143 18.6819 17.9973 18.5805 18.4304 18.5805C18.9004 18.5805 18.9004 18.5805 18.9004 18.1105C18.9004 17.7235 18.9004 17.3457 18.9004 16.9586C18.1355 16.9586 17.4075 16.9586 16.6703 16.9586C17.1587 19.6126 15.1314 21.8426 12.7446 21.9532C11.602 22.0085 10.5791 21.6584 9.73128 20.8843C8.57017 19.8246 8.15549 18.4975 8.38586 16.9494C7.65787 16.9586 6.92987 16.9586 6.17423 16.9586Z" fill="black"/>
<path d="M10.4777 12.517C10.4777 12.775 10.3211 12.9686 10.1183 13.0238C9.88796 13.0791 9.65758 12.9778 9.55622 12.7474C9.45485 12.5078 9.37191 12.2498 9.26133 12.0102C9.22447 11.9364 9.12311 11.8627 9.04017 11.8535C8.39511 11.8443 7.75005 11.8443 7.1142 11.8535C7.04048 11.8535 6.9299 11.9364 6.89304 12.0102C6.79167 12.2221 6.72716 12.4433 6.63501 12.6644C6.51521 12.9778 6.25719 13.1068 5.98995 13.0146C5.72271 12.9225 5.61213 12.646 5.72271 12.3327C6.31248 10.7753 6.91147 9.20874 7.51045 7.65137C7.62103 7.35649 7.81455 7.21827 8.09101 7.22748C8.37668 7.2367 8.55177 7.38412 8.65313 7.64215C9.2429 9.20873 9.83267 10.7661 10.4224 12.3327C10.4593 12.3972 10.4685 12.4801 10.4777 12.517ZM8.84665 10.8675C8.70842 10.5081 8.59784 10.1855 8.46883 9.86301C8.34903 9.5497 8.22923 9.22718 8.08179 8.86779C7.93435 9.24561 7.81455 9.56813 7.69476 9.89066C7.57496 10.2132 7.45516 10.5265 7.32615 10.8675C7.8422 10.8675 8.3306 10.8675 8.84665 10.8675Z" fill="black"/>
<path d="M12.9381 10.9045C12.9381 11.4758 12.9381 11.9919 12.9381 12.5079C12.9381 12.8489 12.7169 13.0516 12.4128 13.024C12.1456 13.0056 11.9797 12.8028 11.9797 12.4803C11.9797 11.4574 11.9797 10.4345 11.9797 9.41162C11.9797 8.86792 11.9797 8.33343 11.9797 7.78973C11.9797 7.38427 12.1548 7.20917 12.5511 7.20917C12.9934 7.20917 13.4357 7.19996 13.8781 7.20917C14.8549 7.2276 15.6566 8.02013 15.6934 8.98773C15.7303 9.95532 14.9931 10.8031 14.0071 10.8861C13.6569 10.9321 13.3067 10.9045 12.9381 10.9045ZM12.9473 9.95531C13.2238 9.95531 13.4726 9.95531 13.7214 9.95531C13.7951 9.95531 13.8688 9.9461 13.9334 9.93689C14.3665 9.87238 14.689 9.52221 14.7166 9.10753C14.7443 8.70206 14.4494 8.27816 14.0163 8.21365C13.6661 8.15836 13.3067 8.20443 12.9473 8.20443C12.9473 8.78499 12.9473 9.35632 12.9473 9.95531Z" fill="black"/>
<path d="M17.168 10.0931C17.168 9.36512 17.168 8.62791 17.168 7.89991C17.168 7.80776 17.168 7.72485 17.1772 7.63269C17.2048 7.40232 17.3891 7.23644 17.6103 7.22723C17.8407 7.2088 18.0434 7.34702 18.0987 7.56818C18.1263 7.66955 18.1263 7.77091 18.1263 7.88149C18.1263 9.35591 18.1263 10.8211 18.1263 12.2955C18.1263 12.3324 18.1263 12.3785 18.1263 12.4153C18.1079 12.7471 17.9144 12.9498 17.6287 12.9498C17.3523 12.9406 17.168 12.7379 17.168 12.4153C17.168 11.6321 17.168 10.858 17.168 10.0931Z" fill="black"/>
<path d="M12.542 16.9403C12.2748 16.9403 12.072 16.7283 12.072 16.4703C12.072 16.2031 12.3024 15.9819 12.5604 15.9819C12.8184 15.9911 13.0304 16.2031 13.0304 16.4611C13.0304 16.7283 12.8184 16.9403 12.542 16.9403Z" fill="black"/>
</svg>
