<svg width="27" height="22" viewBox="0 0 27 22" fill="none" xmlns="http://www.w3.org/2000/svg">
<g opacity="0.39">
<path d="M0.00160618 5.79108C0.13251 5.42062 0.214425 5.02117 0.404758 4.68373C0.999046 3.63195 1.92099 3.10444 3.13366 3.10364C4.40736 3.10283 5.68107 3.10364 6.95477 3.10364C7.04954 3.10364 7.1435 3.10364 7.20212 3.10364C7.30412 2.73157 7.35069 2.37399 7.49766 2.06474C7.94257 1.12812 8.72398 0.693231 9.7431 0.690815C12.2471 0.685178 14.7504 0.67793 17.2544 0.694037C18.4727 0.70209 19.3384 1.38422 19.6316 2.5109C19.6798 2.69533 19.691 2.89022 19.7223 3.10364C19.8259 3.10364 19.9207 3.10364 20.0154 3.10364C21.3068 3.10364 22.5982 3.0972 23.8896 3.10525C25.3689 3.11491 26.5807 4.06039 26.9068 5.46089C26.9678 5.72344 26.9863 6.00128 26.9871 6.27268C26.9919 10.4581 26.9718 14.6435 26.9999 18.8289C27.0104 20.3357 25.8379 22.0325 23.8598 21.9995C22.9379 21.9834 22.0151 21.9971 21.0924 21.9971C15.1359 21.9971 9.18014 21.9947 3.22361 21.9995C1.99809 22.0003 1.04 21.5099 0.411986 20.4557C0.21041 20.1182 0.134116 19.7051 0 19.3274C0.00160618 14.8142 0.00160618 10.3026 0.00160618 5.79108ZM13.5008 20.6361C16.9083 20.6361 20.3166 20.6377 23.7241 20.6328C23.9506 20.6328 24.1843 20.6183 24.4011 20.5604C25.2026 20.3461 25.6596 19.6664 25.6604 18.7097C25.662 14.5782 25.662 10.4468 25.658 6.31537C25.658 6.11483 25.6411 5.90786 25.5905 5.71458C25.3881 4.94386 24.7513 4.47515 23.9032 4.47273C22.3051 4.4679 20.7061 4.47273 19.108 4.47031C18.6373 4.46951 18.3538 4.18361 18.3466 3.71731C18.3434 3.47974 18.3522 3.24135 18.3426 3.00377C18.3185 2.43198 17.9387 2.03897 17.3685 2.03736C14.7954 2.03011 12.2214 2.03414 9.64834 2.03414C9.63067 2.03414 9.613 2.03575 9.59534 2.03655C9.09902 2.06957 8.73763 2.40782 8.69105 2.9015C8.66937 3.1286 8.67499 3.35893 8.67339 3.58765C8.66857 4.21341 8.4164 4.47112 7.80043 4.47112C6.23681 4.47192 4.67399 4.46629 3.11037 4.47273C2.07117 4.47756 1.36847 5.17499 1.36686 6.21389C1.36204 10.442 1.36204 14.6709 1.37168 18.8989C1.37248 19.1631 1.4295 19.4498 1.54194 19.6874C1.86799 20.3751 2.46228 20.6369 3.19711 20.6361C6.63273 20.6345 10.0667 20.6361 13.5008 20.6361Z" fill="#F9F9F9"/>
<path d="M13.5179 6.36858C17.0459 6.39461 19.8996 9.25954 19.8947 12.7703C19.8898 16.2941 16.9735 19.1989 13.4813 19.1574C9.93287 19.1151 7.10116 16.2738 7.10523 12.7589C7.11011 9.23351 10.011 6.34255 13.5179 6.36858ZM18.4841 12.8061C18.4768 10.0112 16.2666 7.79779 13.4886 7.80267C10.7268 7.80755 8.50522 10.0413 8.51661 12.8021C8.52718 15.5726 10.7626 17.7998 13.5138 17.7827C16.2739 17.7648 18.4914 15.545 18.4841 12.8061Z" fill="#F9F9F9"/>
<path d="M22.7422 9.21051C21.9552 9.21234 21.313 8.57195 21.3157 7.78631C21.3184 7.01163 21.9461 6.37764 22.7194 6.36851C23.5109 6.35937 24.1523 6.98788 24.1577 7.77809C24.1632 8.57012 23.5327 9.20777 22.7422 9.21051Z" fill="#F9F9F9"/>
</g>
</svg>
