<svg width="20" height="20" viewBox="0 0 20 20" fill="none" xmlns="http://www.w3.org/2000/svg">
<path d="M16.0735 18.4524L1.61317 3.99204C1.02627 3.40514 1.02627 2.45762 1.61317 1.87072C2.20007 1.28382 3.14759 1.28382 3.73449 1.87072L18.1948 16.3311C18.7817 16.918 18.7817 17.8655 18.1948 18.4524C17.6079 19.0393 16.6604 19.0393 16.0735 18.4524Z" fill="#272D3B"/>
<path d="M18.0158 4.33055L3.55552 18.7909C2.96862 19.3778 2.02109 19.3778 1.4342 18.7909C0.847297 18.204 0.847297 17.2565 1.4342 16.6696L15.8945 2.20923C16.4814 1.62233 17.429 1.62233 18.0158 2.20923C18.6027 2.79613 18.6027 3.74365 18.0158 4.33055Z" fill="#272D3B"/>
</svg>
