<svg width="25" height="22" viewBox="0 0 25 22" fill="none" xmlns="http://www.w3.org/2000/svg">
<path d="M12.5326 21.106C9.15982 21.106 5.79629 21.106 2.42354 21.106C1.244 21.106 0.571289 20.4241 0.571289 19.2446C0.571289 13.6418 0.571289 8.02973 0.571289 2.42691C0.571289 1.24737 1.244 0.56543 2.42354 0.56543C9.17825 0.56543 15.933 0.56543 22.6877 0.56543C23.8488 0.56543 24.5307 1.24735 24.5307 2.40846C24.5307 8.0205 24.5307 13.6417 24.5307 19.2538C24.5307 20.4149 23.8488 21.0968 22.6877 21.0968C19.3057 21.106 15.9237 21.106 12.5326 21.106ZM12.551 19.9726C15.9145 19.9726 19.2688 19.9726 22.6324 19.9726C23.2222 19.9726 23.3972 19.8067 23.3972 19.2077C23.3972 13.6325 23.3972 8.04815 23.3972 2.47297C23.3972 1.8832 23.2314 1.70813 22.6324 1.70813C15.9145 1.70813 9.18746 1.70813 2.46961 1.70813C1.87063 1.70813 1.70475 1.87399 1.70475 2.47297C1.70475 8.04815 1.70475 13.6325 1.70475 19.2077C1.70475 19.7975 1.87063 19.9726 2.46961 19.9726C5.83315 19.9726 9.18746 19.9726 12.551 19.9726Z" fill="black"/>
<path d="M10.4776 10.8402C9.62985 10.1675 8.81892 9.50399 7.99877 8.84971C7.15097 8.16779 6.30318 7.48585 5.45538 6.81315C5.40931 6.77629 5.37245 6.74866 5.33559 6.71179C5.08678 6.48142 5.04992 6.16809 5.24343 5.91928C5.43695 5.67047 5.77791 5.6244 6.05437 5.83635C6.58885 6.25103 7.11411 6.67492 7.63938 7.09882C8.95714 8.15856 10.2841 9.20909 11.6019 10.2688C12.0995 10.6651 12.0995 11.0153 11.6019 11.4115C9.77729 12.8675 7.95269 14.3235 6.12809 15.7795C5.86085 15.9914 5.62126 16.0191 5.39088 15.8624C5.17893 15.715 5.07756 15.4938 5.1605 15.2634C5.21579 15.1068 5.3448 14.9593 5.47381 14.8488C7.04039 13.5863 8.60697 12.3238 10.1828 11.0613C10.2841 10.9968 10.3671 10.9323 10.4776 10.8402Z" fill="black"/>
<path d="M15.9697 15.9732C14.8547 15.9732 13.7396 15.9732 12.6338 15.9732C12.2468 15.9732 11.9888 15.7521 11.9795 15.4203C11.9703 15.1439 12.1731 14.8951 12.4495 14.8582C12.5509 14.8398 12.6615 14.849 12.7721 14.849C14.91 14.849 17.0479 14.849 19.1858 14.849C19.2687 14.849 19.3425 14.849 19.4254 14.849C19.7387 14.8766 19.9599 15.0978 19.9691 15.4019C19.9783 15.706 19.7479 15.964 19.4254 15.9824C19.1674 15.9917 18.9093 15.9917 18.6513 15.9917C17.7575 15.9732 16.8636 15.9732 15.9697 15.9732Z" fill="black"/>
</svg>
