<svg width="15" height="10" viewBox="0 0 15 10" fill="none" xmlns="http://www.w3.org/2000/svg">
<path d="M0.780029 2.8099C0.890029 2.6699 0.980029 2.50991 1.11003 2.38991C1.77003 1.71991 2.45003 1.0499 3.11003 0.379904C3.28003 0.209904 3.48003 0.129906 3.72003 0.209906C4.12003 0.339906 4.22003 0.819904 3.92003 1.1299C3.58003 1.4799 3.24003 1.81991 2.90003 2.15991C2.83003 2.22991 2.76003 2.28991 2.69003 2.34991C2.69003 2.35991 2.70003 2.3699 2.70003 2.3799C2.75003 2.3799 2.80003 2.3799 2.85003 2.3799C4.90003 2.3799 6.94003 2.3799 8.99003 2.3799C9.31003 2.3799 9.51003 2.50991 9.60003 2.75991C9.71003 3.09991 9.48003 3.44991 9.12003 3.47991C9.06003 3.47991 9.00003 3.47991 8.94003 3.47991C6.91003 3.47991 4.88003 3.47991 2.85003 3.47991C2.80003 3.47991 2.76003 3.47991 2.67003 3.47991C2.72003 3.52991 2.75003 3.56991 2.78003 3.59991C3.16003 3.97991 3.53003 4.34991 3.91003 4.72991C4.16003 4.98991 4.16003 5.3499 3.90003 5.5599C3.70003 5.7299 3.40003 5.73991 3.20003 5.56991C3.16003 5.52991 3.12003 5.48991 3.08003 5.45991C2.42003 4.79991 1.76003 4.1499 1.11003 3.4899C0.990029 3.3599 0.890029 3.20991 0.780029 3.06991C0.780029 2.98991 0.780029 2.8999 0.780029 2.8099Z" fill="black"/>
<path d="M12.12 6.80987C12.07 6.80987 12.02 6.80987 11.97 6.80987C9.94003 6.80987 7.90003 6.80987 5.87003 6.80987C5.78003 6.80987 5.68003 6.80988 5.59003 6.77988C5.33003 6.69988 5.18003 6.45988 5.21003 6.17988C5.24003 5.92988 5.45003 5.72988 5.72003 5.70988C5.78003 5.70988 5.83003 5.70988 5.89003 5.70988C7.92003 5.70988 9.95003 5.70988 11.98 5.70988C12.03 5.70988 12.08 5.70988 12.16 5.70988C12.11 5.65988 12.09 5.62987 12.06 5.59987C11.68 5.21987 11.3 4.84988 10.93 4.45988C10.67 4.18988 10.69 3.80988 10.98 3.59988C11.17 3.45988 11.44 3.45988 11.63 3.60988C11.67 3.63988 11.71 3.67987 11.75 3.71987C12.45 4.41987 13.14 5.10987 13.84 5.80987C14.14 6.10987 14.14 6.40988 13.84 6.70988C13.14 7.40988 12.43 8.11988 11.72 8.81988C11.5 9.03988 11.21 9.07987 10.98 8.91987C10.69 8.70987 10.66 8.32987 10.92 8.05987C11.29 7.67987 11.67 7.30988 12.05 6.92988C12.08 6.89988 12.13 6.87987 12.16 6.84987C12.14 6.83987 12.13 6.81987 12.12 6.80987Z" fill="black"/>
</svg>
