<svg width="13" height="15" viewBox="0 0 13 15" fill="none" xmlns="http://www.w3.org/2000/svg">
<path d="M6.35009 14.98C5.02009 14.96 3.65009 14.8 2.35009 14.29C1.79009 14.07 1.26009 13.79 0.850089 13.34C0.540089 13 0.38009 12.61 0.39009 12.15C0.43009 10.55 1.01009 9.16998 2.13009 8.01998C2.37009 7.77998 2.70009 7.75998 2.92009 7.97998C3.15009 8.19998 3.15009 8.52997 2.91009 8.78997C2.16009 9.55997 1.70009 10.47 1.54009 11.52C1.51009 11.72 1.51009 11.92 1.49009 12.12C1.46009 12.37 1.57009 12.55 1.74009 12.71C2.07009 13.02 2.48009 13.2 2.90009 13.35C4.24009 13.83 5.63009 13.94 7.04009 13.88C8.03009 13.84 9.01009 13.7 9.93009 13.34C10.2801 13.21 10.6101 13.02 10.9301 12.83C11.2401 12.64 11.3701 12.36 11.3401 11.98C11.2401 10.76 10.7901 9.69997 9.93009 8.81997C9.79009 8.66997 9.68009 8.51998 9.71009 8.30998C9.74009 8.08998 9.86009 7.92998 10.0701 7.84998C10.2901 7.76998 10.4901 7.82998 10.6501 7.98998C11.3801 8.71998 11.9001 9.57997 12.1901 10.57C12.3401 11.09 12.4101 11.62 12.4301 12.15C12.4501 12.69 12.2301 13.12 11.8401 13.48C11.3401 13.95 10.7301 14.23 10.0901 14.44C8.90009 14.83 7.66009 14.97 6.35009 14.98Z" fill="black"/>
<path d="M2.58008 4.58005C2.58008 2.48005 4.29008 0.750043 6.39008 0.750043C8.54008 0.740043 10.2401 2.46005 10.2401 4.62005C10.2401 6.69005 8.50008 8.41005 6.42008 8.41005C4.30008 8.41005 2.58008 6.70005 2.58008 4.58005ZM3.68008 4.56005C3.68008 6.07005 4.90008 7.31005 6.40008 7.31005C7.93008 7.31005 9.16008 6.09004 9.16008 4.57004C9.16008 3.06004 7.93008 1.84005 6.41008 1.84005C4.91008 1.84005 3.68008 3.07005 3.68008 4.56005Z" fill="black"/>
</svg>
