<svg width="17" height="16" viewBox="0 0 17 16" fill="none" xmlns="http://www.w3.org/2000/svg">
<path d="M16.0701 15.6099C15.9901 15.7899 15.8501 15.8499 15.6501 15.8499C10.8201 15.8499 6.00011 15.8499 1.17011 15.8499C1.10011 15.8499 1.03011 15.8499 0.960105 15.8299C0.820105 15.7899 0.740106 15.6499 0.750106 15.5099C0.760106 15.3599 0.880105 15.2399 1.0301 15.2299C1.1401 15.2199 1.25011 15.2299 1.37011 15.2299C1.37011 15.1599 1.38011 15.0999 1.38011 15.0399C1.38011 13.9699 1.38011 12.8999 1.38011 11.8199C1.38011 11.4899 1.48011 11.3899 1.81011 11.3899C2.38011 11.3899 2.9501 11.3899 3.5201 11.3899C3.8501 11.3899 3.9401 11.4899 3.9401 11.8199C3.9401 12.8899 3.9401 13.9499 3.9401 15.0199C3.9401 15.0799 3.9401 15.1399 3.9401 15.2099C4.3701 15.2099 4.78011 15.2099 5.21011 15.2099C5.21011 15.1399 5.21011 15.0799 5.21011 15.0199C5.21011 12.8999 5.21011 10.7699 5.21011 8.64992C5.21011 8.29992 5.31011 8.19992 5.66011 8.19992C6.22011 8.19992 6.7901 8.19992 7.3501 8.19992C7.6501 8.19992 7.7601 8.30992 7.7601 8.61992C7.7601 10.7499 7.7601 12.8799 7.7601 15.0099C7.7601 15.0699 7.7601 15.1399 7.7601 15.2199C8.1801 15.2199 8.6001 15.2199 9.0301 15.2199C9.0301 15.1499 9.0301 15.0899 9.0301 15.0299C9.0301 13.3399 9.0301 11.6399 9.0301 9.94992C9.0301 9.58992 9.12011 9.49992 9.48011 9.49992C10.0401 9.49992 10.6001 9.49992 11.1601 9.49992C11.4901 9.49992 11.5901 9.59992 11.5901 9.92992C11.5901 11.6299 11.5901 13.3299 11.5901 15.0299C11.5901 15.0899 11.5901 15.1599 11.5901 15.2299C12.0101 15.2299 12.4201 15.2299 12.8501 15.2299C12.8501 15.1699 12.8601 15.1099 12.8601 15.0499C12.8601 12.0799 12.8601 9.11992 12.8601 6.14992C12.8601 6.08992 12.8601 6.02992 12.8601 5.96992C12.8801 5.78992 12.9901 5.67992 13.1801 5.66992C13.8201 5.66992 14.4601 5.66992 15.0901 5.66992C15.2701 5.66992 15.3901 5.77992 15.4101 5.95992C15.4201 6.01992 15.4101 6.07992 15.4101 6.13992C15.4101 9.09992 15.4101 12.0599 15.4101 15.0199C15.4101 15.0799 15.4101 15.1499 15.4101 15.2299C15.6501 15.2399 15.9101 15.1799 16.0501 15.4499C16.0701 15.4899 16.0701 15.5499 16.0701 15.6099ZM13.5301 6.27992C13.5301 9.25992 13.5301 12.2299 13.5301 15.1899C13.9501 15.1899 14.3601 15.1899 14.7801 15.1899C14.7801 12.2099 14.7801 9.24992 14.7801 6.27992C14.3601 6.27992 13.9501 6.27992 13.5301 6.27992ZM5.87011 8.83992C5.87011 10.9699 5.87011 13.0799 5.87011 15.1899C6.29011 15.1899 6.71011 15.1899 7.12011 15.1899C7.12011 13.0699 7.12011 10.9599 7.12011 8.83992C6.71011 8.83992 6.29011 8.83992 5.87011 8.83992ZM9.7001 10.1099C9.7001 11.8099 9.7001 13.4999 9.7001 15.1899C10.1201 15.1899 10.5401 15.1899 10.9501 15.1899C10.9501 13.4899 10.9501 11.8099 10.9501 10.1099C10.5401 10.1099 10.1201 10.1099 9.7001 10.1099ZM3.29011 15.1999C3.29011 14.1399 3.29011 13.0799 3.29011 12.0299C2.87011 12.0299 2.46011 12.0299 2.04011 12.0299C2.04011 13.0899 2.04011 14.1399 2.04011 15.1999C2.46011 15.1999 2.87011 15.1999 3.29011 15.1999Z" fill="black"/>
<path d="M14.3301 0.530022C14.4201 0.560022 14.5001 0.580016 14.5801 0.610016C15.2501 0.850016 15.5901 1.60002 15.3401 2.27002C15.0801 2.94002 14.3101 3.27002 13.6501 2.98002C13.5301 2.93002 13.4601 2.95002 13.3701 3.04002C12.7501 3.66002 12.1301 4.28002 11.5101 4.90002C11.4501 4.96002 11.4301 5.01001 11.4701 5.10001C11.7001 5.60001 11.6001 6.17001 11.2201 6.55001C10.8401 6.93001 10.2601 7.03002 9.77013 6.79002C9.28013 6.56002 9.01013 6.06002 9.06013 5.50002C9.06013 5.48002 9.06013 5.46002 9.06013 5.43002C8.67013 5.32002 8.27013 5.20002 7.88013 5.09002C7.87013 5.09002 7.86013 5.09002 7.85013 5.08002C7.69013 5.00002 7.58013 5.04003 7.46013 5.19003C7.10013 5.65003 6.37013 5.82001 5.73013 5.38001C5.62013 5.47001 5.50013 5.56002 5.39013 5.65002C4.89013 6.05002 4.39014 6.45002 3.89014 6.84002C3.82014 6.90002 3.79014 6.94002 3.83014 7.04002C4.04014 7.56002 3.96014 8.03003 3.58014 8.44003C3.24014 8.81003 2.69013 8.93001 2.22013 8.74001C1.70013 8.53001 1.42014 8.14002 1.39014 7.58002C1.34014 6.64002 2.36013 5.99002 3.22013 6.40002C3.32013 6.45002 3.37013 6.44002 3.45013 6.37002C4.07013 5.87002 4.69013 5.38001 5.28013 4.91001C5.26013 4.64001 5.22014 4.39002 5.24014 4.15002C5.30014 3.54002 5.87014 3.07001 6.49014 3.07001C7.12014 3.07001 7.67014 3.54001 7.74014 4.16001C7.76014 4.33001 7.82014 4.41002 7.99014 4.45002C8.40014 4.55002 8.80013 4.68002 9.21013 4.79002C9.26013 4.80002 9.33013 4.79002 9.36013 4.76002C9.87013 4.30002 10.3301 4.22002 10.9801 4.53002C11.0501 4.45002 11.1201 4.36002 11.2001 4.28002C11.7801 3.70002 12.3601 3.12002 12.9401 2.54002C12.9901 2.49002 13.0301 2.45002 12.9901 2.35002C12.6301 1.56002 13.0501 0.730016 13.9001 0.540016C13.9201 0.540016 13.9401 0.52002 13.9501 0.52002C14.1001 0.53002 14.2201 0.530022 14.3301 0.530022ZM14.7901 1.81002C14.7901 1.46002 14.5001 1.17002 14.1501 1.17002C13.8001 1.17002 13.5201 1.46002 13.5201 1.81002C13.5201 2.16002 13.8101 2.45002 14.1601 2.45002C14.5101 2.45002 14.7901 2.16002 14.7901 1.81002ZM9.69013 5.63001C9.69013 5.98001 9.97014 6.27001 10.3201 6.27001C10.6701 6.27001 10.9601 5.99002 10.9601 5.64002C10.9601 5.29002 10.6801 5.00001 10.3301 4.99001C9.99014 4.99001 9.69013 5.28001 9.69013 5.63001ZM3.30013 7.55001C3.30013 7.20001 3.01014 6.91001 2.66014 6.91001C2.31014 6.91001 2.03013 7.20001 2.03013 7.55001C2.03013 7.90001 2.31014 8.19003 2.67014 8.19003C3.02014 8.19003 3.30013 7.91001 3.30013 7.55001ZM6.50014 3.73002C6.14014 3.73002 5.86013 4.00002 5.86013 4.36002C5.86013 4.72002 6.13014 5.00002 6.49014 5.00002C6.85014 5.00002 7.13013 4.73002 7.13013 4.37002C7.13013 4.01002 6.86014 3.73002 6.50014 3.73002Z" fill="black"/>
</svg>
