<svg width="15" height="15" viewBox="0 0 15 15" fill="none" xmlns="http://www.w3.org/2000/svg">
<mask id="path-1-outside-1_125_17" maskUnits="userSpaceOnUse" x="-0.829834" y="3.18726" width="12" height="12" fill="black">
<rect fill="white" x="-0.829834" y="3.18726" width="12" height="12"/>
<path d="M10.4402 9.89003C10.3802 9.89003 10.3302 9.90002 10.2802 9.91002L10.0602 9.95002C9.93017 9.97002 9.81016 10 9.68016 10.01C9.53016 10.03 9.45017 10.1 9.39017 10.26C9.30017 10.52 9.19017 10.78 9.05017 11.07C8.98017 11.22 8.99017 11.33 9.07017 11.44C9.21017 11.63 9.34017 11.82 9.47017 12.01C9.60017 12.2 9.59016 12.36 9.43016 12.53C9.30016 12.67 9.16016 12.8 9.03016 12.93C8.85016 13.11 8.70017 13.12 8.49017 12.98L8.41017 12.92C8.26017 12.82 8.11017 12.72 7.97017 12.61C7.83017 12.5 7.70016 12.49 7.53016 12.58C7.28016 12.71 7.03016 12.81 6.79016 12.89C6.60016 12.95 6.52017 13.04 6.49017 13.23C6.46017 13.45 6.42016 13.66 6.37016 13.88C6.33016 14.1 6.20017 14.2 5.98017 14.2C5.79017 14.2 5.59017 14.2 5.40017 14.2C5.16017 14.2 5.04017 14.09 4.99017 13.86L4.96017 13.7C4.93017 13.53 4.90017 13.37 4.88017 13.2C4.86017 13.05 4.79017 12.96 4.63017 12.91C4.36017 12.81 4.08017 12.7 3.81017 12.57C3.66017 12.5 3.56016 12.51 3.44016 12.6C3.25016 12.74 3.06016 12.87 2.87016 13C2.68016 13.13 2.53016 13.11 2.36016 12.96C2.22016 12.82 2.08016 12.68 1.94016 12.54C1.78016 12.38 1.77017 12.22 1.90017 12.02C2.03017 11.83 2.16017 11.64 2.30017 11.45C2.38017 11.34 2.39017 11.23 2.32017 11.09C2.18017 10.79 2.07017 10.52 1.98017 10.27C1.93017 10.12 1.84016 10.04 1.69016 10.02C1.48016 9.99002 1.28017 9.95002 1.07017 9.91002L1.02016 9.90002C0.800164 9.86002 0.690165 9.73002 0.690165 9.51002C0.690165 9.31002 0.690165 9.11002 0.690165 8.91002C0.690165 8.69002 0.800164 8.56002 1.01016 8.52002C1.23016 8.48002 1.46016 8.44002 1.68016 8.40002C1.84016 8.38002 1.93017 8.30002 1.99017 8.13002C2.07017 7.89002 2.18017 7.64003 2.32017 7.33003C2.39017 7.18003 2.38017 7.07002 2.30017 6.96002C2.17017 6.79002 2.05016 6.61003 1.93016 6.44003L1.91017 6.40002C1.77017 6.19002 1.78017 6.04003 1.96017 5.86003C2.09017 5.73003 2.22016 5.60003 2.35016 5.47003C2.53016 5.30003 2.69017 5.28003 2.89017 5.42003C3.06017 5.53003 3.22017 5.65002 3.38017 5.76002L3.47017 5.82002C3.57017 5.89002 3.66016 5.90002 3.78016 5.84002C4.07016 5.71002 4.37017 5.59003 4.66017 5.47003C4.78017 5.42003 4.84016 5.36002 4.86016 5.26002C4.91016 5.00002 4.96017 4.73003 5.00017 4.47003C5.02017 4.33003 4.93016 4.21003 4.79016 4.19003C4.66016 4.17003 4.54016 4.26002 4.51016 4.40002C4.49016 4.47002 4.48017 4.54003 4.47017 4.61003C4.46017 4.70003 4.44017 4.79002 4.42017 4.87002C4.40017 4.95002 4.33017 5.04002 4.25017 5.07002C4.09017 5.15002 3.93016 5.21002 3.77016 5.27002C3.69016 5.30002 3.59016 5.28002 3.51016 5.24002C3.43016 5.19002 3.36016 5.14002 3.29016 5.09002C3.21016 5.03002 3.13016 4.98002 3.04016 4.93002C2.74016 4.75002 2.35017 4.78002 2.09017 5.01002C1.86017 5.21002 1.66017 5.42002 1.48017 5.62002C1.26017 5.87002 1.23017 6.25003 1.40017 6.56003C1.46017 6.67003 1.54017 6.80002 1.64017 6.91002C1.79017 7.09002 1.75017 7.25002 1.71017 7.41002C1.58017 7.91002 1.22017 8.00002 0.910166 8.02002C0.650166 8.04002 0.430165 8.18002 0.290165 8.43002C0.250165 8.49002 0.230165 8.57003 0.200165 8.64003C0.190165 8.67003 0.180166 8.70003 0.170166 8.72003V9.68002C0.180166 9.71002 0.190165 9.74002 0.200165 9.76002C0.230165 9.83002 0.250165 9.90002 0.290165 9.96002C0.440165 10.21 0.660165 10.35 0.940165 10.37C1.36016 10.4 1.59016 10.58 1.70016 10.95C1.75016 11.12 1.79017 11.29 1.63017 11.49C1.48017 11.67 1.34017 11.86 1.30017 12.08C1.26017 12.35 1.31017 12.58 1.47017 12.76C1.65017 12.96 1.85017 13.17 2.07017 13.36C2.33017 13.59 2.71016 13.63 3.02016 13.45C3.18016 13.36 3.33017 13.25 3.47017 13.14C3.57017 13.06 3.68016 13.05 3.79016 13.11C3.85016 13.14 3.91017 13.16 3.98017 13.19C4.06017 13.22 4.14017 13.26 4.22017 13.3C4.30017 13.34 4.38017 13.43 4.40017 13.52C4.42017 13.61 4.44016 13.7 4.45016 13.79C4.46016 13.85 4.47017 13.92 4.48017 13.98C4.56017 14.34 4.76016 14.56 5.12016 14.66C5.14016 14.67 5.16016 14.68 5.18016 14.69H6.14017C6.40017 14.6 6.59016 14.51 6.69016 14.31C6.78016 14.13 6.84016 13.93 6.87016 13.73C6.90016 13.51 6.98017 13.27 7.31017 13.21C7.34017 13.21 7.37017 13.19 7.41017 13.17C7.45017 13.15 7.50017 13.12 7.55017 13.11C7.64017 13.09 7.75017 13.1 7.82017 13.14C7.90017 13.19 7.97016 13.24 8.04016 13.29C8.10016 13.33 8.16017 13.38 8.23017 13.42C8.58017 13.64 8.96016 13.61 9.27016 13.34C9.47016 13.16 9.65017 12.97 9.81017 12.8C9.96017 12.64 10.0302 12.45 10.0202 12.2C10.0202 11.99 9.93017 11.79 9.73017 11.55C9.60017 11.4 9.46017 11.17 9.67017 10.86C9.69017 10.84 9.70017 10.8 9.71017 10.76C9.72017 10.72 9.74016 10.67 9.77016 10.62C9.81016 10.56 9.89017 10.47 9.98017 10.45C10.0702 10.43 10.1502 10.41 10.2402 10.4C10.3202 10.39 10.3902 10.38 10.4602 10.36C10.5802 10.33 10.6602 10.2 10.6402 10.08C10.6702 9.98003 10.5602 9.89003 10.4402 9.89003Z"/>
</mask>
<path d="M10.4402 9.89003C10.3802 9.89003 10.3302 9.90002 10.2802 9.91002L10.0602 9.95002C9.93017 9.97002 9.81016 10 9.68016 10.01C9.53016 10.03 9.45017 10.1 9.39017 10.26C9.30017 10.52 9.19017 10.78 9.05017 11.07C8.98017 11.22 8.99017 11.33 9.07017 11.44C9.21017 11.63 9.34017 11.82 9.47017 12.01C9.60017 12.2 9.59016 12.36 9.43016 12.53C9.30016 12.67 9.16016 12.8 9.03016 12.93C8.85016 13.11 8.70017 13.12 8.49017 12.98L8.41017 12.92C8.26017 12.82 8.11017 12.72 7.97017 12.61C7.83017 12.5 7.70016 12.49 7.53016 12.58C7.28016 12.71 7.03016 12.81 6.79016 12.89C6.60016 12.95 6.52017 13.04 6.49017 13.23C6.46017 13.45 6.42016 13.66 6.37016 13.88C6.33016 14.1 6.20017 14.2 5.98017 14.2C5.79017 14.2 5.59017 14.2 5.40017 14.2C5.16017 14.2 5.04017 14.09 4.99017 13.86L4.96017 13.7C4.93017 13.53 4.90017 13.37 4.88017 13.2C4.86017 13.05 4.79017 12.96 4.63017 12.91C4.36017 12.81 4.08017 12.7 3.81017 12.57C3.66017 12.5 3.56016 12.51 3.44016 12.6C3.25016 12.74 3.06016 12.87 2.87016 13C2.68016 13.13 2.53016 13.11 2.36016 12.96C2.22016 12.82 2.08016 12.68 1.94016 12.54C1.78016 12.38 1.77017 12.22 1.90017 12.02C2.03017 11.83 2.16017 11.64 2.30017 11.45C2.38017 11.34 2.39017 11.23 2.32017 11.09C2.18017 10.79 2.07017 10.52 1.98017 10.27C1.93017 10.12 1.84016 10.04 1.69016 10.02C1.48016 9.99002 1.28017 9.95002 1.07017 9.91002L1.02016 9.90002C0.800164 9.86002 0.690165 9.73002 0.690165 9.51002C0.690165 9.31002 0.690165 9.11002 0.690165 8.91002C0.690165 8.69002 0.800164 8.56002 1.01016 8.52002C1.23016 8.48002 1.46016 8.44002 1.68016 8.40002C1.84016 8.38002 1.93017 8.30002 1.99017 8.13002C2.07017 7.89002 2.18017 7.64003 2.32017 7.33003C2.39017 7.18003 2.38017 7.07002 2.30017 6.96002C2.17017 6.79002 2.05016 6.61003 1.93016 6.44003L1.91017 6.40002C1.77017 6.19002 1.78017 6.04003 1.96017 5.86003C2.09017 5.73003 2.22016 5.60003 2.35016 5.47003C2.53016 5.30003 2.69017 5.28003 2.89017 5.42003C3.06017 5.53003 3.22017 5.65002 3.38017 5.76002L3.47017 5.82002C3.57017 5.89002 3.66016 5.90002 3.78016 5.84002C4.07016 5.71002 4.37017 5.59003 4.66017 5.47003C4.78017 5.42003 4.84016 5.36002 4.86016 5.26002C4.91016 5.00002 4.96017 4.73003 5.00017 4.47003C5.02017 4.33003 4.93016 4.21003 4.79016 4.19003C4.66016 4.17003 4.54016 4.26002 4.51016 4.40002C4.49016 4.47002 4.48017 4.54003 4.47017 4.61003C4.46017 4.70003 4.44017 4.79002 4.42017 4.87002C4.40017 4.95002 4.33017 5.04002 4.25017 5.07002C4.09017 5.15002 3.93016 5.21002 3.77016 5.27002C3.69016 5.30002 3.59016 5.28002 3.51016 5.24002C3.43016 5.19002 3.36016 5.14002 3.29016 5.09002C3.21016 5.03002 3.13016 4.98002 3.04016 4.93002C2.74016 4.75002 2.35017 4.78002 2.09017 5.01002C1.86017 5.21002 1.66017 5.42002 1.48017 5.62002C1.26017 5.87002 1.23017 6.25003 1.40017 6.56003C1.46017 6.67003 1.54017 6.80002 1.64017 6.91002C1.79017 7.09002 1.75017 7.25002 1.71017 7.41002C1.58017 7.91002 1.22017 8.00002 0.910166 8.02002C0.650166 8.04002 0.430165 8.18002 0.290165 8.43002C0.250165 8.49002 0.230165 8.57003 0.200165 8.64003C0.190165 8.67003 0.180166 8.70003 0.170166 8.72003V9.68002C0.180166 9.71002 0.190165 9.74002 0.200165 9.76002C0.230165 9.83002 0.250165 9.90002 0.290165 9.96002C0.440165 10.21 0.660165 10.35 0.940165 10.37C1.36016 10.4 1.59016 10.58 1.70016 10.95C1.75016 11.12 1.79017 11.29 1.63017 11.49C1.48017 11.67 1.34017 11.86 1.30017 12.08C1.26017 12.35 1.31017 12.58 1.47017 12.76C1.65017 12.96 1.85017 13.17 2.07017 13.36C2.33017 13.59 2.71016 13.63 3.02016 13.45C3.18016 13.36 3.33017 13.25 3.47017 13.14C3.57017 13.06 3.68016 13.05 3.79016 13.11C3.85016 13.14 3.91017 13.16 3.98017 13.19C4.06017 13.22 4.14017 13.26 4.22017 13.3C4.30017 13.34 4.38017 13.43 4.40017 13.52C4.42017 13.61 4.44016 13.7 4.45016 13.79C4.46016 13.85 4.47017 13.92 4.48017 13.98C4.56017 14.34 4.76016 14.56 5.12016 14.66C5.14016 14.67 5.16016 14.68 5.18016 14.69H6.14017C6.40017 14.6 6.59016 14.51 6.69016 14.31C6.78016 14.13 6.84016 13.93 6.87016 13.73C6.90016 13.51 6.98017 13.27 7.31017 13.21C7.34017 13.21 7.37017 13.19 7.41017 13.17C7.45017 13.15 7.50017 13.12 7.55017 13.11C7.64017 13.09 7.75017 13.1 7.82017 13.14C7.90017 13.19 7.97016 13.24 8.04016 13.29C8.10016 13.33 8.16017 13.38 8.23017 13.42C8.58017 13.64 8.96016 13.61 9.27016 13.34C9.47016 13.16 9.65017 12.97 9.81017 12.8C9.96017 12.64 10.0302 12.45 10.0202 12.2C10.0202 11.99 9.93017 11.79 9.73017 11.55C9.60017 11.4 9.46017 11.17 9.67017 10.86C9.69017 10.84 9.70017 10.8 9.71017 10.76C9.72017 10.72 9.74016 10.67 9.77016 10.62C9.81016 10.56 9.89017 10.47 9.98017 10.45C10.0702 10.43 10.1502 10.41 10.2402 10.4C10.3202 10.39 10.3902 10.38 10.4602 10.36C10.5802 10.33 10.6602 10.2 10.6402 10.08C10.6702 9.98003 10.5602 9.89003 10.4402 9.89003Z" fill="black"/>
<path d="M10.4402 9.89003C10.3802 9.89003 10.3302 9.90002 10.2802 9.91002L10.0602 9.95002C9.93017 9.97002 9.81016 10 9.68016 10.01C9.53016 10.03 9.45017 10.1 9.39017 10.26C9.30017 10.52 9.19017 10.78 9.05017 11.07C8.98017 11.22 8.99017 11.33 9.07017 11.44C9.21017 11.63 9.34017 11.82 9.47017 12.01C9.60017 12.2 9.59016 12.36 9.43016 12.53C9.30016 12.67 9.16016 12.8 9.03016 12.93C8.85016 13.11 8.70017 13.12 8.49017 12.98L8.41017 12.92C8.26017 12.82 8.11017 12.72 7.97017 12.61C7.83017 12.5 7.70016 12.49 7.53016 12.58C7.28016 12.71 7.03016 12.81 6.79016 12.89C6.60016 12.95 6.52017 13.04 6.49017 13.23C6.46017 13.45 6.42016 13.66 6.37016 13.88C6.33016 14.1 6.20017 14.2 5.98017 14.2C5.79017 14.2 5.59017 14.2 5.40017 14.2C5.16017 14.2 5.04017 14.09 4.99017 13.86L4.96017 13.7C4.93017 13.53 4.90017 13.37 4.88017 13.2C4.86017 13.05 4.79017 12.96 4.63017 12.91C4.36017 12.81 4.08017 12.7 3.81017 12.57C3.66017 12.5 3.56016 12.51 3.44016 12.6C3.25016 12.74 3.06016 12.87 2.87016 13C2.68016 13.13 2.53016 13.11 2.36016 12.96C2.22016 12.82 2.08016 12.68 1.94016 12.54C1.78016 12.38 1.77017 12.22 1.90017 12.02C2.03017 11.83 2.16017 11.64 2.30017 11.45C2.38017 11.34 2.39017 11.23 2.32017 11.09C2.18017 10.79 2.07017 10.52 1.98017 10.27C1.93017 10.12 1.84016 10.04 1.69016 10.02C1.48016 9.99002 1.28017 9.95002 1.07017 9.91002L1.02016 9.90002C0.800164 9.86002 0.690165 9.73002 0.690165 9.51002C0.690165 9.31002 0.690165 9.11002 0.690165 8.91002C0.690165 8.69002 0.800164 8.56002 1.01016 8.52002C1.23016 8.48002 1.46016 8.44002 1.68016 8.40002C1.84016 8.38002 1.93017 8.30002 1.99017 8.13002C2.07017 7.89002 2.18017 7.64003 2.32017 7.33003C2.39017 7.18003 2.38017 7.07002 2.30017 6.96002C2.17017 6.79002 2.05016 6.61003 1.93016 6.44003L1.91017 6.40002C1.77017 6.19002 1.78017 6.04003 1.96017 5.86003C2.09017 5.73003 2.22016 5.60003 2.35016 5.47003C2.53016 5.30003 2.69017 5.28003 2.89017 5.42003C3.06017 5.53003 3.22017 5.65002 3.38017 5.76002L3.47017 5.82002C3.57017 5.89002 3.66016 5.90002 3.78016 5.84002C4.07016 5.71002 4.37017 5.59003 4.66017 5.47003C4.78017 5.42003 4.84016 5.36002 4.86016 5.26002C4.91016 5.00002 4.96017 4.73003 5.00017 4.47003C5.02017 4.33003 4.93016 4.21003 4.79016 4.19003C4.66016 4.17003 4.54016 4.26002 4.51016 4.40002C4.49016 4.47002 4.48017 4.54003 4.47017 4.61003C4.46017 4.70003 4.44017 4.79002 4.42017 4.87002C4.40017 4.95002 4.33017 5.04002 4.25017 5.07002C4.09017 5.15002 3.93016 5.21002 3.77016 5.27002C3.69016 5.30002 3.59016 5.28002 3.51016 5.24002C3.43016 5.19002 3.36016 5.14002 3.29016 5.09002C3.21016 5.03002 3.13016 4.98002 3.04016 4.93002C2.74016 4.75002 2.35017 4.78002 2.09017 5.01002C1.86017 5.21002 1.66017 5.42002 1.48017 5.62002C1.26017 5.87002 1.23017 6.25003 1.40017 6.56003C1.46017 6.67003 1.54017 6.80002 1.64017 6.91002C1.79017 7.09002 1.75017 7.25002 1.71017 7.41002C1.58017 7.91002 1.22017 8.00002 0.910166 8.02002C0.650166 8.04002 0.430165 8.18002 0.290165 8.43002C0.250165 8.49002 0.230165 8.57003 0.200165 8.64003C0.190165 8.67003 0.180166 8.70003 0.170166 8.72003V9.68002C0.180166 9.71002 0.190165 9.74002 0.200165 9.76002C0.230165 9.83002 0.250165 9.90002 0.290165 9.96002C0.440165 10.21 0.660165 10.35 0.940165 10.37C1.36016 10.4 1.59016 10.58 1.70016 10.95C1.75016 11.12 1.79017 11.29 1.63017 11.49C1.48017 11.67 1.34017 11.86 1.30017 12.08C1.26017 12.35 1.31017 12.58 1.47017 12.76C1.65017 12.96 1.85017 13.17 2.07017 13.36C2.33017 13.59 2.71016 13.63 3.02016 13.45C3.18016 13.36 3.33017 13.25 3.47017 13.14C3.57017 13.06 3.68016 13.05 3.79016 13.11C3.85016 13.14 3.91017 13.16 3.98017 13.19C4.06017 13.22 4.14017 13.26 4.22017 13.3C4.30017 13.34 4.38017 13.43 4.40017 13.52C4.42017 13.61 4.44016 13.7 4.45016 13.79C4.46016 13.85 4.47017 13.92 4.48017 13.98C4.56017 14.34 4.76016 14.56 5.12016 14.66C5.14016 14.67 5.16016 14.68 5.18016 14.69H6.14017C6.40017 14.6 6.59016 14.51 6.69016 14.31C6.78016 14.13 6.84016 13.93 6.87016 13.73C6.90016 13.51 6.98017 13.27 7.31017 13.21C7.34017 13.21 7.37017 13.19 7.41017 13.17C7.45017 13.15 7.50017 13.12 7.55017 13.11C7.64017 13.09 7.75017 13.1 7.82017 13.14C7.90017 13.19 7.97016 13.24 8.04016 13.29C8.10016 13.33 8.16017 13.38 8.23017 13.42C8.58017 13.64 8.96016 13.61 9.27016 13.34C9.47016 13.16 9.65017 12.97 9.81017 12.8C9.96017 12.64 10.0302 12.45 10.0202 12.2C10.0202 11.99 9.93017 11.79 9.73017 11.55C9.60017 11.4 9.46017 11.17 9.67017 10.86C9.69017 10.84 9.70017 10.8 9.71017 10.76C9.72017 10.72 9.74016 10.67 9.77016 10.62C9.81016 10.56 9.89017 10.47 9.98017 10.45C10.0702 10.43 10.1502 10.41 10.2402 10.4C10.3202 10.39 10.3902 10.38 10.4602 10.36C10.5802 10.33 10.6602 10.2 10.6402 10.08C10.6702 9.98003 10.5602 9.89003 10.4402 9.89003Z" stroke="black" stroke-width="0.2" mask="url(#path-1-outside-1_125_17)"/>
<mask id="path-2-outside-2_125_17" maskUnits="userSpaceOnUse" x="4.96014" y="-0.843994" width="10" height="10" fill="black">
<rect fill="white" x="4.96014" y="-0.843994" width="10" height="10"/>
<path d="M14.7401 4.28999C14.7301 3.91999 14.5001 3.64999 14.1401 3.56999C14.0401 3.54999 13.9701 3.53 13.9001 3.53C13.7301 3.52 13.6501 3.40999 13.5901 3.29999C13.4501 3.03999 13.4701 2.81999 13.6701 2.62999L13.7001 2.59C13.9201 2.26 13.8901 1.9 13.6201 1.61C13.5601 1.54 13.4901 1.48 13.4301 1.42L13.3401 1.33C12.9901 0.980002 12.6501 0.94999 12.2601 1.23999C12.0901 1.36999 11.8801 1.47 11.6001 1.31C11.5001 1.25 11.3801 1.18 11.3701 1C11.3701 0.94 11.3501 0.869997 11.3401 0.809997L11.3301 0.759994C11.2501 0.399994 10.9801 0.169988 10.6101 0.159988C10.5701 0.159988 10.5301 0.159988 10.4901 0.159988C10.4301 0.159988 10.3701 0.159988 10.3101 0.159988C9.69014 0.119988 9.39014 0.38 9.32014 1C9.30014 1.17 9.20014 1.24999 9.10014 1.29999C8.84014 1.44999 8.61014 1.42 8.42014 1.22C8.41014 1.21 8.38014 1.19 8.35014 1.17L8.32014 1.14999C8.02014 0.969994 7.69014 0.999995 7.44014 1.23C7.36014 1.31 7.28014 1.39 7.20014 1.47L7.12014 1.54999C6.76014 1.90999 6.74014 2.24 7.03014 2.64C7.15014 2.81 7.25014 2.99999 7.11014 3.25999C7.04014 3.38999 6.95014 3.51 6.75014 3.53C6.68014 3.53 6.62014 3.55 6.56014 3.56C6.22014 3.64 6.03014 3.82 5.99014 4.11C5.95014 4.41 5.95014 4.71 5.99014 4.97C6.06014 5.38 6.40014 5.5 6.67014 5.53C6.86014 5.55 7.06014 5.60999 7.16014 5.90999C7.22014 6.07999 7.20014 6.21 7.10014 6.36C7.01014 6.5 6.90014 6.67 6.87014 6.83C6.84014 6.99 6.91014 7.22 7.07014 7.45C7.28014 7.75 7.57014 7.99 7.82014 8.03C8.06014 8.08 8.28014 8 8.56014 7.78C8.64014 7.71 8.72014 7.69 8.80014 7.69C8.86014 7.69 8.92014 7.71 8.98014 7.72C9.25014 7.8 9.38014 7.96999 9.38014 8.23999C9.38014 8.25999 9.39014 8.3 9.40014 8.33L9.41014 8.36C9.49014 8.68 9.75014 8.89999 10.0801 8.90999C10.2701 8.91999 10.4701 8.91999 10.6801 8.90999C11.0101 8.89999 11.2601 8.69 11.3401 8.37C11.3601 8.31 11.3701 8.25 11.3801 8.19C11.3901 8.13 11.4001 8.06 11.4201 8C11.4301 7.94 11.4801 7.85 11.5501 7.81C11.7101 7.72 12.0301 7.53 12.3201 7.86C12.3301 7.88 12.3601 7.88999 12.4001 7.90999L12.4301 7.92999C12.7101 8.07999 13.0201 8.04999 13.2601 7.84999C13.3601 7.76999 13.4501 7.67 13.5401 7.58L13.6101 7.50999C13.9601 7.15999 13.9901 6.81999 13.7001 6.42999C13.5201 6.19999 13.5001 5.99999 13.6301 5.76999C13.6901 5.66999 13.7501 5.54999 13.9401 5.53999C14.0401 5.52999 14.1501 5.5 14.2501 5.48C14.5501 5.4 14.7501 5.14 14.7701 4.83C14.7701 4.76 14.7701 4.68999 14.7701 4.61999V4.39C14.7401 4.37 14.7401 4.32999 14.7401 4.28999ZM14.2401 4.73C14.2501 4.9 14.1501 5.00999 13.9701 5.03999C13.8901 5.04999 13.8101 5.07 13.7301 5.08C13.6501 5.09 13.5801 5.10999 13.5001 5.11999C13.3501 5.13999 13.2601 5.20999 13.2101 5.34999C13.1401 5.55999 13.0501 5.76999 12.9501 5.98999C12.8901 6.12999 12.8901 6.22999 12.9801 6.34999C13.0201 6.40999 13.0601 6.47 13.1001 6.53C13.1501 6.6 13.2001 6.66999 13.2501 6.73999C13.3701 6.88999 13.3501 7.04999 13.2101 7.17999C13.1601 7.22999 13.1101 7.28 13.0601 7.33C13.0201 7.37 12.9801 7.41 12.9501 7.44C12.9201 7.47 12.8901 7.48999 12.8601 7.50999L12.7701 7.56999L12.6701 7.51999C12.6301 7.49999 12.6001 7.49 12.5701 7.47L12.1401 7.17C12.0401 7.1 11.9401 7.09 11.8301 7.14C11.6101 7.24 11.3701 7.34 11.1401 7.42C11.0201 7.47 10.9601 7.53999 10.9401 7.65999C10.9301 7.72999 10.9101 7.80999 10.9001 7.87999C10.8801 7.97999 10.8701 8.07 10.8501 8.17C10.8101 8.39 10.6601 8.42999 10.5601 8.42999C10.5501 8.42999 10.5501 8.42999 10.5401 8.42999C10.4101 8.41999 10.2801 8.42999 10.1401 8.42999H10.1301C9.97014 8.42999 9.87014 8.33999 9.85014 8.17999C9.84014 8.10999 9.83014 8.02999 9.81014 7.95999C9.79014 7.86999 9.78014 7.78 9.76014 7.69C9.74014 7.54 9.67014 7.44999 9.51014 7.39999C9.27014 7.31999 9.07014 7.22999 8.90014 7.14999C8.76014 7.07999 8.65014 7.08999 8.52014 7.17999C8.45014 7.22999 8.38014 7.28 8.31014 7.33C8.25014 7.37 8.19014 7.40999 8.13014 7.45999C7.99014 7.56999 7.84014 7.55999 7.72014 7.42999C7.64014 7.33999 7.55014 7.24999 7.45014 7.15999C7.38014 7.08999 7.27014 6.95 7.42014 6.75C7.48014 6.67 7.53014 6.59999 7.59014 6.51999C7.63014 6.45999 7.67014 6.4 7.72014 6.34C7.80014 6.23 7.81014 6.13 7.75014 6C7.66014 5.79 7.56014 5.57 7.47014 5.34C7.42014 5.21 7.34014 5.13999 7.20014 5.11999C7.12014 5.10999 7.04014 5.09 6.96014 5.08C6.88014 5.06 6.79014 5.04999 6.71014 5.03999C6.55014 5.01999 6.46014 4.91 6.46014 4.75C6.46014 4.62 6.47014 4.48999 6.46014 4.34999C6.46014 4.24999 6.48014 4.06999 6.72014 4.03999C6.83014 4.01999 6.93014 4 7.04014 3.98L7.23014 3.95C7.35014 3.93 7.42014 3.87 7.47014 3.75C7.56014 3.51 7.65014 3.29 7.75014 3.08C7.81014 2.95 7.80014 2.85 7.72014 2.75C7.67014 2.69 7.63014 2.62 7.58014 2.56C7.53014 2.49 7.48014 2.41 7.43014 2.34C7.32014 2.2 7.34014 2.04999 7.46014 1.92999C7.55014 1.83999 7.64014 1.74999 7.73014 1.65999C7.85014 1.52999 7.99014 1.51999 8.14014 1.62999C8.22014 1.68999 8.30014 1.73999 8.38014 1.79999C8.44014 1.83999 8.50014 1.88 8.55014 1.92C8.66014 2 8.76014 2.01 8.88014 1.95C9.07014 1.86 9.28014 1.77999 9.54014 1.67999C9.67014 1.62999 9.74014 1.54999 9.76014 1.40999C9.77014 1.31999 9.79014 1.23 9.81014 1.14C9.82014 1.06 9.84014 0.989988 9.85014 0.909988C9.87014 0.749988 9.98014 0.659988 10.1301 0.659988H10.1401C10.2701 0.659988 10.4101 0.669988 10.5401 0.659988C10.6401 0.659988 10.8101 0.679998 10.8501 0.919998C10.8701 1.01 10.8801 1.11 10.9001 1.2L10.9401 1.42999C10.9601 1.54999 11.0201 1.62 11.1401 1.67C11.4101 1.77 11.6201 1.86 11.8101 1.95C11.9401 2.01 12.0401 2 12.1501 1.92C12.2201 1.87 12.2801 1.83 12.3501 1.78C12.4301 1.73 12.5001 1.67999 12.5701 1.61999C12.7001 1.51999 12.8401 1.52999 12.9501 1.64999C13.0401 1.74999 13.1401 1.85 13.2401 1.94C13.3101 2 13.4001 2.13999 13.2701 2.31999C13.2201 2.37999 13.1801 2.44999 13.1401 2.50999C13.0901 2.58999 13.0401 2.66 12.9801 2.73C12.9001 2.85 12.8901 2.95 12.9501 3.09C13.0501 3.31 13.1401 3.52999 13.2201 3.73999C13.2701 3.86999 13.3501 3.93999 13.4801 3.95999C13.5701 3.96999 13.6701 3.98999 13.7601 4.00999C13.8301 4.01999 13.9101 4.03999 13.9801 4.04999C14.2201 4.08999 14.2501 4.26 14.2401 4.36C14.2301 4.48 14.2301 4.61 14.2401 4.73Z"/>
</mask>
<path d="M14.7401 4.28999C14.7301 3.91999 14.5001 3.64999 14.1401 3.56999C14.0401 3.54999 13.9701 3.53 13.9001 3.53C13.7301 3.52 13.6501 3.40999 13.5901 3.29999C13.4501 3.03999 13.4701 2.81999 13.6701 2.62999L13.7001 2.59C13.9201 2.26 13.8901 1.9 13.6201 1.61C13.5601 1.54 13.4901 1.48 13.4301 1.42L13.3401 1.33C12.9901 0.980002 12.6501 0.94999 12.2601 1.23999C12.0901 1.36999 11.8801 1.47 11.6001 1.31C11.5001 1.25 11.3801 1.18 11.3701 1C11.3701 0.94 11.3501 0.869997 11.3401 0.809997L11.3301 0.759994C11.2501 0.399994 10.9801 0.169988 10.6101 0.159988C10.5701 0.159988 10.5301 0.159988 10.4901 0.159988C10.4301 0.159988 10.3701 0.159988 10.3101 0.159988C9.69014 0.119988 9.39014 0.38 9.32014 1C9.30014 1.17 9.20014 1.24999 9.10014 1.29999C8.84014 1.44999 8.61014 1.42 8.42014 1.22C8.41014 1.21 8.38014 1.19 8.35014 1.17L8.32014 1.14999C8.02014 0.969994 7.69014 0.999995 7.44014 1.23C7.36014 1.31 7.28014 1.39 7.20014 1.47L7.12014 1.54999C6.76014 1.90999 6.74014 2.24 7.03014 2.64C7.15014 2.81 7.25014 2.99999 7.11014 3.25999C7.04014 3.38999 6.95014 3.51 6.75014 3.53C6.68014 3.53 6.62014 3.55 6.56014 3.56C6.22014 3.64 6.03014 3.82 5.99014 4.11C5.95014 4.41 5.95014 4.71 5.99014 4.97C6.06014 5.38 6.40014 5.5 6.67014 5.53C6.86014 5.55 7.06014 5.60999 7.16014 5.90999C7.22014 6.07999 7.20014 6.21 7.10014 6.36C7.01014 6.5 6.90014 6.67 6.87014 6.83C6.84014 6.99 6.91014 7.22 7.07014 7.45C7.28014 7.75 7.57014 7.99 7.82014 8.03C8.06014 8.08 8.28014 8 8.56014 7.78C8.64014 7.71 8.72014 7.69 8.80014 7.69C8.86014 7.69 8.92014 7.71 8.98014 7.72C9.25014 7.8 9.38014 7.96999 9.38014 8.23999C9.38014 8.25999 9.39014 8.3 9.40014 8.33L9.41014 8.36C9.49014 8.68 9.75014 8.89999 10.0801 8.90999C10.2701 8.91999 10.4701 8.91999 10.6801 8.90999C11.0101 8.89999 11.2601 8.69 11.3401 8.37C11.3601 8.31 11.3701 8.25 11.3801 8.19C11.3901 8.13 11.4001 8.06 11.4201 8C11.4301 7.94 11.4801 7.85 11.5501 7.81C11.7101 7.72 12.0301 7.53 12.3201 7.86C12.3301 7.88 12.3601 7.88999 12.4001 7.90999L12.4301 7.92999C12.7101 8.07999 13.0201 8.04999 13.2601 7.84999C13.3601 7.76999 13.4501 7.67 13.5401 7.58L13.6101 7.50999C13.9601 7.15999 13.9901 6.81999 13.7001 6.42999C13.5201 6.19999 13.5001 5.99999 13.6301 5.76999C13.6901 5.66999 13.7501 5.54999 13.9401 5.53999C14.0401 5.52999 14.1501 5.5 14.2501 5.48C14.5501 5.4 14.7501 5.14 14.7701 4.83C14.7701 4.76 14.7701 4.68999 14.7701 4.61999V4.39C14.7401 4.37 14.7401 4.32999 14.7401 4.28999ZM14.2401 4.73C14.2501 4.9 14.1501 5.00999 13.9701 5.03999C13.8901 5.04999 13.8101 5.07 13.7301 5.08C13.6501 5.09 13.5801 5.10999 13.5001 5.11999C13.3501 5.13999 13.2601 5.20999 13.2101 5.34999C13.1401 5.55999 13.0501 5.76999 12.9501 5.98999C12.8901 6.12999 12.8901 6.22999 12.9801 6.34999C13.0201 6.40999 13.0601 6.47 13.1001 6.53C13.1501 6.6 13.2001 6.66999 13.2501 6.73999C13.3701 6.88999 13.3501 7.04999 13.2101 7.17999C13.1601 7.22999 13.1101 7.28 13.0601 7.33C13.0201 7.37 12.9801 7.41 12.9501 7.44C12.9201 7.47 12.8901 7.48999 12.8601 7.50999L12.7701 7.56999L12.6701 7.51999C12.6301 7.49999 12.6001 7.49 12.5701 7.47L12.1401 7.17C12.0401 7.1 11.9401 7.09 11.8301 7.14C11.6101 7.24 11.3701 7.34 11.1401 7.42C11.0201 7.47 10.9601 7.53999 10.9401 7.65999C10.9301 7.72999 10.9101 7.80999 10.9001 7.87999C10.8801 7.97999 10.8701 8.07 10.8501 8.17C10.8101 8.39 10.6601 8.42999 10.5601 8.42999C10.5501 8.42999 10.5501 8.42999 10.5401 8.42999C10.4101 8.41999 10.2801 8.42999 10.1401 8.42999H10.1301C9.97014 8.42999 9.87014 8.33999 9.85014 8.17999C9.84014 8.10999 9.83014 8.02999 9.81014 7.95999C9.79014 7.86999 9.78014 7.78 9.76014 7.69C9.74014 7.54 9.67014 7.44999 9.51014 7.39999C9.27014 7.31999 9.07014 7.22999 8.90014 7.14999C8.76014 7.07999 8.65014 7.08999 8.52014 7.17999C8.45014 7.22999 8.38014 7.28 8.31014 7.33C8.25014 7.37 8.19014 7.40999 8.13014 7.45999C7.99014 7.56999 7.84014 7.55999 7.72014 7.42999C7.64014 7.33999 7.55014 7.24999 7.45014 7.15999C7.38014 7.08999 7.27014 6.95 7.42014 6.75C7.48014 6.67 7.53014 6.59999 7.59014 6.51999C7.63014 6.45999 7.67014 6.4 7.72014 6.34C7.80014 6.23 7.81014 6.13 7.75014 6C7.66014 5.79 7.56014 5.57 7.47014 5.34C7.42014 5.21 7.34014 5.13999 7.20014 5.11999C7.12014 5.10999 7.04014 5.09 6.96014 5.08C6.88014 5.06 6.79014 5.04999 6.71014 5.03999C6.55014 5.01999 6.46014 4.91 6.46014 4.75C6.46014 4.62 6.47014 4.48999 6.46014 4.34999C6.46014 4.24999 6.48014 4.06999 6.72014 4.03999C6.83014 4.01999 6.93014 4 7.04014 3.98L7.23014 3.95C7.35014 3.93 7.42014 3.87 7.47014 3.75C7.56014 3.51 7.65014 3.29 7.75014 3.08C7.81014 2.95 7.80014 2.85 7.72014 2.75C7.67014 2.69 7.63014 2.62 7.58014 2.56C7.53014 2.49 7.48014 2.41 7.43014 2.34C7.32014 2.2 7.34014 2.04999 7.46014 1.92999C7.55014 1.83999 7.64014 1.74999 7.73014 1.65999C7.85014 1.52999 7.99014 1.51999 8.14014 1.62999C8.22014 1.68999 8.30014 1.73999 8.38014 1.79999C8.44014 1.83999 8.50014 1.88 8.55014 1.92C8.66014 2 8.76014 2.01 8.88014 1.95C9.07014 1.86 9.28014 1.77999 9.54014 1.67999C9.67014 1.62999 9.74014 1.54999 9.76014 1.40999C9.77014 1.31999 9.79014 1.23 9.81014 1.14C9.82014 1.06 9.84014 0.989988 9.85014 0.909988C9.87014 0.749988 9.98014 0.659988 10.1301 0.659988H10.1401C10.2701 0.659988 10.4101 0.669988 10.5401 0.659988C10.6401 0.659988 10.8101 0.679998 10.8501 0.919998C10.8701 1.01 10.8801 1.11 10.9001 1.2L10.9401 1.42999C10.9601 1.54999 11.0201 1.62 11.1401 1.67C11.4101 1.77 11.6201 1.86 11.8101 1.95C11.9401 2.01 12.0401 2 12.1501 1.92C12.2201 1.87 12.2801 1.83 12.3501 1.78C12.4301 1.73 12.5001 1.67999 12.5701 1.61999C12.7001 1.51999 12.8401 1.52999 12.9501 1.64999C13.0401 1.74999 13.1401 1.85 13.2401 1.94C13.3101 2 13.4001 2.13999 13.2701 2.31999C13.2201 2.37999 13.1801 2.44999 13.1401 2.50999C13.0901 2.58999 13.0401 2.66 12.9801 2.73C12.9001 2.85 12.8901 2.95 12.9501 3.09C13.0501 3.31 13.1401 3.52999 13.2201 3.73999C13.2701 3.86999 13.3501 3.93999 13.4801 3.95999C13.5701 3.96999 13.6701 3.98999 13.7601 4.00999C13.8301 4.01999 13.9101 4.03999 13.9801 4.04999C14.2201 4.08999 14.2501 4.26 14.2401 4.36C14.2301 4.48 14.2301 4.61 14.2401 4.73Z" fill="black"/>
<path d="M14.7401 4.28999C14.7301 3.91999 14.5001 3.64999 14.1401 3.56999C14.0401 3.54999 13.9701 3.53 13.9001 3.53C13.7301 3.52 13.6501 3.40999 13.5901 3.29999C13.4501 3.03999 13.4701 2.81999 13.6701 2.62999L13.7001 2.59C13.9201 2.26 13.8901 1.9 13.6201 1.61C13.5601 1.54 13.4901 1.48 13.4301 1.42L13.3401 1.33C12.9901 0.980002 12.6501 0.94999 12.2601 1.23999C12.0901 1.36999 11.8801 1.47 11.6001 1.31C11.5001 1.25 11.3801 1.18 11.3701 1C11.3701 0.94 11.3501 0.869997 11.3401 0.809997L11.3301 0.759994C11.2501 0.399994 10.9801 0.169988 10.6101 0.159988C10.5701 0.159988 10.5301 0.159988 10.4901 0.159988C10.4301 0.159988 10.3701 0.159988 10.3101 0.159988C9.69014 0.119988 9.39014 0.38 9.32014 1C9.30014 1.17 9.20014 1.24999 9.10014 1.29999C8.84014 1.44999 8.61014 1.42 8.42014 1.22C8.41014 1.21 8.38014 1.19 8.35014 1.17L8.32014 1.14999C8.02014 0.969994 7.69014 0.999995 7.44014 1.23C7.36014 1.31 7.28014 1.39 7.20014 1.47L7.12014 1.54999C6.76014 1.90999 6.74014 2.24 7.03014 2.64C7.15014 2.81 7.25014 2.99999 7.11014 3.25999C7.04014 3.38999 6.95014 3.51 6.75014 3.53C6.68014 3.53 6.62014 3.55 6.56014 3.56C6.22014 3.64 6.03014 3.82 5.99014 4.11C5.95014 4.41 5.95014 4.71 5.99014 4.97C6.06014 5.38 6.40014 5.5 6.67014 5.53C6.86014 5.55 7.06014 5.60999 7.16014 5.90999C7.22014 6.07999 7.20014 6.21 7.10014 6.36C7.01014 6.5 6.90014 6.67 6.87014 6.83C6.84014 6.99 6.91014 7.22 7.07014 7.45C7.28014 7.75 7.57014 7.99 7.82014 8.03C8.06014 8.08 8.28014 8 8.56014 7.78C8.64014 7.71 8.72014 7.69 8.80014 7.69C8.86014 7.69 8.92014 7.71 8.98014 7.72C9.25014 7.8 9.38014 7.96999 9.38014 8.23999C9.38014 8.25999 9.39014 8.3 9.40014 8.33L9.41014 8.36C9.49014 8.68 9.75014 8.89999 10.0801 8.90999C10.2701 8.91999 10.4701 8.91999 10.6801 8.90999C11.0101 8.89999 11.2601 8.69 11.3401 8.37C11.3601 8.31 11.3701 8.25 11.3801 8.19C11.3901 8.13 11.4001 8.06 11.4201 8C11.4301 7.94 11.4801 7.85 11.5501 7.81C11.7101 7.72 12.0301 7.53 12.3201 7.86C12.3301 7.88 12.3601 7.88999 12.4001 7.90999L12.4301 7.92999C12.7101 8.07999 13.0201 8.04999 13.2601 7.84999C13.3601 7.76999 13.4501 7.67 13.5401 7.58L13.6101 7.50999C13.9601 7.15999 13.9901 6.81999 13.7001 6.42999C13.5201 6.19999 13.5001 5.99999 13.6301 5.76999C13.6901 5.66999 13.7501 5.54999 13.9401 5.53999C14.0401 5.52999 14.1501 5.5 14.2501 5.48C14.5501 5.4 14.7501 5.14 14.7701 4.83C14.7701 4.76 14.7701 4.68999 14.7701 4.61999V4.39C14.7401 4.37 14.7401 4.32999 14.7401 4.28999ZM14.2401 4.73C14.2501 4.9 14.1501 5.00999 13.9701 5.03999C13.8901 5.04999 13.8101 5.07 13.7301 5.08C13.6501 5.09 13.5801 5.10999 13.5001 5.11999C13.3501 5.13999 13.2601 5.20999 13.2101 5.34999C13.1401 5.55999 13.0501 5.76999 12.9501 5.98999C12.8901 6.12999 12.8901 6.22999 12.9801 6.34999C13.0201 6.40999 13.0601 6.47 13.1001 6.53C13.1501 6.6 13.2001 6.66999 13.2501 6.73999C13.3701 6.88999 13.3501 7.04999 13.2101 7.17999C13.1601 7.22999 13.1101 7.28 13.0601 7.33C13.0201 7.37 12.9801 7.41 12.9501 7.44C12.9201 7.47 12.8901 7.48999 12.8601 7.50999L12.7701 7.56999L12.6701 7.51999C12.6301 7.49999 12.6001 7.49 12.5701 7.47L12.1401 7.17C12.0401 7.1 11.9401 7.09 11.8301 7.14C11.6101 7.24 11.3701 7.34 11.1401 7.42C11.0201 7.47 10.9601 7.53999 10.9401 7.65999C10.9301 7.72999 10.9101 7.80999 10.9001 7.87999C10.8801 7.97999 10.8701 8.07 10.8501 8.17C10.8101 8.39 10.6601 8.42999 10.5601 8.42999C10.5501 8.42999 10.5501 8.42999 10.5401 8.42999C10.4101 8.41999 10.2801 8.42999 10.1401 8.42999H10.1301C9.97014 8.42999 9.87014 8.33999 9.85014 8.17999C9.84014 8.10999 9.83014 8.02999 9.81014 7.95999C9.79014 7.86999 9.78014 7.78 9.76014 7.69C9.74014 7.54 9.67014 7.44999 9.51014 7.39999C9.27014 7.31999 9.07014 7.22999 8.90014 7.14999C8.76014 7.07999 8.65014 7.08999 8.52014 7.17999C8.45014 7.22999 8.38014 7.28 8.31014 7.33C8.25014 7.37 8.19014 7.40999 8.13014 7.45999C7.99014 7.56999 7.84014 7.55999 7.72014 7.42999C7.64014 7.33999 7.55014 7.24999 7.45014 7.15999C7.38014 7.08999 7.27014 6.95 7.42014 6.75C7.48014 6.67 7.53014 6.59999 7.59014 6.51999C7.63014 6.45999 7.67014 6.4 7.72014 6.34C7.80014 6.23 7.81014 6.13 7.75014 6C7.66014 5.79 7.56014 5.57 7.47014 5.34C7.42014 5.21 7.34014 5.13999 7.20014 5.11999C7.12014 5.10999 7.04014 5.09 6.96014 5.08C6.88014 5.06 6.79014 5.04999 6.71014 5.03999C6.55014 5.01999 6.46014 4.91 6.46014 4.75C6.46014 4.62 6.47014 4.48999 6.46014 4.34999C6.46014 4.24999 6.48014 4.06999 6.72014 4.03999C6.83014 4.01999 6.93014 4 7.04014 3.98L7.23014 3.95C7.35014 3.93 7.42014 3.87 7.47014 3.75C7.56014 3.51 7.65014 3.29 7.75014 3.08C7.81014 2.95 7.80014 2.85 7.72014 2.75C7.67014 2.69 7.63014 2.62 7.58014 2.56C7.53014 2.49 7.48014 2.41 7.43014 2.34C7.32014 2.2 7.34014 2.04999 7.46014 1.92999C7.55014 1.83999 7.64014 1.74999 7.73014 1.65999C7.85014 1.52999 7.99014 1.51999 8.14014 1.62999C8.22014 1.68999 8.30014 1.73999 8.38014 1.79999C8.44014 1.83999 8.50014 1.88 8.55014 1.92C8.66014 2 8.76014 2.01 8.88014 1.95C9.07014 1.86 9.28014 1.77999 9.54014 1.67999C9.67014 1.62999 9.74014 1.54999 9.76014 1.40999C9.77014 1.31999 9.79014 1.23 9.81014 1.14C9.82014 1.06 9.84014 0.989988 9.85014 0.909988C9.87014 0.749988 9.98014 0.659988 10.1301 0.659988H10.1401C10.2701 0.659988 10.4101 0.669988 10.5401 0.659988C10.6401 0.659988 10.8101 0.679998 10.8501 0.919998C10.8701 1.01 10.8801 1.11 10.9001 1.2L10.9401 1.42999C10.9601 1.54999 11.0201 1.62 11.1401 1.67C11.4101 1.77 11.6201 1.86 11.8101 1.95C11.9401 2.01 12.0401 2 12.1501 1.92C12.2201 1.87 12.2801 1.83 12.3501 1.78C12.4301 1.73 12.5001 1.67999 12.5701 1.61999C12.7001 1.51999 12.8401 1.52999 12.9501 1.64999C13.0401 1.74999 13.1401 1.85 13.2401 1.94C13.3101 2 13.4001 2.13999 13.2701 2.31999C13.2201 2.37999 13.1801 2.44999 13.1401 2.50999C13.0901 2.58999 13.0401 2.66 12.9801 2.73C12.9001 2.85 12.8901 2.95 12.9501 3.09C13.0501 3.31 13.1401 3.52999 13.2201 3.73999C13.2701 3.86999 13.3501 3.93999 13.4801 3.95999C13.5701 3.96999 13.6701 3.98999 13.7601 4.00999C13.8301 4.01999 13.9101 4.03999 13.9801 4.04999C14.2201 4.08999 14.2501 4.26 14.2401 4.36C14.2301 4.48 14.2301 4.61 14.2401 4.73Z" stroke="black" stroke-width="0.2" mask="url(#path-2-outside-2_125_17)"/>
<path d="M8.12014 9.21981C8.1201 9.15116 8.10275 9.09094 8.06741 9.04024C8.03245 8.99007 7.98223 8.9526 7.92164 8.92493C7.81713 8.87326 7.68503 8.91448 7.60479 8.99472C7.56636 9.03314 7.54552 9.07991 7.53289 9.13044C7.52049 9.18 7.51526 9.23652 7.51031 9.29591L7.51014 9.2959V9.30006V9.33802C7.4313 10.2916 6.66279 11.0204 5.70963 11.0401H5.70961H5.70956H5.7095H5.70944H5.70938H5.70932H5.70926H5.7092H5.70915H5.70909H5.70903H5.70897H5.70891H5.70885H5.70879H5.70874H5.70868H5.70862H5.70856H5.7085H5.70844H5.70838H5.70832H5.70827H5.70821H5.70815H5.70809H5.70803H5.70797H5.70791H5.70786H5.7078H5.70774H5.70768H5.70762H5.70756H5.7075H5.70745H5.70739H5.70733H5.70727H5.70721H5.70715H5.70709H5.70704H5.70698H5.70692H5.70686H5.7068H5.70674H5.70668H5.70663H5.70657H5.70651H5.70645H5.70639H5.70633H5.70627H5.70622H5.70616H5.7061H5.70604H5.70598H5.70592H5.70586H5.70581H5.70575H5.70569H5.70563H5.70557H5.70551H5.70545H5.7054H5.70534H5.70528H5.70522H5.70516H5.7051H5.70504H5.70499H5.70493H5.70487H5.70481H5.70475H5.70469H5.70463H5.70458H5.70452H5.70446H5.7044H5.70434H5.70428H5.70422H5.70416H5.70411H5.70405H5.70399H5.70393H5.70387H5.70381H5.70375H5.7037H5.70364H5.70358H5.70352H5.70346H5.7034H5.70334H5.70329H5.70323H5.70317H5.70311H5.70305H5.70299H5.70293H5.70288H5.70282H5.70276H5.7027H5.70264H5.70258H5.70252H5.70247H5.70241H5.70235H5.70229H5.70223H5.70217H5.70211H5.70206H5.702H5.70194H5.70188H5.70182H5.70176H5.7017H5.70165H5.70159H5.70153H5.70147H5.70141H5.70135H5.70129H5.70124H5.70118H5.70112H5.70106H5.701H5.70094H5.70088H5.70082H5.70077H5.70071H5.70065H5.70059H5.70053H5.70047H5.70041H5.70036H5.7003H5.70024H5.70018H5.70012H5.70006H5.7H5.69995H5.69989H5.69983H5.69977H5.69971H5.69965H5.69959H5.69954H5.69948H5.69942H5.69936H5.6993H5.69924H5.69918H5.69913H5.69907H5.69901H5.69895H5.69889H5.69883H5.69877H5.69872H5.69866H5.6986H5.69854H5.69848H5.69842H5.69836H5.69831H5.69825H5.69819H5.69813H5.69807H5.69801H5.69795H5.6979H5.69784H5.69778H5.69772H5.69766H5.6976H5.69754H5.69748H5.69743H5.69737H5.69731H5.69725H5.69719H5.69713H5.69707H5.69702H5.69696H5.6969H5.69684H5.69678H5.69672H5.69666H5.69661H5.69655H5.69649H5.69643H5.69637H5.69631H5.69625H5.6962H5.69614H5.69608H5.69602H5.69596H5.6959H5.69584H5.69579H5.69573H5.69567H5.69561H5.69555H5.69549H5.69543H5.69538H5.69532H5.69526H5.6952H5.69514H5.69508H5.69502H5.69497H5.69491H5.69485H5.69479H5.69473H5.69467H5.69461H5.69456H5.6945H5.69444H5.69438H5.69432H5.69426H5.6942H5.69414H5.69409H5.69403H5.69397H5.69391H5.69385H5.69379H5.69373H5.69368H5.69362H5.69356H5.6935H5.69344H5.69338H5.69332H5.69327H5.69321H5.69315H5.69309H5.69303H5.69297H5.69291H5.69286H5.6928H5.69274H5.69268H5.69262H5.69256H5.6925H5.69245H5.69239H5.69233H5.69227H5.69221H5.69215H5.69209H5.69204H5.69198H5.69192H5.69186H5.6918H5.69174H5.69168H5.69163H5.69157H5.69151H5.69145H5.69139H5.69133H5.69127H5.69122H5.69116H5.6911H5.69104H5.69098H5.69092H5.69086H5.6908H5.69075H5.69069H5.69063H5.69057H5.69051H5.69045H5.69039H5.69034H5.69028H5.69022H5.69016H5.6901H5.69004H5.68998H5.68993H5.68987H5.68981H5.68975H5.68969H5.68963H5.68957H5.68952H5.68946H5.6894H5.68934H5.68928H5.68922H5.68916H5.68911H5.68905H5.68899H5.68893H5.68887H5.68881H5.68875H5.6887H5.68864H5.68858H5.68852H5.68846H5.6884H5.68834H5.68829H5.68823H5.68817H5.68811H5.68805H5.68799H5.68793H5.68788H5.68782H5.68776H5.6877H5.68764H5.68758H5.68752H5.68746H5.68741H5.68735H5.68729H5.68723H5.68717H5.68711H5.68705H5.687H5.68694H5.68688H5.68682H5.68676H5.6867H5.68664H5.68659H5.68653H5.68647H5.68641H5.68635H5.68629H5.68623H5.68618H5.68612H5.68606H5.686H5.68594H5.68588H5.68582H5.68577H5.68571H5.68565H5.68559H5.68553H5.68547H5.68541H5.68536H5.6853H5.68524H5.68518H5.68512H5.68506H5.685H5.68495H5.68489H5.68483H5.68477H5.68471H5.68465H5.68459H5.68454H5.68448H5.68442H5.68436H5.6843H5.68424H5.68418H5.68413H5.68407H5.68401H5.68395H5.68389H5.68383H5.68377H5.68371H5.68366H5.6836H5.68354H5.68348H5.68342H5.68336H5.6833H5.68325H5.68319H5.68313H5.68307H5.68301H5.68295H5.68289H5.68284H5.68278H5.68272H5.68266H5.6826H5.68254H5.68248H5.68243H5.68237H5.68231H5.68225H5.68219H5.68213H5.68207H5.68202H5.68196H5.6819H5.68184H5.68178H5.68172H5.68166H5.68161H5.68155H5.68149H5.68143H5.68137H5.68131H5.68125H5.6812H5.68114H5.68108H5.68102H5.68096H5.6809H5.68084H5.68079H5.68073H5.68067H5.68061H5.68055H5.68049H5.68043H5.68038H5.68032H5.68026H5.6802H5.68014C4.92027 11.0401 4.22939 10.5723 3.96696 9.87252L3.96686 9.87225C3.6843 9.13175 3.8889 8.32421 4.48258 7.81813L4.48258 7.81813L4.48315 7.81763C4.80292 7.53662 5.20119 7.38974 5.69172 7.36007C5.77385 7.35963 5.85853 7.32463 5.90918 7.26131C5.95639 7.2023 5.98014 7.13124 5.98014 7.06007H5.98027L5.98001 7.05651C5.96794 6.88743 5.82334 6.77007 5.66014 6.77007L5.65973 6.77007C4.42409 6.78028 3.37294 7.74981 3.25039 8.96506L3.25039 8.96506L3.25034 8.96568C3.18917 9.65893 3.40332 10.3227 3.86281 10.8333C4.32245 11.3541 4.9659 11.6399 5.65941 11.6501L5.65939 11.6512L5.66995 11.6491C5.7143 11.6402 5.75936 11.6401 5.81014 11.6401V11.6403L5.81467 11.6399C5.92483 11.6299 6.02673 11.6197 6.13909 11.5993L6.1391 11.5993L6.14138 11.5988C6.27265 11.5685 6.42494 11.5279 6.5877 11.4669L6.58787 11.4668C7.47744 11.1294 8.13024 10.1706 8.12014 9.21981ZM8.12014 9.21981C8.12014 9.2199 8.12014 9.21999 8.12014 9.22008H8.07014L8.12014 9.21954C8.12014 9.21963 8.12014 9.21972 8.12014 9.21981Z" fill="black" stroke="black" stroke-width="0.1"/>
<path d="M8.63017 4.55011L8.63018 4.55065C8.64047 5.49774 9.40246 6.26011 10.3502 6.26011C11.2978 6.26011 12.0702 5.48773 12.0702 4.54012C12.0702 3.5925 11.2978 2.82012 10.3502 2.82012C9.88746 2.82012 9.4544 2.99503 9.13454 3.32505C8.80516 3.65458 8.63018 4.08725 8.63017 4.55011ZM11.124 3.76468L11.124 3.76469L11.1248 3.76547C11.3353 3.97594 11.4502 4.26315 11.4502 4.55011L11.4502 4.55089C11.4597 5.16252 10.9627 5.66011 10.3502 5.66011C9.73807 5.66011 9.23996 5.16269 9.23018 4.54972C9.23028 4.25268 9.34531 3.9657 9.55553 3.75548C9.76633 3.54468 10.0437 3.43011 10.3302 3.43011C10.6272 3.43011 10.914 3.54504 11.124 3.76468Z" fill="black" stroke="black" stroke-width="0.1"/>
</svg>
