<svg width="12" height="13" viewBox="0 0 12 13" fill="none" xmlns="http://www.w3.org/2000/svg">
<path d="M11.915 5.35678C11.4156 2.92365 9.97061 1.34052 7.5906 0.607394C7.22935 0.501144 6.83623 0.469282 6.46435 0.405532C6.43248 0.405532 6.4006 0.394902 6.37935 0.384277C6.12435 0.384277 5.87997 0.384277 5.62497 0.384277C5.40185 0.416152 5.17872 0.437399 4.9556 0.479899C2.60746 0.8624 0.620583 2.76428 0.142457 5.09116C-0.240044 6.97179 0.142458 8.68243 1.35371 10.1806C2.28871 11.3387 3.51059 12.0612 4.97685 12.3056C6.98498 12.6349 8.73811 12.0824 10.2044 10.6799C11.1712 9.75556 11.745 8.60806 11.9362 7.27993C11.9575 7.10993 11.9787 6.93992 12 6.76992C12 6.51491 12 6.27055 12 6.01555C11.9681 5.79242 11.9575 5.56928 11.915 5.35678ZM5.98622 11.5512C3.13872 11.5406 0.833085 9.23492 0.82246 6.38741C0.82246 3.5399 3.13872 1.22365 5.98622 1.22365C8.84436 1.22365 11.15 3.5399 11.15 6.38741C11.1606 9.24555 8.84436 11.5618 5.98622 11.5512Z" fill="black"/>
<path d="M6.6768 5.99431C6.9743 5.74993 7.1868 5.51618 7.3143 5.26118C7.47367 4.96368 7.51617 4.64494 7.42055 4.35806C7.32492 4.07119 7.11242 3.83743 6.8043 3.68868C6.53867 3.56118 6.2518 3.50806 5.85867 3.50806C5.72055 3.50806 5.44429 3.5293 5.17867 3.64617C4.82804 3.79492 4.61554 4.00742 4.53054 4.2943C4.47742 4.48555 4.53054 4.6343 4.68992 4.70867C4.83867 4.78305 4.93429 4.77242 5.08304 4.55992C5.28492 4.27305 5.59304 4.12431 5.92242 4.12431C6.09242 4.12431 6.26242 4.16681 6.4218 4.25181C6.69805 4.40056 6.82555 4.68742 6.72992 4.9743C6.68742 5.11243 6.60242 5.26119 6.47492 5.39931C6.3793 5.51619 6.26242 5.60118 6.1243 5.69681C5.66742 6.01556 5.47617 6.46181 5.52929 7.05681C5.53992 7.23744 5.59304 7.27994 5.75242 7.29056C5.8268 7.29056 5.91179 7.29057 5.98617 7.27995C6.11367 7.2587 6.14555 7.20557 6.15617 7.07807V7.02494C6.15617 6.97181 6.15617 6.91868 6.15617 6.86555C6.1668 6.5893 6.27305 6.35556 6.47492 6.17493C6.52805 6.11118 6.60242 6.04743 6.6768 5.99431Z" fill="black"/>
<path d="M5.82684 8.05566C5.53997 8.05566 5.29559 8.2894 5.29559 8.57628C5.29559 8.87378 5.52934 9.11817 5.81622 9.11817C6.1031 9.11817 6.34747 8.87379 6.34747 8.58692C6.34747 8.30004 6.11372 8.06629 5.82684 8.05566Z" fill="black"/>
</svg>
