<svg width="10" height="11" viewBox="0 0 10 11" fill="none" xmlns="http://www.w3.org/2000/svg">
<path d="M8.78982 5.23025C8.75982 3.97025 8.32982 2.97025 7.44982 2.19025C7.27982 2.04025 7.18982 1.87025 7.24982 1.64025C7.33982 1.29025 7.74982 1.17025 8.03982 1.40025C8.47982 1.77025 8.82982 2.20025 9.11982 2.69025C10.7198 5.50025 9.23982 9.05025 6.11982 9.89025C4.03982 10.4503 1.73982 9.51025 0.699816 7.62025C-0.330184 5.76025 -0.220185 3.93025 1.00982 2.19025C1.20982 1.91025 1.45982 1.68025 1.70982 1.44025C1.91982 1.24025 2.21982 1.26024 2.39982 1.46024C2.58982 1.66024 2.56982 1.97024 2.35982 2.16024C1.89982 2.57024 1.53982 3.05025 1.29982 3.62025C0.329816 5.96025 1.73982 8.58024 4.23982 9.02024C6.37982 9.39024 8.38982 7.95024 8.73982 5.82024C8.75982 5.59024 8.77982 5.37025 8.78982 5.23025Z" fill="black"/>
<path d="M5.36984 2.75016C5.36984 3.40016 5.36984 4.04016 5.36984 4.69016C5.36984 5.01016 5.13984 5.22016 4.83984 5.20016C4.61984 5.18016 4.41984 5.00015 4.39984 4.77015C4.39984 4.74015 4.39984 4.70016 4.39984 4.67016C4.39984 3.39016 4.39984 2.11016 4.39984 0.830161C4.39984 0.730161 4.41984 0.630147 4.45984 0.550147C4.55984 0.360147 4.77984 0.260157 4.98984 0.310157C5.20984 0.360157 5.35984 0.550158 5.35984 0.780158C5.36984 1.44016 5.36984 2.10016 5.36984 2.75016Z" fill="black"/>
</svg>
