<svg width="13" height="12" viewBox="0 0 13 12" fill="none" xmlns="http://www.w3.org/2000/svg">
<path d="M6.49158 11.9995C4.90631 11.9995 3.32103 12 1.73575 11.9995C0.685229 11.9995 0.00130416 11.3093 0.000852133 10.2503C0.000400101 9.56275 -0.00140803 8.87524 0.00220823 8.18773C0.00356433 7.89725 0.208335 7.6705 0.481362 7.63909C0.748061 7.60858 0.998487 7.78205 1.06494 8.05068C1.08257 8.1208 1.08302 8.19684 1.08302 8.27014C1.08437 8.94627 1.08302 9.6224 1.08392 10.2985C1.08437 10.691 1.30135 10.9086 1.69281 10.9086C4.89726 10.9091 8.10172 10.9091 11.3062 10.9086C11.6994 10.9086 11.9146 10.6933 11.9151 10.2985C11.9164 9.59417 11.9128 8.88936 11.9169 8.185C11.9187 7.89543 12.1253 7.66868 12.3987 7.63909C12.6654 7.60995 12.915 7.78479 12.981 8.05342C12.9968 8.11852 12.9977 8.18819 12.9981 8.25603C12.9995 8.93762 13.0004 9.61966 12.9986 10.3013C12.9959 11.2934 12.2984 11.9982 11.3148 11.9991C9.70734 12.0009 8.09946 11.9995 6.49158 11.9995Z" fill="#667AE9"/>
<path d="M5.95864 8.12626C5.95864 8.03247 5.95864 7.9669 5.95864 7.90134C5.95864 5.48732 5.95818 3.07375 5.95954 0.659725C5.95954 0.57003 5.9618 0.476238 5.98576 0.39064C6.05673 0.13567 6.29404 -0.0223206 6.55125 0.0022658C6.81026 0.0268522 7.02001 0.243122 7.03944 0.508109C7.04396 0.570486 7.04125 0.632862 7.04125 0.695694C7.04125 3.09834 7.04125 5.50052 7.04125 7.90316C7.04125 7.96873 7.04125 8.03383 7.04125 8.13582C7.31111 7.92001 7.55205 7.72787 7.79253 7.53482C8.1537 7.24434 8.51397 6.95249 8.87515 6.662C9.13868 6.45029 9.46053 6.47214 9.65942 6.71436C9.86103 6.95932 9.81944 7.29305 9.55139 7.50978C8.66314 8.22779 7.774 8.94444 6.88304 9.65927C6.61679 9.87281 6.38129 9.8719 6.11685 9.65927C5.24849 8.96174 4.38104 8.26331 3.5145 7.5635C3.25503 7.35406 3.21164 7.02397 3.40646 6.78038C3.60084 6.53679 3.9263 6.50765 4.18893 6.71664C4.7282 7.14645 5.26477 7.58035 5.80268 8.01198C5.84517 8.04522 5.88993 8.07572 5.95864 8.12626Z" fill="#667AE9"/>
</svg>
