<svg width="16" height="16" viewBox="0 0 16 16" fill="none" xmlns="http://www.w3.org/2000/svg">
<path d="M15.7059 3.82648C15.6915 4.42016 15.4787 4.92508 15.0574 5.34563C13.1241 7.27591 11.1928 9.20855 9.2609 11.1402C8.34537 12.0556 7.43152 12.9726 6.51128 13.8836C6.42151 13.9727 6.3008 14.046 6.18077 14.0867C4.51177 14.6494 2.84007 15.2055 1.16871 15.7608C1.07457 15.7921 0.974041 15.826 0.877209 15.8233C0.582679 15.8149 0.414568 15.5426 0.514089 15.2414C0.86645 14.1748 1.22184 13.1095 1.57621 12.0435C1.79241 11.393 2.00624 10.7415 2.22882 10.093C2.26345 9.99216 2.32431 9.8903 2.39929 9.81533C5.25179 6.95823 8.10632 4.10315 10.9629 1.24975C11.8232 0.390499 13.1076 0.38781 13.9727 1.23865C14.3496 1.60911 14.7235 1.9826 15.0954 2.3581C15.4978 2.76452 15.6898 3.2597 15.7059 3.82648ZM10.5554 2.8842C8.13187 5.30731 5.70401 7.73478 3.29229 10.1458C4.24716 11.0998 5.21346 12.0656 6.16094 13.0123C8.57467 10.5989 11.0019 8.17214 13.4216 5.75273C12.4718 4.80204 11.5085 3.83791 10.5554 2.8842ZM14.0601 5.14393C14.2121 4.99803 14.3745 4.85516 14.5218 4.69783C14.9736 4.21509 14.9935 3.48561 14.5443 3.00119C14.1462 2.57156 13.7293 2.15774 13.3009 1.75837C12.881 1.3664 12.2398 1.32673 11.7802 1.66088C11.5489 1.8293 11.3532 2.0468 11.1498 2.23405C12.1309 3.21465 13.0935 4.17744 14.0601 5.14393ZM1.5557 14.7479C2.84814 14.3173 4.10427 13.8991 5.33181 13.49C4.49227 12.6506 3.65507 11.8135 2.81755 10.9761C2.40635 12.2062 1.98809 13.456 1.5557 14.7479Z" fill="#93A5FF"/>
</svg>
