<svg width="17" height="17" viewBox="0 0 17 17" fill="none" xmlns="http://www.w3.org/2000/svg">
<path d="M17 3.60044C16.9839 4.26352 16.7461 4.82747 16.2756 5.29719C14.1163 7.45314 11.9593 9.61171 9.80149 11.7692C8.77892 12.7916 7.75823 13.8158 6.73041 14.8334C6.63014 14.9329 6.49533 15.0147 6.36126 15.0602C4.49714 15.6887 2.63001 16.3097 0.763253 16.93C0.658104 16.9649 0.545821 17.0028 0.437669 16.9998C0.108705 16.9904 -0.079059 16.6863 0.0320976 16.3499C0.425652 15.1585 0.822586 13.9687 1.21839 12.778C1.45986 12.0515 1.6987 11.3239 1.9473 10.5996C1.98597 10.4869 2.05395 10.3732 2.13769 10.2894C5.32368 7.09832 8.51192 3.90945 11.7024 0.722463C12.6634 -0.237238 14.0979 -0.240242 15.0641 0.710072C15.4851 1.12384 15.9027 1.54099 16.318 1.96039C16.7675 2.41433 16.982 2.9674 17 3.60044ZM11.2473 2.548C8.54046 5.25438 5.82876 7.96565 3.13509 10.6585C4.2016 11.7241 5.28087 12.8028 6.33911 13.8602C9.03503 11.1647 11.746 8.45414 14.4487 5.75188C13.3878 4.69005 12.3119 3.61321 11.2473 2.548ZM15.1618 5.07191C15.3315 4.90895 15.5129 4.74938 15.6774 4.57366C16.1821 4.03448 16.2043 3.21971 15.7025 2.67866C15.2579 2.19881 14.7923 1.73661 14.3138 1.29055C13.8448 0.852751 13.1287 0.808445 12.6153 1.18166C12.357 1.36977 12.1384 1.6127 11.9112 1.82184C13.007 2.91708 14.0821 3.99243 15.1618 5.07191ZM1.19549 15.7987C2.63902 15.3177 4.042 14.8506 5.41305 14.3937C4.47536 13.4561 3.54029 12.5212 2.60485 11.5859C2.14557 12.9598 1.67842 14.3558 1.19549 15.7987Z" fill="white"/>
</svg>
