<svg width="12" height="14" viewBox="0 0 12 14" fill="none" xmlns="http://www.w3.org/2000/svg">
<path d="M11.814 3.39535C10.7071 2.29434 9.62947 1.21704 8.61174 0.193058C8.48238 0.0630446 8.34184 0.00478525 8.1562 0.00478525C8.15521 0.00478525 8.15422 0.00478525 8.15356 0.00478525C7.83824 0.00577269 7.52324 0.00708929 7.20792 0.00840588C6.0108 0.0136723 4.77287 0.0192678 3.55601 0.000177165C3.15774 -0.00574751 2.79272 0.137103 2.52874 0.402068C2.26871 0.662754 2.12981 1.02515 2.13705 1.42309C2.15581 2.44542 2.15186 3.48553 2.14791 4.49141C2.14627 4.91239 2.14462 5.34753 2.14462 5.77575V5.90247C1.73318 5.90379 1.32142 5.90478 0.909984 5.90544C0.306654 5.90642 0.000545352 6.20957 0.000545352 6.80697C-0.000112946 8.09 -0.000112946 9.37302 0.000216203 10.656C0.000545352 11.2538 0.306654 11.5572 0.909984 11.5576C1.20523 11.5579 1.50048 11.5576 1.80527 11.5576H2.14429V11.6007C2.14429 11.681 2.14429 11.7541 2.14429 11.8272C2.14725 12.6632 2.68772 13.2037 3.52079 13.2037C4.68433 13.204 5.84755 13.204 7.01109 13.204C8.21116 13.204 9.41124 13.204 10.6113 13.2037C11.453 13.2037 11.997 12.6579 11.9974 11.814C11.9977 10.8743 11.9977 9.93422 11.9977 8.9945C11.9977 7.30399 11.9977 5.55621 12 3.83706C12.0007 3.65998 11.9431 3.52372 11.814 3.39535ZM7.9643 10.6771C7.9643 10.8749 7.93435 10.9049 7.73554 10.9049C6.89983 10.9055 6.06413 10.9052 5.22809 10.9052H4.30417H3.49545C2.63275 10.9052 1.77038 10.9052 0.90768 10.9052C0.673984 10.9052 0.652589 10.8838 0.65226 10.6511C0.651931 9.36841 0.651931 8.08572 0.65226 6.8027C0.65226 6.58052 0.6753 6.55748 0.898463 6.55748C3.1742 6.55715 5.45026 6.55715 7.726 6.55748C7.93698 6.55748 7.96364 6.58414 7.96397 6.79381C7.96529 8.08835 7.96529 9.38289 7.9643 10.6771ZM2.79699 11.5921V11.5579H4.1182C5.31169 11.5579 6.50551 11.5579 7.69901 11.5579C8.30826 11.5579 8.61733 11.2511 8.61733 10.6468C8.61766 9.3694 8.61766 8.09164 8.61733 6.81422C8.61733 6.21121 8.31353 5.90544 7.71448 5.90544C6.55719 5.90511 5.39957 5.90544 4.24229 5.90544H2.79732V4.5059C2.79732 3.47434 2.79732 2.44312 2.79765 1.41157C2.79765 0.899082 3.03596 0.66045 3.54745 0.66045C4.56814 0.66045 5.58851 0.66045 6.6092 0.66045H7.96529V0.774993C7.96529 0.970837 7.96529 1.16635 7.96496 1.36219C7.96463 1.79206 7.9643 2.23674 7.96562 2.67418C7.96825 3.50265 8.50575 4.03916 9.33521 4.04015C9.76738 4.04081 10.1999 4.04081 10.6324 4.04048H11.346V6.24676C11.346 8.08802 11.346 9.92928 11.346 11.7705C11.346 12.3182 11.1133 12.5523 10.5682 12.5523C8.22762 12.5523 5.88671 12.5523 3.54614 12.5523C3.03629 12.5523 2.79831 12.313 2.79732 11.7995C2.79699 11.733 2.79699 11.6672 2.79699 11.5921ZM10.5336 3.38547C10.0985 3.38811 9.64823 3.39074 9.20618 3.38284C8.91982 3.37757 8.65914 3.13762 8.6249 2.84731C8.61766 2.78511 8.61766 2.72158 8.61766 2.6541V2.63073C8.61733 2.21535 8.61733 1.79996 8.61733 1.37602V1.15944L10.8427 3.3835C10.7397 3.38416 10.6367 3.38481 10.5336 3.38547Z" fill="#25AA64"/>
<path d="M6.68351 8.55932C6.57588 8.52015 6.46462 8.49151 6.35732 8.46354C6.28721 8.44543 6.2148 8.42667 6.14568 8.40528C5.9969 8.35985 5.96761 8.33385 5.98078 8.25946C5.98802 8.21799 6.00513 8.1887 6.03245 8.16928C6.06734 8.14492 6.12066 8.13702 6.17892 8.14755C6.30861 8.17092 6.43862 8.21042 6.57654 8.25222C6.63973 8.27131 6.70457 8.29106 6.77238 8.31015L6.82768 8.32562L7.08573 7.97113L7.03372 7.92143C6.71642 7.61697 6.16773 7.51625 5.78395 7.69201C5.48738 7.82795 5.33466 8.11102 5.38502 8.43128C5.43274 8.7341 5.66809 8.84831 5.84089 8.90789C5.93239 8.93949 6.02587 8.96516 6.11671 8.99017C6.22303 9.01947 6.33329 9.04975 6.43599 9.08859C6.4643 9.09945 6.50741 9.16133 6.50774 9.18503C6.50741 9.20577 6.46825 9.26139 6.41492 9.29628C6.38234 9.31768 6.32046 9.32722 6.27997 9.31702C6.12494 9.27818 5.9686 9.23045 5.80337 9.17976C5.73688 9.15936 5.66841 9.13829 5.59699 9.11723L5.54564 9.10176L5.29549 9.39667V9.26403H4.30047V7.6512H3.72314V9.81041H5.29549V9.48752L5.31622 9.50398C5.61575 9.73965 5.91692 9.85682 6.22797 9.85682C6.37213 9.85682 6.51828 9.83181 6.66771 9.78145C6.95572 9.68468 7.12687 9.44177 7.12556 9.13171C7.12391 8.85424 6.97941 8.66662 6.68351 8.55932Z" fill="#25AA64"/>
<path d="M3.55372 7.64134C3.50764 7.64134 3.46683 7.64266 3.42963 7.64364C3.36183 7.64562 3.30818 7.64727 3.25913 7.64002C3.04058 7.60678 2.92933 7.73449 2.86481 7.83356C2.78944 7.94909 2.70616 8.05936 2.61795 8.17654C2.60116 8.19892 2.58405 8.2213 2.56693 8.24401C2.55113 8.22262 2.53534 8.20122 2.51987 8.17983C2.41454 8.03665 2.31546 7.90137 2.21178 7.76642C2.17228 7.71507 2.11007 7.65253 2.03733 7.64694C1.93365 7.63904 1.83326 7.64002 1.71674 7.64134C1.67132 7.642 1.62425 7.64233 1.57422 7.64233H1.41294L2.20586 8.73642L1.41162 9.82162H1.57389C1.61471 9.82162 1.65091 9.82063 1.68449 9.81965C1.74571 9.81767 1.79409 9.81636 1.83853 9.82261C1.86552 9.82656 1.89152 9.82853 1.91654 9.82853C2.06827 9.82853 2.18413 9.75711 2.2763 9.60768C2.34542 9.49609 2.42639 9.39143 2.51229 9.28083C2.52809 9.26042 2.54422 9.23969 2.56002 9.21895C2.57648 9.24166 2.59294 9.26404 2.60906 9.28643C2.71077 9.42697 2.80721 9.55929 2.90793 9.69095C2.93459 9.72584 3.00668 9.80813 3.09588 9.81636C3.19561 9.82557 3.29336 9.82426 3.40626 9.82261C3.45201 9.82195 3.50007 9.82129 3.55142 9.82129H3.7127L2.91945 8.72654L3.71632 7.64167H3.55372V7.64134Z" fill="#25AA64"/>
</svg>
