<svg width="20" height="21" viewBox="0 0 20 21" fill="none" xmlns="http://www.w3.org/2000/svg">
<path d="M19.0799 0.0300293C19.2399 0.120029 19.4299 0.190029 19.5599 0.320029C19.8199 0.570029 19.8499 0.960029 19.6799 1.28003C19.6299 1.37003 19.5799 1.45003 19.5199 1.53003C17.3899 4.53003 15.2699 7.52003 13.1399 10.51C12.8099 10.97 12.6599 11.45 12.6599 12.01C12.6699 13.94 12.6599 15.87 12.6599 17.8C12.6599 18.34 12.5099 18.56 12.0099 18.75C10.8399 19.2 9.65995 19.65 8.48995 20.1C8.12995 20.24 7.79995 20.23 7.49995 19.95C7.27995 19.75 7.23995 19.48 7.23995 19.2C7.23995 17.03 7.23995 14.86 7.23995 12.68C7.23995 12.45 7.22995 12.22 7.23995 11.99C7.26995 11.44 7.08995 10.97 6.77995 10.52C4.63995 7.51003 2.49995 4.50003 0.359948 1.49003C0.0599477 1.07003 0.0299468 0.66003 0.319947 0.34003C0.449947 0.20003 0.639948 0.130029 0.799948 0.0300293C6.89995 0.0300293 12.9899 0.0300293 19.0799 0.0300293ZM8.25995 19.08C8.34995 19.05 8.40995 19.04 8.46995 19.01C9.45995 18.63 10.4399 18.25 11.4299 17.89C11.5899 17.83 11.6499 17.76 11.6499 17.59C11.6399 15.72 11.6499 13.85 11.6399 11.98C11.6399 11.23 11.8499 10.57 12.2899 9.96003C14.3499 7.07003 16.4099 4.17003 18.4699 1.27003C18.5099 1.21003 18.5499 1.15003 18.5999 1.08003C12.8399 1.08003 7.09995 1.08003 1.32995 1.08003C1.38995 1.16003 1.42995 1.23003 1.46995 1.29003C3.51995 4.17003 5.55995 7.06003 7.60995 9.93003C8.05995 10.56 8.27995 11.23 8.26995 12C8.25995 14.28 8.26995 16.55 8.26995 18.83C8.25995 18.9 8.25995 18.98 8.25995 19.08Z" fill="black"/>
</svg>
