<svg width="13" height="13" viewBox="0 0 13 13" fill="none" xmlns="http://www.w3.org/2000/svg">
<path d="M11.7854 9.85639C11.784 10.2147 11.6621 10.5131 11.4221 10.76C11.2023 10.9862 10.9808 11.2114 10.7519 11.429C10.2419 11.9136 9.49506 11.9143 8.98248 11.4311C8.83499 11.2922 8.67775 11.2175 8.48182 11.3027C8.28807 11.3871 8.23095 11.5506 8.22698 11.7537C8.21324 12.4339 7.6703 12.9821 6.99252 12.9925C6.60103 12.9987 6.20448 13.0156 5.81842 12.9658C5.20715 12.8868 4.7759 12.3607 4.76759 11.7433C4.7647 11.5394 4.70361 11.3792 4.50696 11.2976C4.31538 11.2182 4.16283 11.2875 4.01824 11.4232C3.48794 11.9219 2.74112 11.9129 2.21878 11.4052C2.0055 11.1977 1.79476 10.9873 1.58763 10.7737C1.08228 10.2522 1.07649 9.49879 1.57534 8.97447C1.71162 8.83121 1.78138 8.67677 1.6986 8.48552C1.61727 8.29716 1.46256 8.23365 1.26302 8.23004C0.555596 8.21849 0.0101193 7.66639 0.00614304 6.95732C0.00397415 6.58348 -0.0162689 6.2053 0.0310853 5.83688C0.111696 5.21152 0.634761 4.77922 1.26844 4.7702C1.46256 4.76732 1.61329 4.70453 1.69499 4.5223C1.77958 4.33321 1.72029 4.17624 1.58329 4.03082C1.20735 3.63208 1.10975 3.16803 1.30676 2.65814C1.36496 2.50695 1.46726 2.36477 1.57715 2.24317C1.78572 2.01294 2.01056 1.79643 2.23541 1.58173C2.761 1.07978 3.50927 1.08231 4.0345 1.58642C4.17476 1.72101 4.33164 1.77695 4.51419 1.69756C4.68915 1.62178 4.76361 1.47708 4.76759 1.28727C4.78386 0.541394 5.32717 0.00625223 6.0711 0.00553053C6.43149 0.00516968 6.79587 -0.0172031 7.15121 0.028625C7.78597 0.110538 8.21758 0.629441 8.22842 1.27139C8.23168 1.45326 8.28843 1.59796 8.45291 1.68673C8.62642 1.78055 8.79414 1.74519 8.96766 1.58425C9.36456 1.2151 9.82292 1.11082 10.3283 1.30495C10.4953 1.36918 10.6489 1.48718 10.7852 1.60735C10.9977 1.79499 11.1911 2.00428 11.391 2.20672C11.9177 2.74042 11.9278 3.49279 11.4127 4.03587C11.279 4.1766 11.219 4.32996 11.2989 4.51472C11.3777 4.69659 11.5259 4.76623 11.7211 4.76948C12.4469 4.78139 12.9877 5.32916 12.992 6.05627C12.9942 6.41243 13.0181 6.77256 12.9751 7.12367C12.8941 7.788 12.3793 8.21777 11.7019 8.23112C11.5233 8.23473 11.3881 8.30221 11.309 8.46603C11.224 8.64177 11.2529 8.79946 11.4062 8.95787C11.652 9.21263 11.784 9.51322 11.7854 9.85639ZM8.69474 10.4006C8.99947 10.4103 9.30275 10.5352 9.55723 10.7834C9.75424 10.9758 9.98125 10.9725 10.1783 10.7791C10.3778 10.5831 10.5755 10.3858 10.7718 10.1866C10.9717 9.98377 10.9717 9.76257 10.7776 9.554C10.3977 9.14552 10.2853 8.67461 10.5011 8.15715C10.719 7.63536 11.1351 7.38023 11.6987 7.3658C11.9557 7.35894 12.123 7.1962 12.1256 6.94216C12.1285 6.64915 12.1281 6.35578 12.1256 6.06277C12.1234 5.80548 11.9593 5.63985 11.7044 5.63372C11.1409 5.62037 10.723 5.36813 10.5032 4.84742C10.2831 4.32599 10.3966 3.85112 10.7827 3.43975C10.9706 3.23983 10.9695 3.0143 10.7762 2.81728C10.5802 2.61773 10.3821 2.42034 10.1833 2.22404C9.98053 2.02413 9.76147 2.02485 9.55181 2.21935C9.14334 2.59896 8.67196 2.71119 8.15504 2.49504C7.63379 2.27709 7.37858 1.86066 7.36412 1.29701C7.35761 1.03937 7.19458 0.873015 6.9401 0.87085C6.64694 0.868324 6.35414 0.868685 6.06097 0.87085C5.80432 0.872655 5.63876 1.03756 5.63262 1.29268C5.61888 1.85633 5.36621 2.27456 4.84531 2.49323C4.32369 2.71227 3.84906 2.59932 3.43806 2.21285C3.23816 2.02449 3.01368 2.02702 2.81667 2.22151C2.63376 2.40194 2.45302 2.58489 2.27155 2.76676C2.00912 3.02946 2.00876 3.20916 2.25709 3.48702C2.56074 3.82658 2.66774 4.22243 2.55676 4.66664C2.41362 5.23967 1.91911 5.62289 1.32266 5.63408C1.053 5.63913 0.876954 5.78997 0.872255 6.03318C0.866471 6.34423 0.867194 6.65565 0.872255 6.9667C0.87587 7.19043 1.04432 7.35461 1.26808 7.36616C1.34435 7.37013 1.42207 7.36724 1.4969 7.38023C2.00695 7.46756 2.36373 7.75047 2.52929 8.24231C2.69485 8.73523 2.57556 9.17438 2.22275 9.55219C2.02285 9.76618 2.0243 9.98449 2.23143 10.1938C2.42518 10.389 2.61894 10.5842 2.81486 10.7769C3.01657 10.9754 3.23816 10.9747 3.44673 10.7791C3.85449 10.3973 4.3255 10.2865 4.84242 10.5016C5.36476 10.7192 5.61816 11.1363 5.63226 11.7C5.63876 11.9638 5.80252 12.1276 6.06712 12.1294C6.33317 12.1312 6.59922 12.1298 6.86491 12.1298C7.2141 12.1298 7.35508 11.9923 7.36448 11.6422C7.38328 10.9548 7.95876 10.3973 8.69474 10.4006Z" fill="#949711"/>
<path d="M3.46778 6.50435C3.46525 4.83433 4.82551 3.46815 6.49014 3.46887C8.17031 3.46959 9.52551 4.82278 9.52876 6.50255C9.53201 8.15596 8.16958 9.52972 6.52628 9.53009C4.82768 9.53081 3.47031 8.18772 3.46778 6.50435ZM8.66265 6.49894C8.65867 5.30488 7.68954 4.33347 6.50423 4.33528C5.29688 4.33744 4.33208 5.30596 4.33389 6.51409C4.3357 7.70382 5.31821 8.67054 6.51905 8.66476C7.69677 8.65899 8.66626 7.67928 8.66265 6.49894Z" fill="#949711"/>
</svg>
