<svg width="25" height="23" viewBox="0 0 25 23" fill="none" xmlns="http://www.w3.org/2000/svg">
<path d="M24.4387 10.3209L13.1593 0.230342C13.1409 0.211911 13.1225 0.193481 13.0948 0.184266C12.846 -0.0553283 12.459 -0.0553283 12.1918 0.165835L0.921614 10.2564C0.645159 10.5052 0.626729 10.9199 0.866323 11.1964C1.11513 11.4728 1.52981 11.4913 1.80627 11.2517L3.8336 9.43628V21.1948C3.8336 22.1163 4.58003 22.872 5.51076 22.872H9.06781C9.93404 22.872 10.6436 22.1716 10.6436 21.2962V15.3156C10.6436 15.1773 10.7542 15.076 10.8832 15.076H14.4771C14.6153 15.076 14.7167 15.1865 14.7167 15.3156V21.2962C14.7167 22.1624 15.4171 22.872 16.2925 22.872H19.8495C20.8909 22.7522 21.6373 21.8122 21.5267 20.7709V9.49158L23.554 11.307C23.8305 11.5466 24.2452 11.5281 24.494 11.2517C24.7428 10.9752 24.7152 10.5605 24.4387 10.3209ZM20.1905 13.6108V20.7617C20.1905 21.2409 19.9509 21.5266 19.8495 21.5266H16.2925C16.1543 21.5266 16.0529 21.416 16.0529 21.287V15.3156C16.0529 14.4493 15.3526 13.7398 14.4771 13.7398H10.8832C10.017 13.7398 9.30741 14.4401 9.30741 15.3156V21.2962C9.30741 21.4344 9.19683 21.5358 9.06781 21.5358H5.51076C5.31724 21.5358 5.1698 21.3791 5.1698 21.1948V8.23831L12.6525 1.55732L20.1997 8.30282L20.1905 13.6108Z" fill="black"/>
</svg>
