<svg width="16" height="14" viewBox="0 0 16 14" fill="none" xmlns="http://www.w3.org/2000/svg">
<path d="M1.6242 6.58548H11.1739C10.4417 5.8537 9.70997 5.12151 8.98612 4.39766C8.74512 4.15666 8.74512 3.76596 8.9857 3.52496L8.99446 3.5162C9.23588 3.27436 9.627 3.27436 9.868 3.51537C10.9746 4.62199 12.0933 5.74112 13.2087 6.8565C13.4097 7.05748 13.4097 7.38313 13.2087 7.58411C12.0971 8.69448 10.9746 9.8157 9.85758 10.9319C9.62408 11.1654 9.24589 11.165 9.01239 10.9319L9.00363 10.9232C8.77013 10.6897 8.77013 10.3111 9.00363 10.0776C9.73207 9.34912 10.4697 8.61151 11.2073 7.87431C11.1994 7.85472 11.1985 7.85346 11.1906 7.83428H1.6242C1.27937 7.83428 1 7.55492 1 7.21009C1 6.86484 1.27937 6.58548 1.6242 6.58548Z" fill="#3895EB" stroke="#B7DCFF" stroke-width="0.2"/>
<path d="M13.7284 14H4.27162C3.01906 14 2 12.9809 2 11.7284V10.0172C2 9.74071 2.22391 9.5168 2.50036 9.5168C2.7768 9.5168 3.00071 9.74071 3.00071 10.0172V11.7284C3.00071 12.4293 3.57071 12.9993 4.27162 12.9993H13.7284C14.4293 12.9993 14.9993 12.4293 14.9993 11.7284V2.27162C14.9993 1.57071 14.4293 1.00071 13.7284 1.00071H4.27162C3.57071 1.00071 3.00071 1.57071 3.00071 2.27162V3.95282C3.00071 4.22927 2.7768 4.45318 2.50036 4.45318C2.22391 4.45318 2 4.22927 2 3.95282V2.27162C2 1.01906 3.01906 0 4.27162 0H13.7284C14.9809 0 16 1.01906 16 2.27162V11.7284C16 12.9809 14.9809 14 13.7284 14Z" fill="#3895EB"/>
</svg>
