<svg width="17" height="18" viewBox="0 0 17 18" fill="none" xmlns="http://www.w3.org/2000/svg">
<path d="M6.09215 7.77619L6.09243 7.77596C6.62661 7.32212 7.24497 7.15511 7.93437 7.26523L6.09215 7.77619ZM6.09215 7.77619C6.04402 7.81739 5.99721 7.86073 5.95257 7.90537M6.09215 7.77619L5.95257 7.90537M10.0369 6.94316L9.97158 7.01892C9.68886 6.77528 9.39833 6.53848 9.07947 6.38125C7.69852 5.70048 6.17918 5.96626 5.0729 7.06526C4.19895 7.93366 3.32844 8.80528 2.45777 9.67705C2.02238 10.113 1.58695 10.549 1.15103 10.9846C1.15103 10.9846 1.15102 10.9846 1.15101 10.9846M10.0369 6.94316L1.08032 10.9139L1.15101 10.9846M10.0369 6.94316L9.97158 7.01892C10.2245 7.23683 10.2279 7.60804 10.0007 7.85811M10.0369 6.94316L10.0007 7.85811M1.15101 10.9846C0.731078 11.4046 0.420371 11.8881 0.254861 12.4555M1.15101 10.9846L0.254861 12.4555M0.254861 12.4555C0.211029 12.6064 0.179112 12.758 0.146293 12.914C0.131442 12.9845 0.116407 13.0559 0.1 13.1286C0.1 13.3426 0.100014 13.5561 0.100788 13.7699C0.122141 13.8595 0.141145 13.9521 0.159765 14.0428C0.171042 14.0977 0.182178 14.1519 0.19361 14.2044C0.225425 14.3505 0.26094 14.4905 0.312017 14.6229L0.312031 14.6229C0.803511 15.8976 1.72872 16.6422 3.07872 16.8689L3.07897 16.869C3.11682 16.8754 3.15769 16.8851 3.19427 16.8938C3.20785 16.8971 3.22083 16.9002 3.23286 16.9029H3.23351H3.2348H3.2361H3.2374H3.23869H3.23999H3.24129H3.24258H3.24388H3.24517H3.24647H3.24777H3.24906H3.25036H3.25166H3.25295H3.25425H3.25555H3.25684H3.25814H3.25944H3.26073H3.26203H3.26332H3.26462H3.26592H3.26721H3.26851H3.26981H3.2711H3.2724H3.2737H3.27499H3.27629H3.27759H3.27888H3.28018H3.28148H3.28277H3.28407H3.28537H3.28666H3.28796H3.28926H3.29055H3.29185H3.29315H3.29444H3.29574H3.29704H3.29833H3.29963H3.30093H3.30222H3.30352H3.30482H3.30611H3.30741H3.30871H3.31H3.3113H3.3126H3.31389H3.31519H3.31649H3.31778H3.31908H3.32038H3.32168H3.32297H3.32427H3.32557H3.32686H3.32816H3.32946H3.33075H3.33205H3.33335H3.33464H3.33594H3.33724H3.33853H3.33983H3.34113H3.34243H3.34372H3.34502H3.34632H3.34761H3.34891H3.35021H3.3515H3.3528H3.3541H3.3554H3.35669H3.35799H3.35929H3.36058H3.36188H3.36318H3.36447H3.36577H3.36707H3.36837H3.36966H3.37096H3.37226H3.37355H3.37485H3.37615H3.37744H3.37874H3.38004H3.38134H3.38263H3.38393H3.38523H3.38652H3.38782H3.38912H3.39042H3.39171H3.39301H3.39431H3.3956H3.3969H3.3982H3.3995H3.40079H3.40209H3.40339H3.40469H3.40598H3.40728H3.40858H3.40987H3.41117H3.41247H3.41377H3.41506H3.41636H3.41766H3.41895H3.42025H3.42155H3.42285H3.42414H3.42544H3.42674H3.42804H3.42933H3.43063H3.43193H3.43322H3.43452H3.43582H3.43712H3.43841H3.43971H3.44101H3.44231H3.4436H3.4449H3.4462H3.44749H3.44879H3.45009H3.45139H3.45268H3.45398H3.45528H3.45658H3.45787H3.45917H3.46047H3.46176H3.46306H3.46436H3.46566H3.46695H3.46825H3.46955H3.47085H3.47214H3.47344H3.47474H3.47604H3.47733H3.47863H3.47993H3.48123H3.48252H3.48382H3.48512H3.48641H3.48771H3.48901H3.49031H3.4916H3.4929H3.4942H3.4955H3.49679H3.49809H3.49939H3.50069H3.50198H3.50328H3.50458H3.50588H3.50717H3.50847H3.50977H3.51107H3.51236H3.51366H3.51496H3.51626H3.51755H3.51885H3.52015H3.52144H3.52274H3.52404H3.52534H3.52663H3.52793H3.52923H3.53053H3.53182H3.53312H3.53442H3.53572H3.53701H3.53831H3.53961H3.54091H3.5422H3.5435H3.5448H3.5461H3.54739H3.54869H3.54999H3.55129H3.55258H3.55388H3.55518H3.55648H3.55777H3.55907H3.56037H3.56167H3.56296H3.56426H3.56556H3.56685H3.56815H3.56945H3.57075H3.57204H3.57334H3.57464H3.57594H3.57723H3.57853H3.57983H3.58113H3.58242H3.58372H3.58502H3.58632H3.58761H3.58891H3.59021H3.59151H3.5928H3.5941H3.5954H3.5967H3.59799H3.59929H3.60059H3.60189H3.60318H3.60448H3.60578H3.60707H3.60837H3.60967H3.61097H3.61226H3.61356H3.61486H3.61616H3.61745H3.61875H3.62005H3.62135H3.62264H3.62394H3.62524H3.62654H3.62783H3.62913H3.63043H3.63173H3.63302H3.63432H3.63562H3.63691H3.63821H3.63951H3.64081H3.6421H3.6434H3.6447H3.646H3.64729H3.64859H3.64989H3.65119H3.65248H3.65378H3.65508H3.65637H3.65767H3.65897H3.66027H3.66156H3.66286H3.66416H3.66546H3.66675H3.66805H3.66935H3.67064H3.67194H3.67324H3.67454H3.67583H3.67713H3.67843H3.67973H3.68102H3.68232H3.68362H3.68491H3.68621H3.68751H3.68881H3.6901H3.6914H3.6927H3.694H3.69529H3.69659H3.69789H3.69918H3.70048H3.70178H3.70308H3.70437H3.70567H3.70697H3.70826H3.70956H3.71086H3.71216H3.71345H3.71475H3.71605H3.71734H3.71864H3.71994H3.72124H3.72253H3.72383H3.72513H3.72642H3.72772H3.72902H3.73032H3.73161H3.73291H3.73421H3.7355H3.7368H3.7381H3.7394H3.74069H3.74199H3.74329H3.74458H3.74588H3.74718H3.74847H3.74977H3.75107H3.75237H3.75366H3.75496H3.75626H3.75755H3.75885H3.76015H3.76144H3.76274H3.76404H3.76534H3.76663H3.76793H3.76923H3.77052H3.77182H3.77312H3.77441H3.77571H3.77701H3.7783H3.7796H3.7809H3.7822H3.78349H3.78479H3.78609H3.78738H3.78868H3.78998H3.79127H3.79257H3.79387H3.79516H3.79646H3.79776H3.79905H3.80035H3.80165H3.80294H3.80424H3.80554H3.80683H3.80813H3.80943H3.81072H3.81202H3.81332H3.81461H3.81591H3.81721H3.8185H3.8198H3.8211H3.82239H3.82369H3.82499H3.82628H3.82758H3.82888H3.83017H3.83147H3.83277H3.83406H3.83536H3.83666H3.83795H3.83925H3.84055H3.84184H3.84314H3.84444H3.84573H3.84703H3.84833H3.84962H3.85092H3.85221H3.85351H3.85481H3.8561H3.8574H3.8587H3.85999H3.86129H3.86259H3.86388H3.86427C3.86817 16.901 3.87333 16.8985 3.88139 16.8948C3.89626 16.888 3.9203 16.8778 3.9492 16.8745M0.254861 12.4555L3.96077 16.9738M3.9492 16.8745C3.94931 16.8744 3.94943 16.8744 3.94955 16.8744L3.96077 16.9738M3.9492 16.8745C3.94908 16.8745 3.94897 16.8745 3.94885 16.8745L3.96077 16.9738M3.9492 16.8745C4.72412 16.7814 5.39167 16.4634 5.94655 15.9186M3.96077 16.9738C4.7575 16.8781 5.44569 16.5505 6.01663 15.9899M5.94655 15.9186L6.01663 15.9899M5.94655 15.9186C6.42549 15.4482 6.89925 14.973 7.37345 14.4973C7.57118 14.299 7.76898 14.1006 7.96726 13.9025M5.94655 15.9186C5.94656 15.9186 5.94656 15.9186 5.94657 15.9186L6.01663 15.9899M6.01663 15.9899L7.96726 13.9025M7.96726 13.9025L8.03797 13.9732L7.96728 13.9024C7.96727 13.9024 7.96727 13.9024 7.96726 13.9025ZM10.0007 7.85811C9.77879 8.10216 9.41156 8.12964 9.15755 7.90241C8.8084 7.58984 8.41956 7.34259 7.9344 7.26524L10.0007 7.85811ZM5.95257 7.90537C5.60719 8.25054 5.26161 8.59558 4.916 8.94066M5.95257 7.90537L4.916 8.94066M4.916 8.94066C3.94192 9.91324 2.96764 10.886 1.99703 11.8622L4.916 8.94066ZM7.72365 12.8815L7.75188 12.7856L7.72355 12.8815C7.72358 12.8815 7.72362 12.8815 7.72365 12.8815ZM1.99701 11.8622C1.18409 12.6786 1.0913 13.8861 1.76178 14.7908C2.53276 15.8311 4.0651 16.0027 5.01696 15.1154C5.51549 14.6507 5.99549 14.1647 6.47382 13.6803C6.67253 13.4791 6.87094 13.2782 7.07029 13.0792L1.99701 11.8622Z" fill="white" stroke="#82A3E4" stroke-width="0.2"/>
<path d="M10.5179 9.61909C10.6841 9.47028 10.842 9.31052 10.9973 9.15344C11.0485 9.10168 11.0993 9.05022 11.1501 8.99953L11.1502 8.99949C11.3764 8.7735 11.6026 8.54753 11.8288 8.32156C12.883 7.26862 13.9371 6.21572 14.9892 5.16085L14.9892 5.16084C15.7476 4.40026 15.903 3.31459 15.3806 2.42287L15.3806 2.42286C14.6695 1.20946 13.0165 0.935537 11.9801 1.89393L11.98 1.89394C11.5225 2.31705 11.0836 2.76223 10.6467 3.20543C10.4537 3.40115 10.2611 3.59649 10.0675 3.78936C10.0001 3.85639 9.93359 3.92334 9.86726 3.99008C9.7506 4.10745 9.6346 4.22417 9.51608 4.33952L9.51606 4.33954C9.2336 4.61458 8.86282 4.61552 8.62048 4.36895C8.37989 4.1241 8.38162 3.75814 8.65333 3.48496L8.65336 3.48493C8.8175 3.31975 8.98133 3.15442 9.14509 2.98914C9.76819 2.36031 10.3904 1.73236 11.0255 1.1173L10.956 1.04546L11.0255 1.1173C12.2179 -0.0374436 13.8736 -0.220292 15.2836 0.625976L15.3351 0.540233L15.2836 0.625977C16.942 1.62126 17.417 3.96301 16.2729 5.51786C16.1383 5.7006 15.9901 5.876 15.831 6.03599C14.4056 7.46715 12.9769 8.89459 11.5473 10.3217L11.5473 10.3217C10.8369 11.0313 9.99104 11.3917 8.93726 11.3911C8.11753 11.3751 7.31104 11.0519 6.63777 10.3989C6.38508 10.1537 6.37711 9.78868 6.60745 9.53973C6.82978 9.29955 7.19924 9.27445 7.45106 9.50594L7.45108 9.50596C7.9378 9.95312 8.49958 10.2038 9.17782 10.1676L9.17785 10.1676C9.68758 10.1402 10.1386 9.95914 10.5179 9.61909ZM10.5179 9.61909L10.4512 9.54459M10.5179 9.61909C10.5179 9.61908 10.5179 9.61906 10.5179 9.61905L10.4512 9.54459M10.4512 9.54459C10.0894 9.86894 9.66025 10.0415 9.17249 10.0677L9.58582 4.41118C9.70484 4.29535 9.822 4.17748 9.93913 4.05963C10.0053 3.99303 10.0715 3.92643 10.138 3.86021C10.3331 3.66594 10.5264 3.46983 10.7198 3.27371C11.1559 2.83131 11.5922 2.38886 12.0479 1.96736C13.036 1.05378 14.6144 1.31326 15.2943 2.47342C15.7925 3.32379 15.6465 4.36004 14.9184 5.09023C13.8663 6.14508 12.8122 7.19795 11.758 8.25094C11.5318 8.47686 11.3057 8.70279 11.0795 8.92875C11.0276 8.9805 10.9761 9.03265 10.9245 9.08481C10.7698 9.24135 10.6149 9.398 10.4512 9.54459Z" fill="white" stroke="#82A3E4" stroke-width="0.2"/>
</svg>
