<svg width="186" height="46" viewBox="0 0 186 46" fill="none" xmlns="http://www.w3.org/2000/svg">
<path d="M8.31 45.22C3.72 45.22 0 41.5 0 36.92V8.31C0 3.72 3.72 0 8.31 0C12.9 0 16.62 3.72 16.62 8.31V36.92C16.61 41.5 12.89 45.22 8.31 45.22Z" fill="#93A5FF"/>
<path d="M28 30.9899C23.14 30.9899 19.21 27.0499 19.21 22.1999C19.21 17.3399 23.15 13.4099 28 13.4099C32.86 13.4099 36.79 17.3499 36.79 22.1999C36.79 27.0599 32.85 30.9899 28 30.9899Z" fill="#93A5FF"/>
<path d="M55.4699 36.33C53.7399 36.33 52.0599 36.14 50.4199 35.75C48.7799 35.36 47.3599 34.78 46.1399 34.01C45.5499 33.62 45.1799 33.15 45.0599 32.58C44.9299 32.01 44.9799 31.48 45.1999 30.97C45.4199 30.47 45.7699 30.12 46.2499 29.92C46.7299 29.73 47.2799 29.82 47.8999 30.21C49.0299 30.88 50.2399 31.37 51.4999 31.68C52.7599 31.99 54.0899 32.14 55.4899 32.14C57.5299 32.14 59.0099 31.8 59.9399 31.11C60.8699 30.43 61.3299 29.54 61.3299 28.46C61.3299 27.56 60.9999 26.85 60.3399 26.33C59.6799 25.81 58.5499 25.39 56.9499 25.05L52.6899 24.16C47.8399 23.13 45.4099 20.64 45.4099 16.69C45.4099 14.99 45.8599 13.5 46.7599 12.24C47.6599 10.98 48.9099 10 50.5099 9.3C52.1099 8.6 53.9599 8.25 56.0499 8.25C57.5999 8.25 59.0699 8.44 60.4599 8.83C61.8499 9.22 63.1099 9.79 64.2099 10.53C64.7299 10.89 65.0399 11.34 65.1399 11.87C65.2399 12.4 65.1799 12.89 64.9499 13.34C64.7199 13.79 64.3499 14.1 63.8499 14.27C63.3499 14.44 62.7599 14.33 62.0899 13.94C61.1399 13.4 60.1699 13.01 59.1899 12.78C58.2099 12.55 57.1499 12.43 56.0199 12.43C54.2399 12.43 52.8499 12.8 51.8399 13.55C50.8299 14.3 50.3299 15.28 50.3299 16.49C50.3299 17.42 50.6399 18.16 51.2599 18.72C51.8799 19.28 52.9399 19.71 54.4299 20.02L58.6499 20.91C61.1999 21.45 63.1099 22.3 64.3599 23.46C65.6099 24.62 66.2399 26.17 66.2399 28.1C66.2399 29.73 65.7999 31.16 64.9199 32.4C64.0399 33.64 62.7999 34.6 61.1899 35.28C59.5699 35.98 57.6599 36.33 55.4699 36.33Z" fill="#20263F"/>
<path d="M79.35 36.3301C77.21 36.3301 75.36 35.9301 73.81 35.1301C72.26 34.3301 71.07 33.1901 70.23 31.7201C69.39 30.2501 68.97 28.5101 68.97 26.5001C68.97 24.5401 69.38 22.8201 70.19 21.3501C71 19.8801 72.13 18.7201 73.56 17.8901C74.99 17.0501 76.62 16.6301 78.46 16.6301C81.14 16.6301 83.27 17.4801 84.83 19.1801C86.39 20.8801 87.17 23.2101 87.17 26.1501C87.17 27.1101 86.55 27.5801 85.31 27.5801H73.62C73.98 30.9601 75.92 32.6501 79.43 32.6501C80.1 32.6501 80.86 32.5701 81.69 32.4001C82.53 32.2301 83.32 31.9401 84.07 31.5301C84.74 31.1401 85.31 31.0201 85.77 31.1601C86.23 31.3001 86.56 31.5801 86.76 31.9901C86.95 32.4001 86.98 32.8601 86.84 33.3601C86.7 33.8601 86.33 34.3001 85.74 34.6601C84.84 35.2301 83.8 35.6501 82.62 35.9201C81.45 36.1901 80.36 36.3301 79.35 36.3301ZM78.66 19.9201C77.24 19.9201 76.09 20.3601 75.22 21.2401C74.34 22.1201 73.81 23.3001 73.63 24.8001H83.15C83.05 23.2301 82.61 22.0201 81.85 21.1801C81.09 20.3401 80.02 19.9201 78.66 19.9201Z" fill="#20263F"/>
<path d="M93.48 36.2499C91.83 36.2499 91 35.4199 91 33.7699V19.1399C91 17.5099 91.79 16.6999 93.36 16.6999C94.93 16.6999 95.72 17.5099 95.72 19.1399V20.3399C96.65 18.1199 98.64 16.8799 101.68 16.6199C102.79 16.4899 103.41 17.1199 103.54 18.5199C103.67 19.8899 103 20.6499 101.53 20.7999L100.68 20.8799C97.51 21.1899 95.92 22.8199 95.92 25.7599V33.7699C95.92 35.4199 95.11 36.2499 93.48 36.2499Z" fill="#20263F"/>
<path d="M115 36.25C113.71 36.25 112.76 35.57 112.14 34.2L105.99 19.92C105.63 19.07 105.62 18.32 105.97 17.67C106.32 17.03 107.02 16.7 108.08 16.7C108.67 16.7 109.15 16.84 109.51 17.11C109.87 17.38 110.19 17.8899 110.48 18.6399L115.12 30.25L119.92 18.6C120.2 17.88 120.53 17.38 120.91 17.11C121.28 16.84 121.79 16.7 122.44 16.7C123.26 16.7 123.85 17.02 124.18 17.67C124.52 18.32 124.5 19.0499 124.14 19.8799L117.87 34.2C117.3 35.57 116.34 36.25 115 36.25Z" fill="#20263F"/>
<path d="M130.13 13.14C129.23 13.14 128.52 12.91 128.02 12.46C127.52 12.01 127.26 11.38 127.26 10.58C127.26 9.76002 127.51 9.12002 128.02 8.68002C128.52 8.24002 129.23 8.02002 130.13 8.02002C132.04 8.02002 132.99 8.87002 132.99 10.57C132.99 12.27 132.04 13.14 130.13 13.14ZM130.13 36.21C129.36 36.21 128.76 35.98 128.35 35.51C127.94 35.05 127.73 34.4 127.73 33.57V19.37C127.73 17.62 128.53 16.74 130.13 16.74C131.76 16.74 132.57 17.62 132.57 19.37V33.58C132.57 34.41 132.36 35.05 131.95 35.52C131.54 35.98 130.93 36.21 130.13 36.21Z" fill="#20263F"/>
<path d="M150.3 36.33C147.67 36.33 145.37 35.75 143.39 34.59C141.42 33.43 139.89 31.8 138.8 29.69C137.72 27.59 137.17 25.12 137.17 22.28C137.17 19.42 137.71 16.94 138.8 14.85C139.88 12.76 141.41 11.14 143.37 9.99002C145.33 8.84002 147.64 8.27002 150.3 8.27002C152.96 8.27002 155.27 8.84002 157.23 9.99002C159.19 11.14 160.71 12.76 161.8 14.85C162.88 16.94 163.43 19.4 163.43 22.24C163.43 25.1 162.89 27.59 161.8 29.69C160.72 31.79 159.19 33.43 157.23 34.59C155.27 35.75 152.96 36.33 150.3 36.33ZM150.3 32.07C152.8 32.07 154.75 31.21 156.14 29.48C157.53 27.75 158.23 25.35 158.23 22.28C158.23 19.18 157.54 16.78 156.16 15.08C154.78 13.38 152.82 12.52 150.3 12.52C147.8 12.52 145.85 13.37 144.46 15.08C143.07 16.78 142.37 19.18 142.37 22.28C142.37 25.35 143.07 27.75 144.46 29.48C145.85 31.2 147.8 32.07 150.3 32.07Z" fill="#20263F"/>
<path d="M170.39 36.2501C168.79 36.2501 167.99 35.4201 167.99 33.7701V19.1401C167.99 17.5101 168.78 16.7001 170.35 16.7001C171.92 16.7001 172.71 17.5101 172.71 19.1401V19.9501C173.35 18.8701 174.22 18.0401 175.32 17.4701C176.42 16.9001 177.65 16.6201 179.02 16.6201C183.48 16.6201 185.72 19.2101 185.72 24.4001V33.7701C185.72 35.4201 184.92 36.2501 183.32 36.2501C181.69 36.2501 180.88 35.4201 180.88 33.7701V24.6401C180.88 23.1701 180.6 22.1001 180.05 21.4301C179.5 20.7601 178.64 20.4201 177.48 20.4201C176.06 20.4201 174.93 20.8701 174.09 21.7601C173.25 22.6501 172.83 23.8301 172.83 25.3001V33.7801C172.83 35.4201 172.02 36.2501 170.39 36.2501Z" fill="#20263F"/>
</svg>
