<svg width="26" height="25" viewBox="0 0 26 25" fill="none" xmlns="http://www.w3.org/2000/svg">
<path d="M0.917347 24.0801C0.917347 23.9501 0.917347 23.8201 0.917347 23.6901C0.927347 23.6801 0.94735 23.6701 0.94735 23.6601C1.45735 22.0701 1.96735 20.4701 2.47735 18.8801C2.53735 18.7101 2.52735 18.5701 2.43735 18.4101C1.75735 17.1901 1.30735 15.8901 1.08735 14.5101C1.01735 14.0901 0.967349 13.6701 0.907349 13.2501C0.907349 12.7501 0.907349 12.2501 0.907349 11.7501C0.917349 11.6801 0.94735 11.6101 0.94735 11.5401C1.06735 9.81009 1.52735 8.18009 2.35735 6.66009C4.28735 3.17009 7.20735 1.04009 11.1273 0.290088C11.5973 0.200088 12.0774 0.160088 12.5574 0.0900879C13.0374 0.0900879 13.5273 0.0900879 14.0073 0.0900879C14.0673 0.100088 14.1273 0.130088 14.1973 0.130088C15.2673 0.200088 16.2973 0.420088 17.3073 0.760088C22.7073 2.58009 26.2073 8.03009 25.6073 13.7101C25.3973 15.7201 24.7673 17.6001 23.6273 19.2701C21.2373 22.7701 17.9073 24.6501 13.6773 24.8401C11.4373 24.9401 9.31735 24.4101 7.34735 23.3301C7.19735 23.2501 7.06735 23.2301 6.89735 23.2901C5.35735 23.7901 3.81735 24.2801 2.27735 24.7801C1.88735 24.9101 1.51735 24.8901 1.22735 24.5901C1.09735 24.4501 1.01735 24.2501 0.917347 24.0801ZM3.38735 22.3901C4.43735 22.0501 5.43735 21.7701 6.40735 21.4101C7.07735 21.1501 7.62735 21.2501 8.24735 21.6001C10.4973 22.8701 12.9074 23.2301 15.4374 22.7001C18.0674 22.1501 20.1773 20.7601 21.7473 18.6001C23.5473 16.1201 24.1273 13.3501 23.5173 10.3501C22.9873 7.74009 21.5973 5.64009 19.4573 4.07009C16.9773 2.25009 14.1973 1.64009 11.1973 2.26009C7.89735 2.95009 5.47735 4.87009 3.94735 7.86009C2.93735 9.83009 2.64735 11.9401 2.99735 14.1301C3.20735 15.4801 3.66735 16.7301 4.37735 17.8901C4.58735 18.2401 4.63735 18.5901 4.49735 18.9701C4.33735 19.4301 4.18735 19.9001 4.03735 20.3701C3.82735 21.0301 3.61735 21.6801 3.38735 22.3901Z" fill="black"/>
</svg>
