<svg width="24" height="23" viewBox="0 0 24 23" fill="none" xmlns="http://www.w3.org/2000/svg">
<path d="M21.95 3H1.5C0.67 3 0 2.33 0 1.5C0 0.67 0.67 0 1.5 0H21.95C22.78 0 23.45 0.67 23.45 1.5C23.45 2.33 22.78 3 21.95 3Z" fill="#272D3B"/>
<path d="M21.95 13.4099H1.5C0.67 13.4099 0 12.7399 0 11.9099C0 11.0799 0.67 10.4099 1.5 10.4099H21.95C22.78 10.4099 23.45 11.0799 23.45 11.9099C23.45 12.7399 22.78 13.4099 21.95 13.4099Z" fill="#272D3B"/>
<path d="M18.7207 23H1.27932C0.571429 23 0 22.33 0 21.5C0 20.67 0.571429 20 1.27932 20H18.7207C19.4286 20 20 20.67 20 21.5C20 22.33 19.4286 23 18.7207 23Z" fill="black"/>
</svg>
