<svg width="23" height="25" viewBox="0 0 23 25" fill="none" xmlns="http://www.w3.org/2000/svg">
<path d="M15.4773 21.3199C14.8573 23.8199 12.7373 24.9599 10.8973 24.8599C9.08732 24.7599 7.28732 23.5199 6.78732 21.3199C6.69732 21.3199 6.59732 21.3199 6.49732 21.3199C4.95732 21.3199 3.41732 21.3199 1.88732 21.3199C1.11732 21.3199 0.517324 21.0199 0.187324 20.3199C-0.142676 19.6299 -0.0226763 18.9899 0.437324 18.3799C0.977324 17.6499 1.48732 16.8899 1.99732 16.1399C2.20732 15.8299 2.28732 15.4699 2.28732 15.0899C2.28732 13.0499 2.24732 10.9999 2.29732 8.95992C2.39732 5.18992 4.15732 2.43992 7.57732 0.85992C12.5773 -1.44008 18.5573 1.57992 19.7373 6.96992C19.8873 7.64992 19.9473 8.34992 19.9573 9.04992C19.9873 11.0399 19.9773 13.0299 19.9673 15.0199C19.9673 15.4999 20.0873 15.9199 20.3673 16.3099C20.8873 17.0399 21.4073 17.7799 21.9273 18.5199C22.3273 19.0999 22.3773 19.7199 22.0673 20.3499C21.7473 20.9799 21.2073 21.3099 20.5073 21.3099C18.9373 21.3199 17.3573 21.3099 15.7873 21.3099C15.6673 21.3199 15.5673 21.3199 15.4773 21.3199ZM20.4573 19.5399C19.9273 18.7699 19.4173 18.0299 18.8973 17.2999C18.4173 16.6199 18.1873 15.8799 18.1973 15.0499C18.2073 13.0599 18.2073 11.0699 18.1973 9.07992C18.1973 8.62992 18.1573 8.17992 18.0873 7.72992C17.4773 3.84992 13.5473 1.17992 9.71732 2.00992C6.33732 2.74992 4.06732 5.55992 4.05732 9.01992C4.05732 10.9399 4.03732 12.8699 4.06732 14.7899C4.08732 15.8099 3.81732 16.6999 3.20732 17.5199C2.72732 18.1699 2.28732 18.8399 1.80732 19.5299C8.02732 19.5399 14.2173 19.5399 20.4573 19.5399ZM13.5873 21.3399C11.9473 21.3399 10.3073 21.3399 8.66732 21.3399C8.94732 22.3399 10.0373 23.0999 11.1573 23.0899C12.2573 23.0799 13.3273 22.3099 13.5873 21.3399Z" fill="black"/>
</svg>
