<svg width="25" height="25" viewBox="0 0 25 25" fill="none" xmlns="http://www.w3.org/2000/svg">
<path d="M11.1412 6.48623C10.8187 6.49544 10.616 6.67053 10.5514 7.00227L10.533 7.0852C10.5054 7.22343 10.4777 7.36165 10.4685 7.50909C10.4593 7.6381 10.4132 7.69339 10.275 7.73025L10.2105 7.74869C9.94324 7.82242 9.65757 7.89614 9.4272 8.04358C8.97565 8.33847 8.64391 8.32001 8.28452 7.96062C8.05414 7.73025 7.74082 7.74869 7.4828 8.00672C7.16027 8.32003 6.83774 8.63335 6.52442 8.9651C6.29404 9.20469 6.27561 9.46269 6.45991 9.74836C6.54285 9.87737 6.65343 10.034 6.77323 10.1907C6.85617 10.2828 6.85617 10.3473 6.79166 10.4671C6.76401 10.5132 6.74558 10.5501 6.71794 10.5962C6.59814 10.8081 6.46913 11.0293 6.42305 11.2689C6.31247 11.8218 6.03602 12.0614 5.50154 12.0614C5.20665 12.0614 5.00392 12.2917 4.9947 12.6327C4.98549 13.0935 4.98549 13.5542 4.9947 14.0058C4.9947 14.3283 5.18822 14.5402 5.51075 14.5955C5.57526 14.6047 5.64898 14.6232 5.71349 14.6324C5.83328 14.6508 5.9623 14.6693 6.08209 14.6969C6.13738 14.7153 6.20189 14.7706 6.22032 14.8259C6.27561 14.9549 6.32169 15.0931 6.36776 15.2221C6.41384 15.3696 6.46913 15.517 6.53364 15.6645C6.5705 15.7474 6.62579 15.8396 6.67186 15.9133C6.7548 16.0515 6.83774 16.1713 6.82852 16.2911C6.81931 16.4201 6.70872 16.5491 6.59814 16.6873C6.54285 16.7519 6.48756 16.8256 6.44148 16.8993C6.27561 17.1665 6.29404 17.4246 6.49678 17.6457C6.81009 17.9683 7.14184 18.3092 7.4828 18.641C7.71318 18.8621 7.9712 18.8806 8.24766 18.6963C8.42274 18.5765 8.57019 18.4751 8.70841 18.3645C8.80057 18.2908 8.85586 18.2908 8.96644 18.3461C9.01251 18.3737 9.05859 18.4014 9.10467 18.429C9.32583 18.558 9.55621 18.687 9.80502 18.7331C10.3303 18.8345 10.5514 19.0925 10.5607 19.627C10.5699 19.9311 10.8095 20.143 11.1504 20.1522C11.3716 20.1522 11.5928 20.1615 11.8139 20.1615C12.0535 20.1615 12.2931 20.1615 12.5327 20.1522C12.8276 20.1522 13.0395 19.9771 13.104 19.6823C13.1409 19.5164 13.1778 19.3229 13.1962 19.1202C13.2054 18.9911 13.2515 18.9451 13.3805 18.9082L13.5095 18.8714C13.7491 18.8069 13.9979 18.7423 14.2006 18.6041C14.6798 18.2816 15.03 18.3092 15.4078 18.687C15.6198 18.899 15.9239 18.8806 16.1727 18.641C16.486 18.3369 16.8178 18.0144 17.1495 17.6642C17.3707 17.4338 17.3891 17.1573 17.2048 16.8809C17.1679 16.8164 17.1219 16.7611 17.0758 16.6966C17.0021 16.6044 16.9376 16.5215 16.8915 16.4201C16.8546 16.3556 16.8546 16.245 16.8823 16.1805C16.9283 16.0792 16.9836 15.9778 17.0297 15.8764C17.1219 15.7014 17.214 15.5263 17.2509 15.3419C17.343 14.8167 17.601 14.5955 18.1447 14.5863C18.4396 14.5771 18.6516 14.3559 18.6608 14.0518C18.67 13.5634 18.67 13.0658 18.6608 12.5774C18.6516 12.301 18.4857 12.1166 18.2 12.0521C18.0249 12.0153 17.8222 11.9784 17.6195 11.96C17.4997 11.9508 17.472 11.8955 17.426 11.7849L17.3614 11.6006C17.2417 11.2689 17.1311 10.9279 16.956 10.6238C16.827 10.3842 16.8362 10.2368 17.0021 10.0433C17.1034 9.92345 17.1864 9.78523 17.2693 9.64701C17.3062 9.5825 17.343 9.5272 17.3799 9.46269L17.3983 9.43505L17.3799 9.40741C17.3522 9.35211 17.3338 9.30604 17.3062 9.25996C17.2601 9.15859 17.2232 9.06646 17.1587 8.99274C16.827 8.63335 16.4768 8.30161 16.1911 8.01594C15.9515 7.78556 15.6935 7.76713 15.4078 7.95143C15.3433 7.9975 15.288 8.03435 15.2235 8.08043C15.1314 8.15415 15.0484 8.21866 14.9471 8.26474C14.8826 8.3016 14.772 8.30161 14.7075 8.27396C14.5693 8.21867 14.4402 8.15416 14.3112 8.08965C14.1914 8.02514 14.0624 7.96985 13.9242 7.91456C13.8413 7.8777 13.7399 7.85927 13.6477 7.83163C13.4911 7.79477 13.3436 7.75791 13.2699 7.66576C13.187 7.5644 13.1686 7.39851 13.1409 7.22343C13.1317 7.14049 13.1225 7.04835 13.104 6.97463C13.0303 6.66131 12.8368 6.49544 12.5143 6.48623C12.0167 6.47701 11.5651 6.4678 11.1412 6.48623ZM16.3293 9.5825C16.2372 9.71151 16.1358 9.84975 16.0345 9.99719C15.8778 10.1907 15.8778 10.3842 16.016 10.5962C16.357 11.1122 16.5966 11.6928 16.7256 12.3102C16.7717 12.5313 16.9007 12.6696 17.1219 12.6972C17.1864 12.7064 17.2417 12.7156 17.3062 12.7249C17.3891 12.7341 17.472 12.7525 17.555 12.7617C17.8683 12.8078 17.8683 12.8078 17.8683 13.1487C17.8683 13.8399 17.8683 13.8399 17.1956 13.932C16.9191 13.9689 16.7717 14.0979 16.7256 14.3651C16.6058 14.9733 16.3754 15.517 16.0529 16.0054C15.887 16.2542 15.8962 16.4662 16.0805 16.6873C16.1819 16.8071 16.2741 16.9362 16.357 17.0652C16.3846 17.1112 16.4123 17.1481 16.4399 17.185C16.1911 17.4338 15.9607 17.6642 15.7211 17.9038C15.6751 17.8669 15.629 17.8393 15.5829 17.8024C15.4447 17.7102 15.3065 17.6089 15.159 17.4983C14.9747 17.3601 14.7812 17.3509 14.5785 17.4799C14.0624 17.83 13.4819 18.0604 12.8737 18.1894C12.6341 18.2355 12.5051 18.3737 12.4682 18.6225C12.4406 18.7884 12.4129 18.9543 12.3945 19.1202L12.3668 19.3137H11.3532C11.3439 19.2584 11.3347 19.1939 11.3255 19.1386C11.2979 18.9727 11.2702 18.8069 11.2518 18.641C11.2242 18.3737 11.0859 18.2355 10.8371 18.1802C10.2289 18.0512 9.64836 17.8208 9.13231 17.4706C8.93879 17.3416 8.74527 17.3416 8.55176 17.4891C8.41353 17.5997 8.26609 17.701 8.12786 17.8024L7.98042 17.9038C7.74082 17.6642 7.51044 17.4338 7.26163 17.185C7.28928 17.1389 7.32614 17.0928 7.35379 17.0468C7.45515 16.9085 7.55652 16.7611 7.65789 16.6229C7.80533 16.4293 7.81454 16.2266 7.67632 16.0239C7.33535 15.5078 7.09576 14.9457 6.97596 14.3375C6.92067 14.0795 6.77323 13.9413 6.49678 13.9044C6.34012 13.886 6.18346 13.8583 6.01759 13.8307C5.9623 13.8215 5.90701 13.8123 5.8425 13.803V12.7894L5.98994 12.7617C6.16503 12.7341 6.34012 12.7064 6.51521 12.6788C6.77323 12.6419 6.92067 12.5037 6.96675 12.2549C7.08655 11.6559 7.32614 11.0846 7.6671 10.5685C7.80533 10.3658 7.79611 10.1631 7.64867 9.96954C7.5473 9.83132 7.44594 9.69308 7.34457 9.55485C7.31692 9.50878 7.28928 9.47191 7.26163 9.43505L7.98042 8.70708L8.10943 8.7992C8.23844 8.89136 8.38588 8.99274 8.52411 9.10332C8.71763 9.25076 8.90193 9.25075 9.09545 9.12174C9.62993 8.77156 10.2105 8.53197 10.8279 8.40296C11.0491 8.35688 11.1781 8.21866 11.2149 7.96985C11.2242 7.90534 11.2334 7.83164 11.2334 7.75792C11.2426 7.57362 11.261 7.38009 11.3439 7.31558C11.4361 7.24186 11.6296 7.25108 11.8047 7.26029C11.8876 7.26029 11.9706 7.26949 12.0443 7.26949C12.118 7.26949 12.1825 7.26949 12.2655 7.26949H12.33C12.3392 7.32478 12.3484 7.38929 12.3576 7.44458C12.3853 7.61045 12.4129 7.76711 12.4313 7.93298C12.4682 8.20943 12.6156 8.36609 12.8829 8.42138C13.4727 8.54118 14.0256 8.76236 14.5232 9.10332C14.7536 9.25998 14.9563 9.25075 15.1682 9.09409C15.2973 8.99273 15.4263 8.90059 15.5461 8.81765C15.5921 8.78079 15.6382 8.75314 15.6751 8.7255L16.3939 9.4535C16.3846 9.49957 16.357 9.54563 16.3293 9.5825Z" fill="black"/>
<path d="M18.1538 22.2257C18.0893 22.2534 18.034 22.2902 17.9787 22.3271L17.9511 22.3455C15.8039 23.7831 13.4356 24.3821 10.9383 24.1148C7.86969 23.7923 5.34473 22.3639 3.43719 19.8574C3.40955 19.8206 3.39112 19.7837 3.36347 19.7468C3.40033 19.7561 3.42798 19.7561 3.44641 19.7653C3.60307 19.8114 3.75972 19.8482 3.91638 19.8943C4.2297 19.9772 4.55223 20.0694 4.87476 20.1431C5.04985 20.1799 5.19729 20.1615 5.29866 20.0694C5.39081 19.9956 5.43688 19.8759 5.42767 19.7376C5.41845 19.4796 5.22493 19.3874 5.04063 19.3414C4.63516 19.2308 4.22048 19.1202 3.81502 19.0096C3.40955 18.8991 2.99487 18.7885 2.5894 18.6779C2.44196 18.641 2.32216 18.6502 2.22079 18.7055C2.11943 18.7608 2.04571 18.8714 2.00884 19.0188C1.99963 19.0741 1.9812 19.1202 1.97198 19.1755C1.95355 19.2492 1.94434 19.323 1.91669 19.3875C1.8614 19.5902 1.80611 19.7929 1.75082 19.9957C1.62181 20.4841 1.48358 20.9817 1.36378 21.4793C1.32692 21.6359 1.38221 21.8202 1.45594 21.9308C1.51123 22.023 1.7416 22.0783 1.83376 22.0322C1.97198 21.9585 2.09178 21.811 2.12864 21.6728C2.24844 21.2765 2.35902 20.8711 2.4696 20.4472C2.50646 20.3182 2.53411 20.1984 2.57097 20.0601C2.60783 20.1062 2.63548 20.1431 2.65391 20.1799L2.69077 20.226C4.45086 22.6588 7.04954 24.2807 9.99839 24.806C10.6711 24.9258 11.3346 24.981 12.0073 24.981C14.2834 24.981 16.4951 24.2991 18.4026 22.9998L18.4395 22.9721C18.4948 22.9353 18.5501 22.8984 18.5961 22.8523C18.7436 22.6957 18.7528 22.5114 18.633 22.3455C18.5224 22.1796 18.3381 22.1336 18.1538 22.2257Z" fill="black"/>
<path d="M1.37307 14.1166C1.30856 13.1674 1.38229 12.2735 1.5758 11.4534C2.57104 7.24208 5.16972 4.49598 9.32575 3.28879C9.69436 3.17821 10.0906 3.1137 10.4776 3.04919C10.6435 3.02155 10.8094 2.9939 10.9845 2.95703L10.9568 2.9939C10.92 3.03076 10.8831 3.07684 10.8463 3.1137C10.7357 3.22429 10.6251 3.33487 10.5145 3.43624C10.2841 3.66662 10.0445 3.89698 9.81416 4.13657C9.722 4.22872 9.67593 4.3393 9.68514 4.44988C9.68514 4.55125 9.73122 4.6434 9.80494 4.70791C9.98003 4.87378 10.192 4.87378 10.3763 4.70791C10.4039 4.68948 10.4224 4.67107 10.4408 4.64342L10.8647 4.2195C11.3254 3.76796 11.777 3.30722 12.2377 2.85568C12.3483 2.7451 12.4036 2.6345 12.4036 2.52392C12.4036 2.41334 12.3483 2.30276 12.2285 2.18297C11.6388 1.5932 11.0398 0.99422 10.4408 0.404451C10.1367 0.100351 9.91552 0.229347 9.81416 0.330714C9.73122 0.404435 9.68514 0.496594 9.68514 0.597961C9.68514 0.726973 9.74965 0.855997 9.86945 0.985009C10.0722 1.18774 10.2749 1.39048 10.4776 1.59321C10.6435 1.75908 10.8002 1.91574 10.9661 2.08161C10.9845 2.10004 11.0029 2.12768 11.0306 2.15532C10.8831 2.17375 10.7449 2.19217 10.6159 2.20139C8.54246 2.4502 6.67179 3.21507 5.05913 4.46833C2.55261 6.41273 1.07819 8.97453 0.654288 12.0892C0.580566 12.6237 0.580566 13.1766 0.580566 13.7111C0.580566 13.8954 0.580566 14.0889 0.580566 14.2732C0.580566 14.4022 0.617427 14.5128 0.700363 14.5865C0.774085 14.6603 0.875452 14.6971 0.986033 14.6971C0.995249 14.6971 0.995249 14.6971 1.00446 14.6971C1.23484 14.6879 1.3915 14.5128 1.40072 14.2548C1.38229 14.2272 1.38229 14.1719 1.37307 14.1166Z" fill="black"/>
<path d="M24.5124 18.2727C24.4479 18.0331 24.236 17.9409 23.9319 18.0147C23.9135 18.0239 23.8858 18.0239 23.8674 18.0331L22.3285 18.4386C22.3469 18.4017 22.3653 18.3556 22.3837 18.3188C22.9182 17.1669 23.25 15.932 23.3606 14.6603C23.3882 14.3562 23.2592 14.1535 23.0104 14.1351C22.8353 14.1074 22.6141 14.1812 22.5588 14.5774C22.5404 14.6788 22.5312 14.7801 22.5128 14.8907C22.4667 15.204 22.4206 15.5174 22.3561 15.8307C22.2087 16.5587 21.9691 17.259 21.6465 17.9594C21.6097 17.8119 21.5636 17.6553 21.5267 17.5171C21.4254 17.13 21.3332 16.7706 21.2319 16.4112C21.1581 16.1624 20.9554 16.0242 20.7342 16.0795C20.6236 16.1071 20.5407 16.1624 20.4854 16.2546C20.4209 16.3559 20.4117 16.4849 20.4486 16.6324C20.6697 17.471 20.8909 18.3003 21.1121 19.1389C21.1489 19.2864 21.2226 19.3877 21.3148 19.443C21.3701 19.4707 21.4346 19.4891 21.5083 19.4891C21.5636 19.4891 21.6281 19.4799 21.7018 19.4615C22.0428 19.3693 22.3837 19.2772 22.7339 19.185C22.909 19.1389 23.0749 19.0929 23.25 19.0468C23.5449 18.9731 23.8397 18.8901 24.1346 18.8072C24.5585 18.6874 24.5585 18.4201 24.5124 18.2727Z" fill="black"/>
<path d="M17.7577 3.69427C17.7024 3.66662 17.6471 3.63898 17.5734 3.61133C17.5365 3.5929 17.4996 3.57445 17.4444 3.55602L17.4075 3.5376L17.3798 3.56524C17.3522 3.59289 17.3153 3.62053 17.2877 3.64818C17.2048 3.71268 17.1218 3.7864 17.085 3.87855C16.9928 4.10893 17.1587 4.26559 17.2969 4.36696C17.9788 4.87379 18.6608 5.38984 19.315 5.89667C19.4533 5.99804 19.5731 6.05334 19.6929 6.05334C19.7942 6.05334 19.8772 6.01649 19.9509 5.94277C20.0338 5.85983 20.0707 5.76767 20.0707 5.67552C20.0707 5.55572 19.997 5.42671 19.8679 5.2977C19.2137 4.66185 18.5041 4.12738 17.7577 3.69427Z" fill="black"/>
<path d="M21.8768 8.95596C21.9044 8.95596 21.9413 8.95595 21.9689 8.94674C22.0611 8.92831 22.1256 8.84537 22.1993 8.74401C22.227 8.69793 22.2638 8.65187 22.3007 8.61501L22.3283 8.58737L22.3007 8.5505C22.2362 8.43992 22.1717 8.33856 22.1072 8.2372C21.9229 7.9331 21.7386 7.64744 21.545 7.37099C21.5266 7.34334 21.4805 7.3157 21.4068 7.3157C21.3147 7.30649 21.158 7.3249 21.0843 7.38941C20.9829 7.48156 20.9092 7.72117 20.9645 7.84096C21.1211 8.18191 21.3054 8.51365 21.5174 8.81774C21.5819 8.90068 21.7386 8.95596 21.8768 8.95596Z" fill="black"/>
<path d="M22.4942 12.0154C22.5403 12.2181 22.6785 12.3379 22.872 12.3379C22.8997 12.3379 22.9273 12.3379 22.9457 12.3287C23.1761 12.2918 23.2959 12.1167 23.2867 11.8126V11.8034C23.2683 11.7205 23.2498 11.6375 23.2314 11.5454C23.1853 11.315 23.13 11.0477 23.0747 10.7897C23.0195 10.5593 22.8351 10.458 22.6048 10.504C22.3744 10.5501 22.2638 10.7252 22.3007 10.9556C22.3467 11.3058 22.4205 11.656 22.4942 12.0154Z" fill="black"/>
<path d="M11.8507 9.47217C9.69437 9.47217 7.99878 11.1678 7.99878 13.3241C7.99878 15.4344 9.72201 17.1484 11.8415 17.1576H11.8507C12.8644 17.1576 13.8228 16.7614 14.5508 16.0334C15.2788 15.3054 15.675 14.347 15.675 13.3333C15.675 12.3012 15.2788 11.3336 14.5508 10.6056C13.832 9.87765 12.8736 9.47217 11.8507 9.47217ZM14.8641 13.3057C14.8641 14.9736 13.5002 16.3375 11.8231 16.3375C10.1643 16.3375 8.80971 14.9828 8.8005 13.3241C8.8005 12.5132 9.11381 11.7391 9.68515 11.1678C10.2565 10.5964 11.0214 10.2831 11.8323 10.2831C11.8415 10.2831 11.8415 10.2831 11.8507 10.2831C13.491 10.2923 14.8733 11.6746 14.8641 13.3057Z" fill="black"/>
</svg>
