<svg width="13" height="13" viewBox="0 0 13 13" fill="none" xmlns="http://www.w3.org/2000/svg">
<path d="M13 6.62695C12.9111 6.87477 12.7667 7.06638 12.4913 7.11953C12.4214 7.13307 12.3485 7.13409 12.2769 7.13409C10.6187 7.13477 8.96057 7.13477 7.30274 7.13477C7.25254 7.13477 7.20235 7.13477 7.13553 7.13477C7.13553 7.1913 7.13553 7.24039 7.13553 7.28948C7.13553 8.92667 7.12909 10.5639 7.13994 12.2007C7.14265 12.5961 7.01309 12.871 6.6278 13C6.54301 13 6.45856 13 6.37377 13C6.12618 12.911 5.93489 12.7661 5.88063 12.4912C5.86774 12.4255 5.86638 12.3568 5.86638 12.2894C5.8657 10.6268 5.8657 8.96424 5.8657 7.30167C5.8657 7.25156 5.8657 7.20146 5.8657 7.13477C5.80872 7.13477 5.75988 7.13477 5.71071 7.13477C4.03151 7.13477 2.35197 7.1351 0.672777 7.13443C0.312925 7.13443 0.040916 6.90253 0.00394717 6.5694C-0.0374307 6.19599 0.251536 5.86896 0.634791 5.86625C1.21001 5.86219 1.78523 5.86523 2.36045 5.86523C3.47291 5.86523 4.58536 5.86523 5.69782 5.86523C5.74801 5.86523 5.79821 5.86523 5.86536 5.86523C5.86536 5.8087 5.86536 5.75961 5.86536 5.71086C5.86536 4.07367 5.87181 2.43648 5.86062 0.799297C5.8579 0.403542 5.9878 0.128984 6.37309 0C6.45788 0 6.54233 0 6.62712 0C6.87573 0.0876823 7.066 0.233932 7.11959 0.50849C7.13316 0.578229 7.13417 0.651354 7.13417 0.722786C7.13485 2.38096 7.13485 4.03948 7.13485 5.69766C7.13485 5.74776 7.13485 5.79786 7.13485 5.8649C7.19149 5.8649 7.24067 5.8649 7.28951 5.8649C8.92665 5.8649 10.5635 5.87133 12.2006 5.86016C12.5961 5.85745 12.8708 5.98677 12.9997 6.37271C13 6.45768 13 6.54232 13 6.62695Z" fill="#778CE8"/>
</svg>
