<svg width="12" height="12" viewBox="0 0 12 12" fill="none" xmlns="http://www.w3.org/2000/svg">
<path d="M9.86415 1.37826C9.86415 1.18205 9.86001 0.982446 9.86528 0.783223C9.87205 0.528368 10.0533 0.302832 10.2962 0.234796C10.5568 0.161872 10.8306 0.250583 10.9618 0.473112C11.0186 0.569716 11.0585 0.691881 11.0604 0.802769C11.0724 1.52937 11.0754 2.25635 11.0735 2.98332C11.0728 3.30922 10.8204 3.57009 10.4959 3.57423C9.75923 3.58362 9.02256 3.58625 8.28626 3.58212C7.96136 3.58024 7.71167 3.31636 7.70602 2.9946C7.70038 2.67171 7.95459 2.40445 8.28626 2.39167C8.46902 2.3849 8.65215 2.38791 8.83529 2.38678C8.92704 2.38641 9.01918 2.38678 9.11093 2.38678C9.1162 2.37137 9.12184 2.35596 9.1271 2.34055C8.91426 2.19132 8.70894 2.02968 8.48745 1.89511C5.59791 0.140447 1.83069 1.85189 1.25346 5.17929C0.795058 7.82144 2.5997 10.3343 5.25345 10.75C7.87487 11.1605 10.365 9.33929 10.7358 6.72383C10.7919 6.32839 10.7798 5.92055 10.7674 5.51947C10.7561 5.14846 10.9652 4.8485 11.304 4.81768C11.6605 4.78535 11.9354 5.0278 11.9715 5.40633C12.2644 8.4676 10.2214 11.25 7.22243 11.8736C3.96775 12.5505 0.771744 10.441 0.118552 7.18505C-0.53163 3.94185 1.5573 0.772322 4.79731 0.127666C6.61436 -0.233942 8.26708 0.174653 9.73592 1.3091C9.76901 1.33466 9.80323 1.35947 9.83707 1.38428C9.83933 1.38578 9.84572 1.38277 9.86415 1.37826Z" fill="#4ABFB7"/>
</svg>
