<svg width="27" height="27" viewBox="0 0 27 27" fill="none" xmlns="http://www.w3.org/2000/svg">
<path d="M0.75 17.87C0.9 17.37 1.13 16.92 1.63 16.7C1.88 16.59 2.16 16.51 2.43 16.51C7.82 16.5 13.2 16.5 18.59 16.5C19.56 16.5 20.25 17.2 20.26 18.17C20.27 18.86 20.26 19.56 20.26 20.25C20.26 20.67 20.12 21.04 19.84 21.38C20.23 21.82 20.28 22.34 20.27 22.88C20.26 23.43 20.27 23.98 20.27 24.53C20.26 25.56 19.58 26.25 18.55 26.25C13.2 26.25 7.85 26.25 2.5 26.25C1.62 26.25 1.06 25.82 0.81 24.97C0.8 24.94 0.78 24.91 0.77 24.88C0.77 23.98 0.77 23.08 0.77 22.19C0.89 21.94 1.01 21.7 1.13 21.45C1.15 21.41 1.15 21.34 1.13 21.3C1 21.06 0.87 20.81 0.75 20.57C0.75 19.67 0.75 18.77 0.75 17.87ZM10.51 20.84C13.17 20.84 15.83 20.84 18.48 20.84C18.99 20.84 19.18 20.65 19.19 20.13C19.19 19.51 19.19 18.89 19.19 18.28C19.19 17.79 18.98 17.59 18.49 17.59C13.17 17.59 7.86 17.59 2.54 17.59C2.04 17.59 1.84 17.8 1.83 18.3C1.83 18.88 1.83 19.47 1.83 20.05C1.83 20.67 1.99 20.84 2.61 20.84C5.24 20.84 7.87 20.84 10.51 20.84ZM10.51 21.93C7.86 21.93 5.21 21.93 2.56 21.93C2.02 21.93 1.83 22.12 1.83 22.66C1.83 23.25 1.83 23.85 1.83 24.44C1.83 24.98 2.02 25.18 2.56 25.18C7.86 25.18 13.16 25.18 18.46 25.18C19 25.18 19.19 24.98 19.19 24.44C19.19 23.86 19.19 23.29 19.19 22.71C19.19 22.09 19.03 21.93 18.41 21.93C15.78 21.93 13.14 21.93 10.51 21.93Z" fill="black"/>
<path d="M0.74999 13.3C0.83999 12.95 0.88999 12.59 1.00999 12.25C1.67999 10.42 2.97999 9.32 4.89999 8.98C4.93999 8.97 4.97999 8.95999 5.01999 8.94999C5.03999 8.93999 5.06999 8.92999 5.04999 8.93999C5.10999 8.27999 5.12999 7.62999 5.21999 6.99999C5.43999 5.53999 6.05999 4.25999 7.00999 3.13999C8.20999 1.71999 9.72999 0.819991 11.54 0.419991C11.92 0.339991 12.31 0.29999 12.69 0.23999C13.06 0.23999 13.44 0.23999 13.81 0.23999C14.26 0.31999 14.71 0.37999 15.15 0.48999C17.62 1.12999 19.42 2.62 20.54 4.91C20.79 5.43 20.94 5.99999 21.12 6.55999C21.17 6.71999 21.22 6.78999 21.4 6.80999C24.3 7.08999 26.58 9.47 26.75 12.37C26.92 15.27 24.93 17.9 22.09 18.53C21.71 18.61 21.43 18.46 21.35 18.14C21.27 17.83 21.47 17.56 21.85 17.47C23.21 17.15 24.26 16.39 24.99 15.2C26.76 12.31 24.95 8.42 21.61 7.91C21.33 7.87 21.05 7.84999 20.78 7.81999C20.42 7.77999 20.23 7.60999 20.17 7.24999C19.89 5.61999 19.15 4.24999 17.92 3.14999C16.71 2.05999 15.29 1.42999 13.66 1.34999C11.03 1.21999 8.93999 2.25999 7.42999 4.38999C6.42999 5.78999 6.04999 7.37999 6.22999 9.09999C6.23999 9.17999 6.24999 9.24999 6.24999 9.32999C6.26999 9.77999 6.07999 9.98999 5.61999 9.98999C4.74999 9.99999 3.95999 10.25 3.28999 10.81C2.09999 11.81 1.60999 13.07 1.94999 14.61C1.96999 14.71 1.99999 14.81 2.00999 14.91C2.04999 15.23 1.86999 15.49 1.58999 15.54C1.29999 15.59 1.03999 15.44 0.94999 15.13C0.87999 14.89 0.83999 14.64 0.78999 14.39C0.77999 14.33 0.75999 14.28 0.73999 14.22C0.74999 13.91 0.74999 13.61 0.74999 13.3Z" fill="black"/>
<path d="M15.3899 18.67C16.0699 18.67 16.7399 18.67 17.4199 18.67C17.5399 18.67 17.6799 18.68 17.7899 18.73C17.9999 18.82 18.0999 19.01 18.0899 19.24C18.0699 19.48 17.9499 19.63 17.7199 19.71C17.6299 19.74 17.5399 19.75 17.4499 19.75C16.0799 19.75 14.7099 19.75 13.3399 19.75C12.9999 19.75 12.7699 19.6 12.7099 19.35C12.6199 18.99 12.8699 18.68 13.2899 18.68C13.9799 18.67 14.6899 18.68 15.3899 18.67Z" fill="black"/>
<path d="M2.92993 19.2099C2.92993 18.9099 3.15993 18.6799 3.45993 18.6799C3.75993 18.6799 4.00993 18.9299 4.00993 19.2199C3.99993 19.4999 3.74993 19.7499 3.46993 19.7499C3.16993 19.7499 2.92993 19.4999 2.92993 19.2099Z" fill="black"/>
<path d="M15.39 24.09C14.72 24.09 14.05 24.09 13.38 24.09C13.27 24.09 13.15 24.09 13.05 24.06C12.82 23.98 12.69 23.82 12.68 23.57C12.67 23.32 12.79 23.15 13.02 23.06C13.11 23.03 13.22 23.01 13.32 23.01C14.69 23.01 16.06 23.01 17.43 23.01C17.77 23.01 17.99 23.16 18.06 23.41C18.15 23.77 17.9 24.08 17.48 24.08C16.79 24.09 16.09 24.09 15.39 24.09Z" fill="black"/>
<path d="M3.46998 24.08C3.16998 24.08 2.93998 23.85 2.92998 23.56C2.91998 23.26 3.16998 23 3.46998 23.01C3.74998 23.01 3.99998 23.27 3.99998 23.55C3.99998 23.84 3.75998 24.08 3.46998 24.08Z" fill="black"/>
</svg>
