<svg width="25" height="25" viewBox="0 0 25 25" fill="none" xmlns="http://www.w3.org/2000/svg">
<path d="M11.8048 24.6496C11.3625 24.5851 10.9109 24.5298 10.4686 24.4653C10.3949 24.4561 10.3119 24.4376 10.2382 24.4192C9.93412 24.3547 9.78668 24.1428 9.83275 23.8663C9.87883 23.5991 10.1092 23.47 10.4133 23.4977C11.1874 23.5714 11.9615 23.7004 12.7355 23.7004C17.0851 23.682 21.1858 20.899 22.7708 16.8351C24.2637 13.0108 23.7661 9.40772 21.407 6.06262C21.3701 6.00732 21.3241 5.95204 21.3056 5.92439C20.9555 5.9889 20.6329 6.09025 20.3104 6.09947C19.4349 6.1179 18.6609 5.5097 18.4305 4.66191C18.2001 3.82333 18.5595 2.92025 19.2967 2.47792C20.0616 2.01716 21.0015 2.10931 21.6558 2.7083C22.2916 3.29807 22.476 4.24723 22.0797 5.0213C21.9875 5.2056 22.006 5.30698 22.1258 5.46364C23.5265 7.33431 24.319 9.43536 24.5033 11.7576C24.5125 11.8221 24.5309 11.8958 24.5401 11.9603C24.5401 12.4395 24.5401 12.9279 24.5401 13.4071C24.5309 13.4716 24.5125 13.5269 24.5033 13.5914C24.4204 14.1443 24.3743 14.7064 24.2545 15.2501C23.2961 19.8946 19.3244 23.6912 14.6523 24.4561C14.21 24.5298 13.7584 24.5759 13.3161 24.6404C12.8 24.6496 12.3024 24.6496 11.8048 24.6496ZM20.3104 5.17795C20.8725 5.17795 21.3425 4.72642 21.3425 4.1643C21.3517 3.59296 20.8725 3.12298 20.3012 3.12298C19.739 3.12298 19.2783 3.59295 19.2783 4.15507C19.2967 4.7172 19.7483 5.17795 20.3104 5.17795Z" fill="black"/>
<path d="M19.0019 8.91031C19.2415 9.51851 19.4442 10.0622 19.6653 10.5875C19.693 10.652 19.7851 10.7257 19.8589 10.7257C20.0892 10.7441 20.3288 10.7257 20.5592 10.7349C20.891 10.7441 21.0661 10.91 21.0661 11.2417C21.0661 12.1817 21.0661 13.1309 21.0661 14.0708C21.0661 14.4118 20.8818 14.5868 20.5408 14.5868C20.3104 14.5868 20.0708 14.5776 19.8404 14.5961C19.7759 14.5961 19.693 14.6698 19.6653 14.7251C19.4442 15.2688 19.2322 15.8125 19.0019 16.4114C19.1493 16.5497 19.352 16.734 19.5456 16.9275C19.8128 17.1947 19.8128 17.4435 19.5456 17.72C18.9005 18.3743 18.2462 19.0193 17.5919 19.6736C17.3339 19.9316 17.0851 19.9316 16.8179 19.6644C16.6243 19.4709 16.4493 19.2682 16.3018 19.1115C15.6936 19.3511 15.1499 19.5538 14.6154 19.775C14.5509 19.8026 14.4864 19.8948 14.4772 19.9685C14.4588 20.2081 14.4772 20.4477 14.468 20.6965C14.4588 21.0006 14.2837 21.1849 13.9888 21.1849C13.0304 21.1941 12.0721 21.1941 11.1137 21.1849C10.8004 21.1849 10.6253 21.0006 10.6253 20.6873C10.6161 20.4569 10.6161 20.2173 10.6253 19.9869C10.6253 19.8671 10.5884 19.8118 10.4686 19.775C9.93414 19.5723 9.39966 19.3603 8.80068 19.1207C8.66245 19.2589 8.48736 19.4617 8.29384 19.6552C8.01739 19.9316 7.77779 19.9316 7.50134 19.6552C6.84706 19.0101 6.202 18.3559 5.54773 17.7016C5.2897 17.4343 5.2897 17.1947 5.54773 16.9275C5.72281 16.7432 5.90712 16.5589 6.09142 16.3746C6.10064 16.3654 6.10985 16.3469 6.09142 16.3838C5.86104 15.8032 5.65831 15.2503 5.43714 14.7067C5.41871 14.6514 5.31735 14.5961 5.25284 14.5961C5.02246 14.5776 4.78287 14.5961 4.55249 14.5868C4.22074 14.5776 4.04565 14.4025 4.04565 14.08C4.04565 13.1401 4.04565 12.1909 4.04565 11.251C4.04565 10.9192 4.22074 10.7441 4.55249 10.7349C4.78287 10.7257 5.02246 10.7441 5.25284 10.7257C5.32656 10.7165 5.41871 10.652 5.44636 10.5967C5.66752 10.0622 5.87947 9.51851 6.10985 8.9011C5.96241 8.76287 5.75046 8.57856 5.56616 8.39426C5.30813 8.13624 5.30813 7.88743 5.56616 7.62019C6.21122 6.96591 6.86549 6.32086 7.51977 5.66658C7.79622 5.39934 8.03582 5.39934 8.31227 5.66658C8.46893 5.82324 8.61637 5.9799 8.78225 6.12734C8.83754 6.17342 8.94812 6.19184 9.01262 6.16419C9.51024 5.97068 10.0079 5.75873 10.4963 5.54678C10.5608 5.51913 10.6345 5.42699 10.6345 5.36248C10.6529 5.12289 10.6345 4.88328 10.6437 4.63447C10.6529 4.33037 10.828 4.14607 11.1229 4.14607C12.0813 4.13686 13.0396 4.13686 13.998 4.14607C14.3113 4.14607 14.4864 4.33038 14.4864 4.6437C14.4956 4.87408 14.4772 5.11367 14.4956 5.34405C14.4956 5.40855 14.5509 5.50991 14.6062 5.53756C15.1499 5.75872 15.7028 5.97067 16.3202 6.20105C16.4585 6.05361 16.6428 5.85088 16.8363 5.65736C17.0943 5.39933 17.3431 5.39933 17.6104 5.65736C18.2646 6.30242 18.9189 6.95669 19.564 7.61097C19.8312 7.87821 19.8312 8.12702 19.5548 8.40347C19.352 8.58777 19.1585 8.76287 19.0019 8.91031ZM17.1496 18.6968C17.6472 18.2084 18.108 17.7477 18.5872 17.2685C18.4397 17.1302 18.2646 16.9736 18.0988 16.8077C17.8684 16.5773 17.85 16.393 18.0158 16.1166C18.4029 15.4899 18.6793 14.8172 18.8544 14.0984C18.9281 13.7759 19.0756 13.6653 19.4165 13.6653C19.6469 13.6653 19.8773 13.6653 20.1077 13.6653C20.1077 12.9926 20.1077 12.3476 20.1077 11.6841C19.8589 11.6841 19.6285 11.6841 19.3981 11.6841C19.0756 11.6749 18.9281 11.5643 18.8452 11.251C18.6701 10.523 18.3937 9.84104 17.9974 9.21441C17.8315 8.95639 17.8592 8.75366 18.0803 8.54171C18.2462 8.37583 18.4397 8.21917 18.5964 8.07172C18.0988 7.57411 17.6288 7.11336 17.1404 6.62495C17.0022 6.77239 16.8547 6.94749 16.6981 7.10414C16.4493 7.35295 16.265 7.37138 15.9701 7.18708C15.3619 6.80004 14.6984 6.5328 13.998 6.36693C13.6478 6.28399 13.5373 6.14577 13.5373 5.77716C13.5373 5.55599 13.5373 5.33483 13.5373 5.11367C12.8553 5.11367 12.2195 5.11367 11.556 5.11367C11.556 5.34405 11.556 5.56521 11.556 5.77716C11.556 6.14577 11.4454 6.28399 11.0953 6.37614C10.3857 6.55123 9.72219 6.81847 9.09556 7.20551C8.81911 7.37138 8.62559 7.35294 8.40442 7.12256C8.23855 6.94748 8.09111 6.76318 7.94367 6.59731C7.42762 7.11336 6.97608 7.57411 6.47846 8.07172C6.64433 8.21917 6.81942 8.36661 6.98529 8.53248C7.22488 8.77208 7.24331 8.95638 7.06823 9.24205C6.68119 9.85947 6.40474 10.5322 6.23886 11.2417C6.15593 11.5827 6.0177 11.6933 5.65831 11.6933C5.43714 11.6933 5.20676 11.6933 4.97639 11.6933C4.97639 12.366 4.97639 13.0111 4.97639 13.6745C5.21598 13.6745 5.44636 13.6745 5.66752 13.6745C6.00848 13.6745 6.15593 13.7851 6.22965 14.1077C6.40474 14.8264 6.68119 15.4991 7.06823 16.1258C7.2341 16.4022 7.21567 16.5958 6.98529 16.8169C6.8102 16.9828 6.6259 17.1395 6.47846 17.2685C6.98529 17.7753 7.44605 18.2361 7.92524 18.7245C8.07268 18.5678 8.23855 18.3835 8.40442 18.2176C8.61637 18.0149 8.80989 17.9872 9.0587 18.1439C9.69455 18.5402 10.3673 18.8258 11.0953 18.9917C11.4178 19.0654 11.5284 19.2221 11.5376 19.5538C11.5376 19.7842 11.5376 20.0146 11.5376 20.2542C12.2103 20.2542 12.8553 20.2542 13.5188 20.2542C13.5188 20.0146 13.5188 19.7842 13.5188 19.5446C13.5188 19.2036 13.6294 19.0654 13.9612 18.9825C14.6799 18.8074 15.3527 18.5309 15.9793 18.1439C16.2465 17.978 16.44 17.9965 16.6704 18.2268C16.8639 18.3743 17.0206 18.5494 17.1496 18.6968Z" fill="black"/>
<path d="M3.85202 19.4432C4.98549 18.8995 5.99916 19.4248 6.44148 20.1159C6.94832 20.9177 6.81931 21.9682 6.12817 22.6132C5.4186 23.2675 4.36807 23.3136 3.594 22.733C2.9858 22.2723 2.46975 21.2402 3.11481 20.1251C2.70013 19.4432 2.2578 18.7982 1.89841 18.107C-0.654188 13.2046 0.571428 7.07648 4.80119 3.51943C7.18791 1.51974 9.94324 0.579787 13.0488 0.690369C13.657 0.7088 14.2559 0.819378 14.8549 0.902314C15.1775 0.94839 15.3525 1.17878 15.3065 1.44602C15.2604 1.73169 15.0116 1.87913 14.6891 1.81462C12.5327 1.40915 10.4316 1.57502 8.40431 2.43203C5.15136 3.80509 2.94894 6.1826 1.96292 9.57378C0.94925 13.0571 1.5851 16.2916 3.69537 19.2497C3.73223 19.305 3.76909 19.3511 3.80595 19.3972C3.81516 19.4156 3.83359 19.4248 3.85202 19.4432ZM4.80119 20.1528C4.23906 20.1528 3.76909 20.6043 3.75987 21.1665C3.75066 21.7378 4.22063 22.217 4.79197 22.2078C5.3541 22.2078 5.81485 21.747 5.81485 21.1849C5.81485 20.6136 5.36331 20.1528 4.80119 20.1528Z" fill="black"/>
<path d="M17.3246 1.98036C17.3246 2.23839 17.1126 2.45955 16.8546 2.45955C16.6058 2.45955 16.3938 2.2476 16.3938 1.99878C16.3846 1.74076 16.6058 1.52881 16.8638 1.52881C17.1218 1.52881 17.3246 1.72233 17.3246 1.98036Z" fill="black"/>
<path d="M8.7269 23.3596C8.7269 23.6177 8.52416 23.8204 8.26614 23.8204C8.00811 23.8204 7.80538 23.6177 7.79617 23.3688C7.78695 23.1108 8.01733 22.8896 8.27535 22.8896C8.52416 22.8896 8.7269 23.1016 8.7269 23.3596Z" fill="black"/>
<path d="M16.4214 12.6702C16.4214 14.7989 14.6705 16.5405 12.551 16.5405C10.4223 16.5405 8.68066 14.7897 8.68066 12.6702C8.68066 10.5415 10.4223 8.7998 12.551 8.7998C14.6797 8.7998 16.4214 10.5415 16.4214 12.6702ZM12.5602 9.73053C10.9568 9.73053 9.62982 11.0483 9.62061 12.661C9.62061 14.2644 10.9384 15.5914 12.551 15.6006C14.1545 15.6006 15.4815 14.2828 15.4907 12.6702C15.4907 11.0575 14.1637 9.73053 12.5602 9.73053Z" fill="black"/>
</svg>
