<svg width="25" height="25" viewBox="0 0 25 25" fill="none" xmlns="http://www.w3.org/2000/svg">
<path d="M8.85578 0.79034C9.20595 0.946997 9.34418 1.21423 9.31654 1.59205C9.30732 1.83165 9.2336 2.13576 9.34418 2.30164C9.45476 2.45829 9.76808 2.46751 9.98924 2.55966C10.321 2.7071 10.6527 2.85455 10.9845 3.02042C11.1135 3.08492 11.1872 3.09413 11.2794 2.98355C11.436 2.80846 11.6111 2.63338 11.7862 2.4675C12.0811 2.18183 12.422 2.18184 12.7169 2.47673C13.0395 2.79004 13.362 3.11255 13.6753 3.43508C13.9702 3.72997 13.9702 4.07094 13.6753 4.36582C13.4726 4.57777 13.2514 4.7805 13.0855 4.93716C13.3251 5.573 13.5463 6.16276 13.7675 6.74332C13.832 6.90919 13.9702 6.87235 14.0716 6.78941C14.2559 6.63275 14.4678 6.59587 14.6982 6.59587C15.2142 6.60509 15.7303 6.59587 16.2371 6.59587C16.744 6.59587 17.0112 6.86312 17.0112 7.37916C17.0112 7.71091 17.002 8.03345 17.0204 8.36519C17.0204 8.4297 17.0941 8.53108 17.1586 8.54951C17.5365 8.68773 17.9327 8.78908 18.3013 8.93653C18.6699 9.08397 19.0109 9.2867 19.4071 9.48022C19.6467 9.23141 19.9048 8.96417 20.172 8.70615C20.559 8.31911 20.9184 8.31911 21.3055 8.70615C21.6833 9.08397 22.0611 9.45258 22.4297 9.8304C22.7799 10.1898 22.7799 10.5492 22.4297 10.9086C22.1625 11.1758 21.886 11.4431 21.6188 11.7195C22.0611 12.4291 22.3836 13.1663 22.5772 13.9588C22.5956 14.0141 22.7062 14.0786 22.7799 14.0878C23.0563 14.1062 23.342 14.1062 23.6185 14.0878C24.0331 14.0601 24.3465 14.1984 24.5215 14.5854C24.5215 15.3042 24.5215 16.023 24.5215 16.7418C24.3465 17.138 24.0424 17.2762 23.6277 17.2578C23.2959 17.2394 22.955 17.2578 22.6877 17.2578C22.3468 18.0687 22.0335 18.852 21.6833 19.6906C21.8952 19.9026 22.1717 20.1606 22.4389 20.437C22.8075 20.8056 22.8075 21.165 22.4389 21.5336C22.0611 21.9115 21.6833 22.2985 21.2962 22.6763C20.9461 23.0265 20.5775 23.0265 20.2273 22.6763C19.96 22.4183 19.6928 22.1511 19.4348 21.8838C19.4256 21.8746 19.4256 21.8746 19.4716 21.9022C18.6515 22.2432 17.8682 22.5657 17.0388 22.9067C17.0388 23.22 17.0388 23.5886 17.0388 23.9664C17.0388 24.4825 16.7716 24.7497 16.2648 24.7497C15.7211 24.7497 15.1774 24.7497 14.6245 24.7497C14.1637 24.7497 13.8965 24.4917 13.8873 24.0309C13.878 23.69 13.878 23.349 13.8873 22.9989C13.8873 22.8791 13.8504 22.8145 13.7306 22.7869C12.9473 22.6026 12.2285 22.2893 11.519 21.847C11.2702 22.0958 11.0213 22.3446 10.7725 22.6026C10.3302 23.0449 10.0077 23.0449 9.55613 22.6026C9.19674 22.2432 8.83735 21.8838 8.47796 21.5244C8.12778 21.165 8.12778 20.7964 8.47796 20.4463C8.73598 20.1882 8.99401 19.9302 9.25203 19.663C9.26125 19.6538 9.27046 19.6353 9.27968 19.6077C8.84656 18.9165 8.52403 18.1701 8.33051 17.3684C8.3213 17.3223 8.21072 17.267 8.137 17.267C7.80525 17.2578 7.46429 17.267 7.13254 17.2578C6.66257 17.2486 6.38612 16.9814 6.38612 16.5114C6.3769 15.9493 6.36769 15.3871 6.39533 14.825C6.40455 14.6591 6.47827 14.4841 6.5612 14.3274C6.681 14.1154 6.65336 14.0509 6.43219 13.968C5.87928 13.7653 5.33559 13.5441 4.71817 13.3045C4.57073 13.4612 4.37721 13.6731 4.17448 13.8759C3.85195 14.1984 3.5202 14.1984 3.19767 13.8759C2.88436 13.5718 2.58026 13.2584 2.27616 12.9451C1.98127 12.641 1.98127 12.3001 2.27616 11.996C2.44203 11.8209 2.61712 11.6458 2.7922 11.4799C2.87514 11.397 2.88436 11.3417 2.83828 11.2219C2.6079 10.7151 2.40517 10.1898 2.184 9.67376C2.15636 9.60925 2.06421 9.53553 1.9997 9.52631C1.75089 9.50788 1.50208 9.5263 1.25327 9.51709C0.829376 9.50787 0.589782 9.25905 0.580566 8.84437C0.580566 8.40204 0.580566 7.95973 0.580566 7.50819C0.580566 7.09351 0.810945 6.8539 1.22563 6.83547C1.48365 6.82626 1.74168 6.84468 1.9997 6.82625C2.06421 6.82625 2.15636 6.76176 2.17479 6.69725C2.40517 6.12591 2.61712 5.55456 2.85671 4.92793C2.70927 4.78049 2.49732 4.57778 2.29459 4.37505C1.97206 4.05252 1.97206 3.71155 2.29459 3.38902C2.59869 3.08492 2.90279 2.78083 3.20689 2.47673C3.53863 2.1542 3.87038 2.15418 4.20212 2.48592C4.368 2.6518 4.52465 2.82688 4.69974 2.97433C4.74582 3.0204 4.86561 3.02961 4.93012 3.00197C5.44617 2.79924 5.96222 2.56886 6.47827 2.36612C6.59806 2.32005 6.64414 2.27399 6.63492 2.15419C6.62571 1.96067 6.64414 1.76715 6.63492 1.57363C6.60728 1.20503 6.73629 0.919353 7.08647 0.762695C7.66702 0.790341 8.26601 0.79034 8.85578 0.79034ZM16.3385 24.0402C16.3385 23.6439 16.3385 23.2661 16.3385 22.8975C16.3385 22.4644 16.5228 22.234 16.9467 22.1326C17.6563 21.9668 18.329 21.6995 18.9464 21.3125C19.3703 21.0544 19.6375 21.0913 19.9877 21.4415C20.2457 21.6995 20.5037 21.9575 20.7433 22.1971C21.1672 21.7732 21.5727 21.377 21.969 20.9715C21.969 20.9715 21.9689 20.9531 21.9505 20.9439C21.7109 20.7043 21.4713 20.4555 21.2225 20.2159C20.8631 19.8473 20.8263 19.5984 21.0935 19.1561C21.4529 18.5756 21.7109 17.9489 21.8768 17.2854C22.0242 16.668 22.1809 16.5575 22.826 16.5575C23.1577 16.5575 23.4895 16.5575 23.812 16.5575C23.812 15.9585 23.812 15.3871 23.812 14.8066C23.4342 14.8066 23.0656 14.8066 22.6969 14.8066C22.227 14.8066 22.015 14.6315 21.9044 14.1799C21.7386 13.4796 21.4713 12.8161 21.0935 12.1987C20.8355 11.7748 20.8631 11.5076 21.2133 11.1574C21.4713 10.8994 21.7294 10.6413 21.969 10.411C21.5451 9.98706 21.1396 9.5908 20.7249 9.16691C20.4761 9.41572 20.2181 9.68296 19.9508 9.9502C19.6283 10.2635 19.3518 10.3004 18.9648 10.0608C18.3382 9.67374 17.6655 9.39728 16.9467 9.22219C16.5044 9.11161 16.3385 8.89967 16.3385 8.44813C16.3385 8.07952 16.3385 7.7017 16.3385 7.32388C15.7487 7.32388 15.1774 7.32388 14.5876 7.32388C14.5876 7.7017 14.5876 8.0611 14.5876 8.42971C14.5876 8.91811 14.4309 9.12085 13.9518 9.24064C13.2422 9.41573 12.5787 9.68296 11.9521 10.07C11.565 10.3096 11.2886 10.2727 10.966 9.9502C10.6988 9.68296 10.4408 9.41573 10.2104 9.18535C9.78651 9.60925 9.38104 10.0147 8.96636 10.4202C8.95714 10.411 8.96636 10.4202 8.97558 10.4386C9.21517 10.6782 9.44555 10.9178 9.68514 11.1482C10.0537 11.5168 10.0814 11.7748 9.80494 12.2263C9.45476 12.7977 9.19674 13.4059 9.04008 14.051C8.88342 14.6868 8.72677 14.8066 8.07249 14.8066C7.74996 14.8066 7.41821 14.8066 7.1049 14.8066C7.1049 15.4056 7.1049 15.9769 7.1049 16.5575C7.48272 16.5575 7.85133 16.5575 8.21993 16.5575C8.68991 16.5575 8.90185 16.7141 9.01244 17.1749C9.18752 17.8752 9.44555 18.5387 9.83259 19.1561C10.0998 19.5892 10.063 19.8473 9.69436 20.2159C9.44555 20.4647 9.18752 20.7227 8.94793 20.9531C9.37183 21.3678 9.76808 21.7732 10.192 22.1879C10.4316 21.9391 10.6896 21.6811 10.9476 21.4231C11.2886 21.0821 11.565 21.0452 11.9705 21.3033C12.5787 21.6811 13.233 21.9483 13.9241 22.1142C14.4309 22.2432 14.5784 22.4275 14.5876 22.9528C14.5876 23.3122 14.5876 23.6623 14.5876 24.0309C15.1774 24.0402 15.7395 24.0402 16.3385 24.0402ZM9.28889 11.7287C9.02165 11.4615 8.76363 11.1942 8.49639 10.9546C8.42267 10.8901 8.29365 10.8441 8.2015 10.8533C6.20181 11.0284 4.72739 8.94576 5.54754 7.11195C5.70419 6.77099 5.87007 6.66039 6.10045 6.75254C6.32161 6.84469 6.34926 7.03821 6.1926 7.38839C5.60283 8.70616 6.57963 10.1806 8.0172 10.1529C8.15543 10.1529 8.24758 10.1068 8.34895 9.99626C8.8097 9.50786 9.27968 9.02869 9.76808 8.57715C9.87866 8.47578 9.92474 8.38362 9.93395 8.24539C9.95238 7.38838 9.4179 6.62353 8.60697 6.34707C8.18307 6.19963 7.76839 6.20885 7.34449 6.34707C7.05882 6.43922 6.82844 6.31021 6.81923 6.06141C6.81001 5.83103 6.95746 5.73886 7.15097 5.67436C8.93871 5.07537 10.7817 6.53138 10.6251 8.42971C10.6159 8.50343 10.6067 8.60478 10.6527 8.65086C10.9384 8.94574 11.2241 9.23143 11.519 9.52631C12.2285 9.08398 12.9657 8.77067 13.749 8.57715C13.8043 8.56794 13.878 8.4942 13.878 8.44813C13.8873 8.16246 13.8873 7.8768 13.8873 7.5727C13.3712 7.60035 13.2053 7.29624 13.0763 6.87234C12.9289 6.37472 12.6985 5.90475 12.4681 5.43478C12.2654 5.03853 12.2654 4.80813 12.5879 4.49482C12.7814 4.31052 12.9842 4.13543 13.15 3.97877C12.8091 3.63781 12.5234 3.34293 12.2101 3.02961C12.035 3.21392 11.8415 3.42588 11.648 3.6194C11.3715 3.89585 11.1135 3.92348 10.7817 3.72075C10.2749 3.40743 9.73122 3.18629 9.15066 3.04806C8.77284 2.95591 8.6254 2.75316 8.61618 2.36612C8.61618 2.08967 8.61618 1.81323 8.61618 1.51834C8.18307 1.51834 7.76839 1.51834 7.33528 1.51834C7.33528 1.80401 7.33528 2.08967 7.33528 2.36612C7.32606 2.77159 7.1694 2.95589 6.77315 3.05726C6.21103 3.19549 5.67655 3.41667 5.17893 3.71155C4.81954 3.93272 4.57073 3.90506 4.27584 3.61017C4.08233 3.41665 3.88881 3.21393 3.73215 3.04806C3.40962 3.37059 3.11473 3.65624 2.81985 3.95113C2.81985 3.94191 2.81985 3.96036 2.82907 3.96958C3.00415 4.14466 3.17924 4.31974 3.35433 4.50404C3.65843 4.81736 3.66764 5.03852 3.47413 5.42556C3.22532 5.93239 3.00415 6.45767 2.81985 6.99214C2.67241 7.41604 2.52496 7.56348 2.06421 7.56348C1.79697 7.56348 1.53894 7.56348 1.2717 7.56348C1.2717 8.00581 1.2717 8.42047 1.2717 8.84437C1.56659 8.84437 1.83383 8.84437 2.11028 8.84437C2.51575 8.84437 2.67241 9.01025 2.81063 9.39728C2.99494 9.93176 3.20689 10.457 3.4557 10.9639C3.65843 11.3693 3.65843 11.5997 3.32668 11.9223C3.14238 12.1066 2.93965 12.2724 2.75534 12.4383C3.0963 12.7793 3.39119 13.0649 3.71372 13.3875C3.79666 13.2861 3.89802 13.1755 3.99017 13.0649C4.09154 12.9543 4.19291 12.853 4.30349 12.7516C4.54308 12.5212 4.81032 12.4751 5.09599 12.6502C5.63047 12.982 6.20181 13.2216 6.81001 13.3598C7.1049 13.4243 7.27999 13.627 7.30763 13.9311C7.30763 13.9864 7.32606 14.0325 7.34449 14.1062C7.62095 14.1062 7.8974 14.1154 8.16464 14.097C8.21993 14.097 8.30287 14.0233 8.31208 13.968C8.53325 13.1755 8.83735 12.4383 9.28889 11.7287Z" fill="black"/>
<path d="M15.1314 20.1789C14.302 20.1697 13.2884 19.7827 12.4314 19.0086C12.3853 18.9625 12.3392 18.9257 12.3023 18.8796C12.1918 18.7321 12.1825 18.5755 12.3116 18.428C12.4406 18.2806 12.6064 18.253 12.7723 18.3728C12.8921 18.4557 12.9935 18.5663 13.1133 18.6584C14.3573 19.6444 16.0806 19.7458 17.4352 18.9349C18.799 18.1147 19.4902 16.5573 19.2137 14.9631C18.9465 13.4518 17.7116 12.2078 16.1727 11.9405C14.7444 11.7009 13.5187 12.1156 12.588 13.2214C11.6481 14.3365 11.4453 15.6082 11.9245 16.9905C12.0443 17.3406 12.0075 17.5434 11.7771 17.6263C11.5467 17.7092 11.3808 17.5895 11.261 17.2209C10.6805 15.5068 10.9661 13.9402 12.1918 12.6132C13.4542 11.2586 15.0392 10.8347 16.7993 11.3784C18.5134 11.9037 19.5731 13.1109 19.9048 14.8802C20.3932 17.6632 18.2645 20.1789 15.1314 20.1789Z" fill="black"/>
<path d="M18.1906 15.7006C18.163 17.2303 16.9282 18.4468 15.4261 18.4099C13.8872 18.373 12.6984 17.1474 12.7261 15.6177C12.7537 14.0972 13.9885 12.9177 15.5183 12.9453C17.0203 12.9822 18.2183 14.217 18.1906 15.7006ZM13.4356 15.6546C13.4264 16.788 14.3111 17.6911 15.4445 17.7096C16.5596 17.728 17.4811 16.8157 17.4903 15.6914C17.4995 14.5764 16.6056 13.6641 15.4906 13.6549C14.3479 13.6364 13.4448 14.5303 13.4356 15.6546Z" fill="black"/>
</svg>
