<svg width="27" height="27" viewBox="0 0 27 27" fill="none" xmlns="http://www.w3.org/2000/svg">
<path d="M18.1399 26.65C17.6699 26.6 17.1999 26.56 16.7299 26.5C15.5199 26.34 14.3299 26.09 13.2299 25.53C12.8399 25.33 12.4699 25.08 12.1399 24.8C11.6499 24.39 11.4399 23.84 11.4399 23.18C11.4499 21.15 11.4499 19.12 11.4399 17.09C11.4399 16.43 11.6899 15.89 12.1699 15.46C12.8499 14.85 13.6699 14.51 14.5199 14.26C16.3199 13.73 18.1699 13.57 20.0399 13.68C21.4899 13.76 22.9099 13.98 24.2799 14.51C24.5699 14.62 24.8499 14.76 25.1299 14.91C25.8399 15.3 26.4199 15.81 26.6199 16.64C26.6199 18.98 26.6199 21.31 26.6199 23.65C26.4799 24.22 26.1599 24.68 25.6799 25.02C25.4199 25.2 25.1499 25.38 24.8599 25.52C23.7499 26.07 22.5599 26.33 21.3399 26.49C20.8599 26.55 20.3899 26.59 19.9099 26.64C19.3299 26.65 18.7399 26.65 18.1399 26.65ZM19.0099 19.07C20.6199 19.05 22.1699 18.9 23.6699 18.37C24.2299 18.17 24.7699 17.93 25.2099 17.51C25.6499 17.1 25.6699 16.68 25.2099 16.3C24.8599 16.01 24.4599 15.77 24.0499 15.59C22.9499 15.1 21.7699 14.9 20.5799 14.8C18.6299 14.64 16.7099 14.74 14.8299 15.29C14.1499 15.49 13.4799 15.75 12.9399 16.23C12.4299 16.68 12.4299 17.1 12.9399 17.55C13.3699 17.93 13.8899 18.17 14.4199 18.36C15.9099 18.9 17.4699 19.05 19.0099 19.07ZM25.5399 18.67C23.5099 19.85 21.2999 20.14 19.0399 20.14C16.7799 20.14 14.5799 19.85 12.5499 18.67C12.5499 19.14 12.5599 19.58 12.5499 20.02C12.5399 20.35 12.6599 20.61 12.9099 20.79C13.2599 21.04 13.6199 21.29 14.0099 21.45C15.3599 22.03 16.7799 22.23 18.2399 22.29C19.9699 22.36 21.6699 22.24 23.3299 21.73C23.9599 21.53 24.5699 21.28 25.0899 20.86C25.3499 20.65 25.5399 20.4 25.5299 20.05C25.5299 19.6 25.5399 19.16 25.5399 18.67ZM12.5499 21.92C12.5499 22.38 12.5599 22.83 12.5499 23.27C12.5399 23.6 12.6699 23.86 12.9199 24.04C13.2699 24.29 13.6299 24.53 14.0199 24.7C15.3599 25.28 16.7899 25.48 18.2399 25.54C19.9699 25.61 21.6899 25.49 23.3499 24.97C23.9599 24.78 24.5399 24.53 25.0499 24.15C25.3799 23.9 25.5599 23.58 25.5399 23.15C25.5199 22.8 25.5399 22.46 25.5399 22.11C25.5399 22.05 25.5299 21.99 25.5199 21.92C23.4999 23.09 21.2999 23.38 19.0499 23.38C16.7899 23.39 14.5799 23.1 12.5499 21.92Z" fill="black"/>
<path d="M1.70988 15.43C1.70988 15.89 1.70988 16.34 1.70988 16.79C1.70988 17.16 1.89988 17.41 2.16988 17.62C2.71988 18.06 3.36988 18.32 4.02988 18.51C5.87988 19.05 7.76988 19.15 9.67988 18.99C10.0599 18.96 10.3299 19.14 10.3699 19.47C10.4099 19.79 10.1899 20.06 9.79988 20.07C8.81988 20.1 7.83988 20.13 6.85988 20.08C5.56988 20.02 4.30988 19.79 3.09988 19.32C2.62988 19.14 2.18988 18.9 1.73988 18.69C1.73988 19.2 1.69988 19.74 1.75988 20.26C1.77988 20.47 1.98988 20.69 2.16988 20.84C2.70988 21.3 3.36988 21.56 4.04988 21.75C5.89988 22.29 7.78988 22.39 9.69988 22.23C10.0599 22.2 10.3299 22.38 10.3799 22.69C10.4299 23.01 10.2099 23.29 9.82988 23.3C8.83988 23.33 7.84988 23.37 6.85988 23.31C5.48988 23.24 4.12988 23.01 2.85988 22.45C2.32988 22.22 1.82988 21.91 1.36988 21.56C0.849883 21.17 0.629883 20.61 0.629883 19.94C0.639883 14.65 0.639883 9.36001 0.629883 4.07001C0.629883 3.37001 0.889883 2.83001 1.39988 2.38001C2.06988 1.80001 2.85988 1.48 3.69988 1.23C5.49988 0.7 7.34988 0.539998 9.21988 0.649998C10.6699 0.729998 12.0899 0.95 13.4599 1.48C14.0399 1.7 14.5899 1.98 15.0599 2.4C15.5899 2.86 15.8299 3.43 15.8199 4.15C15.7999 6.16 15.7999 8.16 15.8199 10.17C15.8199 10.77 15.6299 11.28 15.2099 11.7C14.7199 12.2 14.1099 12.51 13.4699 12.76C12.2599 13.23 10.9999 13.45 9.70988 13.56C7.80988 13.72 5.91988 13.59 4.06988 13.11C3.25988 12.9 2.47988 12.6 1.74988 12.13C1.73988 12.2 1.71988 12.26 1.71988 12.31C1.71988 12.67 1.72988 13.02 1.71988 13.38C1.69988 13.81 1.87988 14.13 2.20988 14.38C2.86988 14.88 3.62988 15.15 4.41988 15.35C6.15988 15.79 7.92988 15.88 9.70988 15.73C10.0699 15.7 10.3399 15.88 10.3799 16.2C10.4199 16.51 10.2099 16.8 9.84988 16.81C8.86988 16.84 7.88988 16.88 6.90988 16.83C5.51988 16.76 4.15988 16.51 2.85988 15.98C2.46988 15.83 2.10988 15.63 1.70988 15.43ZM8.22988 1.74001C6.80988 1.75001 5.40988 1.88 4.03988 2.29C3.33988 2.5 2.65988 2.76001 2.09988 3.24001C1.57988 3.69001 1.56988 4.15001 2.10988 4.58001C2.42988 4.83001 2.79988 5.05001 3.16988 5.21001C4.28988 5.70001 5.47988 5.91 6.68988 6.01C8.55988 6.16 10.4099 6.08001 12.2199 5.58001C12.9699 5.37001 13.7099 5.11001 14.3099 4.58001C14.8399 4.12001 14.8299 3.70001 14.3099 3.24001C13.8799 2.86001 13.3599 2.63001 12.8199 2.44001C11.3399 1.90001 9.79988 1.76001 8.22988 1.74001ZM14.6899 5.68C12.6599 6.86 10.4499 7.15 8.18988 7.14C5.93988 7.14 3.72988 6.84 1.70988 5.67C1.70988 6.15 1.70988 6.61 1.70988 7.06C1.70988 7.38 1.84988 7.64001 2.09988 7.82001C2.44988 8.06001 2.79988 8.30001 3.18988 8.46001C4.52988 9.03001 5.94988 9.24001 7.38988 9.30001C9.23988 9.38001 11.0599 9.24001 12.8199 8.63001C13.3699 8.44001 13.9099 8.2 14.3399 7.79C14.4899 7.64 14.6599 7.44 14.6699 7.25C14.7199 6.74 14.6899 6.22 14.6899 5.68ZM1.70988 8.92C1.70988 9.39 1.70988 9.83001 1.70988 10.27C1.70988 10.61 1.84988 10.89 2.11988 11.07C2.45988 11.3 2.80988 11.54 3.17988 11.7C4.52988 12.28 5.94988 12.48 7.40988 12.54C9.13988 12.61 10.8599 12.49 12.5299 11.97C13.1699 11.77 13.7899 11.53 14.2999 11.07C14.4599 10.92 14.6599 10.72 14.6799 10.52C14.7299 10 14.6999 9.46 14.6999 8.92C12.6799 10.09 10.4799 10.38 8.21988 10.38C5.94988 10.39 3.73988 10.1 1.70988 8.92Z" fill="black"/>
</svg>
