<svg width="25" height="26" viewBox="0 0 25 26" fill="none" xmlns="http://www.w3.org/2000/svg">
<path d="M10.4223 0.333984C10.8647 0.444566 11.3346 0.518283 11.7585 0.67494C14.007 1.51352 15.3156 3.67906 15.0944 6.13029C14.8917 8.34192 13.0947 10.2587 10.8278 10.6641C7.50114 11.2631 4.46936 8.48934 4.75503 5.13504C4.96697 2.63773 6.81001 0.721009 9.30732 0.380049C9.35339 0.370834 9.39947 0.352424 9.44554 0.343209C9.76807 0.333993 10.0906 0.333984 10.4223 0.333984ZM14.09 5.52211C14.0808 3.22754 12.2285 1.37529 9.94316 1.36608C7.64859 1.36608 5.77791 3.23672 5.78712 5.5405C5.78712 7.84429 7.6578 9.69654 9.96159 9.69654C12.2377 9.68732 14.09 7.81668 14.09 5.52211Z" fill="black"/>
<path d="M24.6598 16.2856C24.6505 16.7371 24.5031 17.0228 24.2174 17.2347C23.9133 17.4559 23.5908 17.6771 23.2959 17.9075C23.2314 17.9628 23.1853 18.0733 23.1853 18.1655C23.1761 18.3682 23.2222 18.5802 23.1853 18.7737C23.1393 19.0133 23.2406 19.1239 23.4157 19.2437C23.6922 19.4188 23.9502 19.6123 24.2082 19.8058C24.6782 20.156 24.798 20.6904 24.5123 21.2065C24.2543 21.6764 23.9871 22.1372 23.7106 22.598C23.4065 23.1048 22.8905 23.2707 22.3468 23.0403C22.0058 22.8929 21.6741 22.727 21.3239 22.5887C21.2409 22.5519 21.1119 22.5703 21.029 22.6072C20.817 22.7086 20.6143 22.8284 20.4208 22.9574C20.3379 23.0127 20.2641 23.1141 20.2457 23.2062C20.1904 23.5656 20.1628 23.9342 20.1351 24.2936C20.0798 24.8834 19.6559 25.2704 19.0662 25.2796C18.5317 25.2888 17.9972 25.2888 17.4535 25.2796C16.9006 25.2704 16.4951 24.9386 16.403 24.3857C16.3385 23.9895 16.3293 23.5932 16.2648 23.197C16.2555 23.1048 16.1726 23.0034 16.0989 22.9482C15.9514 22.8376 15.7579 22.7823 15.6197 22.6625C15.4262 22.4966 15.2603 22.5243 15.0576 22.6256C14.7719 22.7731 14.4678 22.9021 14.1729 23.0311C13.6292 23.2615 13.1132 23.0956 12.8091 22.5887C12.5326 22.128 12.2654 21.6673 12.0073 21.1973C11.7217 20.6813 11.8323 20.156 12.3114 19.7966C12.5879 19.5846 12.8736 19.3819 13.1592 19.1883C13.3067 19.087 13.3712 18.9949 13.3343 18.8106C13.3067 18.6447 13.2975 18.4696 13.3251 18.3037C13.3712 18.0733 13.3067 17.9351 13.104 17.8061C12.8183 17.631 12.5603 17.4283 12.293 17.2256C11.8323 16.8754 11.7125 16.3501 11.9981 15.8433C12.2654 15.3733 12.5326 14.8941 12.8183 14.4333C13.1132 13.9449 13.6292 13.779 14.1637 14.0094C14.4954 14.1569 14.8364 14.3044 15.1589 14.461C15.2972 14.5255 15.4077 14.5439 15.5368 14.4333C15.6289 14.3504 15.7487 14.2675 15.8685 14.2306C16.2279 14.1201 16.3108 13.8712 16.32 13.5395C16.3293 13.2446 16.3569 12.9405 16.4122 12.6456C16.4951 12.1296 16.8822 11.7886 17.4074 11.7794C17.9788 11.7702 18.5409 11.7702 19.1122 11.7794C19.6651 11.7886 20.0706 12.1757 20.1259 12.7286C20.1628 13.088 20.1996 13.4566 20.2273 13.8159C20.2365 13.9634 20.2918 14.0463 20.43 14.1108C20.6235 14.203 20.8078 14.3043 20.9737 14.4241C21.1119 14.5347 21.2225 14.5163 21.37 14.4518C21.6925 14.2951 22.015 14.1477 22.3468 14.0094C22.8905 13.779 23.4065 13.945 23.7106 14.4518C23.9871 14.9126 24.2543 15.3733 24.5123 15.8433C24.586 16.0184 24.6321 16.2027 24.6598 16.2856ZM17.4259 12.8207C17.4166 12.9221 17.3982 13.0142 17.389 13.1156C17.3429 13.5395 17.2969 13.9726 17.26 14.3965C17.2323 14.6545 17.0849 14.7927 16.8637 14.9033C16.5136 15.0784 16.1634 15.2719 15.8409 15.5023C15.592 15.6774 15.3709 15.7142 15.0944 15.576C14.6429 15.3549 14.1821 15.1613 13.7122 14.9494C13.4357 15.4286 13.1592 15.8986 12.8828 16.387C13.2975 16.6818 13.6937 16.9767 14.0992 17.2532C14.3756 17.4375 14.4402 17.6678 14.4125 17.9812C14.3756 18.3406 14.3849 18.7092 14.4125 19.0686C14.4402 19.3819 14.3664 19.6123 14.0992 19.7966C13.6937 20.073 13.2975 20.3679 12.8828 20.6628C13.1592 21.1512 13.4357 21.612 13.7122 22.0911C14.2006 21.87 14.6705 21.6672 15.1313 21.4553C15.3617 21.3539 15.5552 21.3631 15.7764 21.5014C16.1542 21.741 16.5412 21.9529 16.9282 22.1741C17.1125 22.2755 17.2323 22.4045 17.26 22.6256C17.2692 22.7454 17.2876 22.8653 17.2969 22.985C17.3429 23.3997 17.389 23.8144 17.4259 24.2291C17.9972 24.2291 18.5409 24.2291 19.0846 24.2291C19.1399 23.713 19.1952 23.2062 19.2412 22.7085C19.2597 22.4321 19.3887 22.2754 19.6375 22.1464C19.9969 21.9713 20.3471 21.7594 20.688 21.5383C20.9184 21.3816 21.1304 21.3355 21.3884 21.4645C21.8491 21.6857 22.3191 21.8884 22.7983 22.1004C23.0748 21.6212 23.342 21.1512 23.6277 20.672C23.1946 20.3587 22.7799 20.0546 22.356 19.7597C22.1348 19.6031 22.0703 19.4003 22.0979 19.1239C22.1256 18.7461 22.144 18.359 22.1072 17.9904C22.0703 17.6679 22.1532 17.4467 22.4205 17.2624C22.8259 16.986 23.2222 16.6911 23.6369 16.387C23.3604 15.8986 23.084 15.4286 22.8075 14.9494C22.3375 15.1613 21.8768 15.3641 21.4252 15.576C21.1488 15.705 20.9276 15.6682 20.6788 15.4931C20.3563 15.2627 20.0061 15.0784 19.6559 14.9033C19.4163 14.7835 19.2781 14.6268 19.2597 14.3504C19.2228 13.8435 19.1583 13.3367 19.103 12.8207C18.5225 12.8207 17.9788 12.8207 17.4259 12.8207Z" fill="black"/>
<path d="M1.62176 21.1325C1.75077 21.1325 1.84292 21.1325 1.94429 21.1325C4.33101 21.1325 6.71774 21.1325 9.10446 21.1325C9.16897 21.1325 9.23348 21.1325 9.29798 21.1325C9.69423 21.1325 9.92461 21.3352 9.92461 21.6485C9.92461 21.9618 9.6758 22.1646 9.28877 22.1646C6.58873 22.1646 3.8979 22.1646 1.19786 22.1646C0.746315 22.1646 0.562012 21.9802 0.562012 21.5195C0.562012 20.1833 0.562012 18.8379 0.562012 17.5017C0.571227 14.8846 2.63542 12.8112 5.24331 12.8019C7.28908 12.7927 9.33484 12.8019 11.3806 12.8019C11.8045 12.8019 12.0625 13.0784 11.9704 13.4378C11.9151 13.6682 11.7676 13.8064 11.5281 13.834C11.4359 13.8433 11.3345 13.8433 11.2332 13.8433C9.25191 13.8433 7.27065 13.8433 5.28939 13.8433C3.54772 13.8525 2.11016 14.9583 1.69548 16.6078C1.63097 16.8843 1.58489 17.17 1.58489 17.4464C1.57568 18.6075 1.57568 19.7686 1.57568 20.9297C1.61254 20.9942 1.62176 21.0495 1.62176 21.1325Z" fill="black"/>
<path d="M20.8539 18.5249C20.8539 19.9532 19.6744 21.1328 18.2552 21.1328C16.8269 21.1328 15.6473 19.944 15.6565 18.5157C15.6658 17.0966 16.8269 15.9355 18.246 15.9263C19.6744 15.9263 20.8447 17.0966 20.8539 18.5249ZM18.2644 20.0823C19.1214 20.0823 19.8126 19.3819 19.8218 18.5341C19.8218 17.6771 19.103 16.9584 18.2552 16.9676C17.3982 16.9768 16.7163 17.6679 16.7071 18.5249C16.6979 19.4003 17.389 20.0915 18.2644 20.0823Z" fill="black"/>
</svg>
