<svg width="20" height="11" viewBox="0 0 20 11" fill="none" xmlns="http://www.w3.org/2000/svg">
<path d="M18.8969 5.13437C17.8487 3.68206 16.5276 2.52878 14.971 1.70802C13.2902 0.821089 11.55 0.376514 9.7691 0.376514C8.61769 0.376514 7.44987 0.5624 6.27076 0.93425L6.27076 0.934253C3.934 1.67157 2.04459 3.05208 0.495989 5.15259C0.409356 5.27006 0.361865 5.38288 0.361865 5.50037C0.361865 5.61775 0.409277 5.73156 0.495725 5.85104L0.495742 5.85106C1.45672 7.1776 2.6523 8.26243 4.04816 9.07572C6.5998 10.5625 9.35237 10.9809 12.2272 10.3186C15.0919 9.65889 17.3262 8.12202 19.0559 5.6236L19.0648 5.61076V5.59514V5.40625V5.39154L19.0568 5.37918C19.0442 5.35952 19.0315 5.33941 19.0193 5.3197L19.0191 5.31934L19.0185 5.31842C18.9784 5.25487 18.9397 5.19362 18.8969 5.13437ZM18.8969 5.13437L18.8564 5.16363M18.8969 5.13437C18.8969 5.13436 18.8969 5.13435 18.8969 5.13434L18.8564 5.16363M18.8564 5.16363C18.8983 5.22161 18.9362 5.28175 18.9767 5.34578L18.9768 5.34602L0.536234 5.18226C2.07899 3.08968 3.95982 1.71585 6.2858 0.981935C7.46039 0.61151 8.62314 0.426514 9.7691 0.426514C11.5414 0.426514 13.2736 0.868858 14.9477 1.75225C16.4973 2.56935 17.8126 3.71745 18.8564 5.16363ZM13.064 9.15582L13.064 9.15582C12.0221 9.53648 10.8268 9.73117 9.51043 9.7329H9.51L9.50975 9.7329C9.50968 9.7329 9.50961 9.7329 9.50955 9.7329C7.5142 9.72338 5.53041 9.05176 3.77233 7.78921C2.93714 7.1893 2.18489 6.47115 1.53626 5.65544C1.50334 5.61394 1.47683 5.57059 1.46969 5.52362C1.46298 5.47939 1.47241 5.42469 1.52673 5.35697C2.98537 3.54092 4.6828 2.35572 6.71749 1.7316L6.7175 1.73159C9.42783 0.899834 12.0676 1.17001 14.5669 2.53438C15.8374 3.22807 16.919 4.14811 17.8745 5.34757C17.9075 5.38937 17.9341 5.43275 17.9413 5.47972C17.948 5.52391 17.9387 5.5785 17.8846 5.6462C16.5521 7.31001 14.9758 8.45768 13.064 9.15582Z" fill="#93A5FF" stroke="#93A5FF" stroke-width="0.1"/>
<path d="M9.72127 2.46868H9.7212H9.72118H9.72117H9.72116H9.72115H9.72114H9.72113H9.72112H9.7211H9.72109H9.72108H9.72107H9.72106H9.72105H9.72103H9.72102H9.72101H9.721H9.72099H9.72098H9.72097H9.72095H9.72094H9.72093H9.72092H9.72091H9.7209H9.72088H9.72087H9.72086H9.72085H9.72084H9.72083H9.72081H9.7208H9.72079H9.72078H9.72077H9.72076H9.72075H9.72073H9.72072H9.72071H9.7207H9.72069H9.72068H9.72066H9.72065H9.72064H9.72063H9.72062H9.72061H9.72059H9.72058H9.72057H9.72056H9.72055H9.72054H9.72053H9.72051H9.7205H9.72049H9.72048H9.72047H9.72046H9.72044H9.72043H9.72042H9.72041H9.7204H9.72039H9.72038H9.72036H9.72035H9.72034H9.72033H9.72032H9.72031H9.72029H9.72028H9.72027H9.72026H9.72025H9.72024H9.72022H9.72021H9.7202H9.72019H9.72018H9.72017H9.72016H9.72014H9.72013H9.72012H9.72011H9.7201H9.72009H9.72007H9.72006H9.72005H9.72004H9.72003H9.72002H9.72001H9.71999H9.71998H9.71997H9.71996H9.71995H9.71994H9.71992H9.71991H9.7199H9.71989H9.71988H9.71987H9.71985H9.71984H9.71983H9.71982H9.71981H9.7198H9.71979H9.71977H9.71976H9.71975H9.71974H9.71973H9.71972H9.7197H9.71969H9.71968H9.71967H9.71966H9.71965H9.71963H9.71962H9.71961H9.7196H9.71959H9.71958H9.71957H9.71955H9.71954H9.71953H9.71952H9.71951H9.7195H9.71948H9.71947H9.71946H9.71945H9.71944H9.71943H9.71941H9.7194H9.71939H9.71938H9.71937H9.71936H9.71935H9.71933H9.71932H9.71931H9.7193H9.71929H9.71928H9.71926H9.71925H9.71924H9.71923H9.71922H9.71921H9.7192H9.71918H9.71917H9.71916H9.71915H9.71914H9.71913H9.71911H9.7191H9.71909H9.71908H9.71907H9.71906H9.71904H9.71903H9.71902H9.71901H9.719H9.71899H9.71898H9.71896H9.71895H9.71894H9.71893H9.71892H9.71891H9.71889H9.71888H9.71887H9.71886H9.71885H9.71884H9.71882H9.71881H9.7188H9.71879H9.71878H9.71877H9.71876H9.71874H9.71873H9.71872H9.71871H9.7187H9.71869H9.71867H9.71866H9.71865H9.71864H9.71863H9.71862H9.71861H9.71859H9.71858H9.71857H9.71856H9.71855H9.71854H9.71852H9.71851H9.7185H9.71849H9.71848H9.71847H9.71845H9.71844H9.71843H9.71842H9.71841H9.7184H9.71839H9.71837H9.71836H9.71835H9.71834H9.71833H9.71832H9.7183H9.71829H9.71828H9.71827H9.71826H9.71825H9.71824H9.71822H9.71821H9.7182H9.71819H9.71818H9.71817H9.71815H9.71814H9.71813H9.71812H9.71811H9.7181H9.71808H9.71807H9.71806H9.71805H9.71804H9.71803H9.71802H9.718H9.71799H9.71798H9.71797H9.71796H9.71795H9.71793H9.71792H9.71791H9.7179H9.71789H9.71788H9.71786H9.71785H9.71784H9.71783H9.71782H9.71781H9.7178H9.71778H9.71777H9.71776H9.71775H9.71774H9.71773H9.71771H9.7177H9.71769H9.71768H9.71767H9.71766H9.71764H9.71763H9.71762H9.71761H9.7176H9.71759H9.71758H9.71756H9.71755H9.71754H9.71753H9.71752H9.71751H9.71749H9.71748H9.71747H9.71746H9.71745H9.71744H9.71743H9.71741H9.7174H9.71739H9.71738H9.71737H9.71736H9.71734H9.71733H9.71732H9.71731H9.7173H9.71729H9.71727H9.71726H9.71725H9.71724H9.71723H9.71722H9.71721H9.71719H9.71718H9.71717H9.71716H9.71715H9.71714H9.71712H9.71711H9.7171H9.71709H9.71708H9.71707H9.71706H9.71704H9.71703H9.71702H9.71701H9.717H9.71699H9.71697H9.71696H9.71695H9.71694H9.71693H9.71692H9.7169H9.71689H9.71688H9.71687H9.71686H9.71685H9.71684H9.71682H9.71681H9.7168H9.71679H9.71678H9.71677H9.71675H9.71674H9.71673H9.71672H9.71671H9.7167H9.71668H9.71667H9.71666H9.71665H9.71664H9.71663H9.71662H9.7166H9.71659H9.71658H9.71657H9.71656H9.71655H9.71653H9.71652H9.71651H9.7165H9.71649H9.71648H9.71646H9.71645H9.71644H9.71643H9.71642H9.71641H9.7164H9.71638H9.71637H9.71636H9.71635H9.71634H9.71633H9.71631H9.7163H9.71629H9.71628H9.71627H9.71626H9.71625H9.71623H9.71622H9.71621H9.7162H9.71619H9.71618H9.71616H9.71615H9.71614H9.71613H9.71612H9.71611H9.71609H9.71608H9.71607H9.71606H9.71605H9.71604H9.71603H9.71601H9.716H9.71599H9.71598H9.71597H9.71596H9.71594H9.71593H9.71592H9.71591H9.7159H9.71589H9.71588H9.71586H9.71585H9.71584H9.71583H9.71582H9.71581H9.71579H9.71578H9.71577H9.71576H9.71575H9.71574H9.71572H9.71571H9.7157H9.71569H9.71568H9.71567H9.71566H9.71564H9.71563H9.71562H9.71561H9.7156H9.71559H9.71557H9.71556H9.71555H9.71554H9.71553H9.71552H9.7155H9.71549H9.71548H9.71547H9.71546H9.71545H9.71544H9.71542H9.71541H9.7154H9.71539H9.71538H9.71537H9.71535H9.71534H9.71533H9.71532H9.71531H9.7153H9.71529H9.71527C7.82164 2.46868 6.26791 3.819 6.26488 5.49455C6.26186 7.17392 7.81102 8.53227 9.70483 8.53534H9.70491H9.70492H9.70493H9.70494H9.70496H9.70497H9.70498H9.70499H9.705H9.70501H9.70503H9.70504H9.70505H9.70506H9.70507H9.70508H9.7051H9.70511H9.70512H9.70513H9.70514H9.70516H9.70517H9.70518H9.70519H9.7052H9.70521H9.70523H9.70524H9.70525H9.70526H9.70527H9.70529H9.7053H9.70531H9.70532H9.70533H9.70535H9.70536H9.70537H9.70538H9.70539H9.70541H9.70542H9.70543H9.70544H9.70545H9.70547H9.70548H9.70549H9.7055H9.70551H9.70553H9.70554H9.70555H9.70556H9.70557H9.70559H9.7056H9.70561H9.70562H9.70563H9.70565H9.70566H9.70567H9.70568H9.7057H9.70571H9.70572H9.70573H9.70574H9.70576H9.70577H9.70578H9.70579H9.70581H9.70582H9.70583H9.70584H9.70586H9.70587H9.70588H9.70589H9.7059H9.70592H9.70593H9.70594H9.70595H9.70597H9.70598H9.70599H9.706H9.70602H9.70603H9.70604H9.70605H9.70607H9.70608H9.70609H9.7061H9.70612H9.70613H9.70614H9.70615H9.70617H9.70618H9.70619H9.7062H9.70622H9.70623H9.70624H9.70625H9.70627H9.70628H9.70629H9.7063H9.70632H9.70633H9.70634H9.70635H9.70637H9.70638H9.70639H9.7064H9.70642H9.70643H9.70644H9.70645H9.70647H9.70648H9.70649H9.70651H9.70652H9.70653H9.70654H9.70656H9.70657H9.70658H9.70659H9.70661H9.70662H9.70663H9.70665H9.70666H9.70667H9.70668H9.7067H9.70671H9.70672H9.70673H9.70675H9.70676H9.70677H9.70679H9.7068H9.70681H9.70682H9.70684H9.70685H9.70686H9.70688H9.70689H9.7069H9.70691H9.70693H9.70694H9.70695H9.70696H9.70698H9.70699H9.707H9.70702H9.70703H9.70704H9.70705H9.70707H9.70708H9.70709H9.70711H9.70712H9.70713H9.70714H9.70716H9.70717H9.70718H9.7072H9.70721H9.70722H9.70724H9.70725H9.70726H9.70727H9.70729H9.7073H9.70731H9.70733H9.70734H9.70735H9.70736H9.70738H9.70739H9.7074H9.70742H9.70743H9.70744H9.70745H9.70747H9.70748H9.70749H9.70751H9.70752H9.70753H9.70755H9.70756H9.70757H9.70758H9.7076H9.70761H9.70762H9.70764H9.70765H9.70766H9.70768H9.70769H9.7077H9.70771H9.70773H9.70774H9.70775H9.70777H9.70778H9.70779H9.70781H9.70782H9.70783H9.70784H9.70786H9.70787H9.70788H9.7079H9.70791H9.70792H9.70794H9.70795H9.70796H9.70797H9.70799H9.708H9.70801H9.70803H9.70804H9.70805H9.70807H9.70808H9.70809H9.7081H9.70812H9.70813H9.70814H9.70816H9.70817H9.70818H9.7082H9.70821H9.70822H9.70823H9.70825H9.70826H9.70827H9.70829H9.7083H9.70831H9.70833H9.70834H9.70835H9.70836H9.70838H9.70839H9.7084H9.70842H9.70843H9.70844H9.70846H9.70847H9.70848H9.70849H9.70851H9.70852H9.70853H9.70855H9.70856H9.70857H9.70859H9.7086H9.70861H9.70862H9.70864H9.70865H9.70866H9.70868H9.70869H9.7087H9.70872H9.70873H9.70874H9.70875H9.70877H9.70878H9.70879H9.70881H9.70882H9.70883H9.70884H9.70886H9.70887H9.70888H9.7089H9.70891H9.70892H9.70894H9.70895H9.70896H9.70897H9.70899H9.709H9.70901H9.70903H9.70904H9.70905H9.70906H9.70908H9.70909H9.7091H9.70912H9.70913H9.70914H9.70915H9.70917H9.70918H9.70919H9.70921H9.70922H9.70923H9.70924H9.70926H9.70927H9.70928H9.7093H9.70931H9.70932H9.70933H9.70935H9.70936H9.70937H9.70939H9.7094H9.70941H9.70942H9.70944H9.70945H9.70946H9.70948H9.70949H9.7095H9.70951H9.70953H9.70954H9.70955H9.70956H9.70958H9.70959H9.7096H9.70962H9.70963H9.70964H9.70965H9.70967H9.70968H9.70969H9.7097H9.70972H9.70973H9.70974H9.70975H9.70977H9.70978H9.70979H9.70981H9.70982H9.70983H9.70984H9.70986H9.70987H9.70988H9.70989H9.70991H9.70992H9.70993H9.70994H9.70996H9.70997H9.70998H9.70999H9.71001H9.71002H9.71003H9.71004H9.71006H9.71007H9.71008H9.71009H9.71011H9.71012H9.71013H9.71014H9.71016H9.71017H9.71018H9.71019H9.71021H9.71022H9.71023H9.71024H9.71026H9.71027H9.71028H9.71029H9.71031H9.71032H9.71033H9.71034H9.71036H9.71037H9.71038H9.71039H9.7104H9.71042H9.71043H9.71044H9.71045H9.71047H9.71048H9.71049H9.7105H9.71052H9.71053H9.71054H9.71055H9.71056H9.71058H9.71059H9.7106H9.71061H9.71062H9.71064H9.71065H9.71066H9.71067H9.71069H9.7107H9.71071H9.71072H9.71073H9.71075H9.71076H9.71077H9.71078H9.71079H9.71081H9.71082H9.71083H9.71084H9.71085H9.71087H9.71088H9.71089H9.7109H9.71091H9.71093H9.71094H9.71095H9.71096H9.71097H9.71099H9.711H9.71101H9.71102H9.71103H9.71104H9.71106H9.71107H9.71108H9.71109H9.7111H9.71112H9.71113H9.71114H9.71115H9.71116H9.71117H9.71119H9.7112H9.71121H9.71122H9.71123H9.71124H9.71126H9.71127H9.71128H9.71129H9.7113H9.71131H9.71133C10.6263 8.53534 11.4895 8.2221 12.1423 7.65173C12.7967 7.07987 13.1597 6.31922 13.1612 5.50903C13.1627 4.69804 12.8033 3.9352 12.1518 3.36068C11.5011 2.78632 10.6378 2.46999 9.72127 2.46868ZM7.25126 5.51309L7.25126 5.51306C7.24885 4.93775 7.5033 4.39441 7.97015 3.98331C8.43573 3.57332 9.05499 3.34635 9.71379 3.34635H9.71427C9.71428 3.34635 9.71428 3.34635 9.71429 3.34635C11.0769 3.34679 12.1744 4.31816 12.1753 5.49858C12.1763 6.67998 11.0816 7.65424 9.72159 7.65723H9.72157H9.72156H9.72155H9.72154H9.72153H9.72152H9.7215H9.72149H9.72148H9.72147H9.72146H9.72145H9.72144H9.72142H9.72141H9.7214H9.72139H9.72138H9.72137H9.72135H9.72134H9.72133H9.72132H9.72131H9.7213H9.72128H9.72127H9.72126H9.72125H9.72124H9.72123H9.72122H9.7212H9.72119H9.72118H9.72117H9.72116H9.72115H9.72113H9.72112H9.72111H9.7211H9.72109H9.72108H9.72107H9.72105H9.72104H9.72103H9.72102H9.72101H9.721H9.72098H9.72097H9.72096H9.72095H9.72094H9.72093H9.72091H9.7209H9.72089H9.72088H9.72087H9.72086H9.72085H9.72083H9.72082H9.72081H9.7208H9.72079H9.72078H9.72076H9.72075H9.72074H9.72073H9.72072H9.72071H9.72069H9.72068H9.72067H9.72066H9.72065H9.72064H9.72063H9.72061H9.7206H9.72059H9.72058H9.72057H9.72056H9.72054H9.72053H9.72052H9.72051H9.7205H9.72049H9.72048H9.72046H9.72045H9.72044H9.72043H9.72042H9.72041H9.72039H9.72038H9.72037H9.72036H9.72035H9.72034H9.72032H9.72031H9.7203H9.72029H9.72028H9.72027H9.72026H9.72024H9.72023H9.72022H9.72021H9.7202H9.72019H9.72017H9.72016H9.72015H9.72014H9.72013H9.72012H9.7201H9.72009H9.72008H9.72007H9.72006H9.72005H9.72004H9.72002H9.72001H9.72H9.71999H9.71998H9.71997H9.71995H9.71994H9.71993H9.71992H9.71991H9.7199H9.71989H9.71987H9.71986H9.71985H9.71984H9.71983H9.71982H9.7198H9.71979H9.71978H9.71977H9.71976H9.71975H9.71973H9.71972H9.71971H9.7197H9.71969H9.71968H9.71967H9.71965H9.71964H9.71963H9.71962H9.71961H9.7196H9.71958H9.71957H9.71956H9.71955H9.71954H9.71953H9.71952H9.7195H9.71949H9.71948H9.71947H9.71946H9.71945H9.71943H9.71942H9.71941H9.7194H9.71939H9.71938H9.71936H9.71935H9.71934H9.71933H9.71932H9.71931H9.7193H9.71928H9.71927H9.71926H9.71925H9.71924H9.71923H9.71921H9.7192H9.71919H9.71918H9.71917H9.71916H9.71915H9.71913H9.71912H9.71911H9.7191H9.71909H9.71908H9.71906H9.71905H9.71904H9.71903H9.71902H9.71901H9.71899H9.71898H9.71897H9.71896H9.71895H9.71894H9.71893H9.71891H9.7189H9.71889H9.71888H9.71887H9.71886H9.71884H9.71883H9.71882H9.71881H9.7188H9.71879H9.71877H9.71876H9.71875H9.71874H9.71873H9.71872H9.71871H9.71869H9.71868H9.71867H9.71866H9.71865H9.71864H9.71862H9.71861H9.7186H9.71859H9.71858H9.71857H9.71856H9.71854H9.71853H9.71852H9.71851H9.7185H9.71849H9.71847H9.71846H9.71845H9.71844H9.71843H9.71842H9.7184H9.71839H9.71838H9.71837H9.71836H9.71835H9.71834H9.71832H9.71831H9.7183H9.71829H9.71828H9.71827H9.71825H9.71824H9.71823H9.71822H9.71821H9.7182H9.71818H9.71817H9.71816H9.71815H9.71814H9.71813H9.71812H9.7181H9.71809H9.71808H9.71807H9.71806H9.71805H9.71803H9.71802H9.71801H9.718H9.71799H9.71798H9.71797H9.71795H9.71794H9.71793H9.71792H9.71791H9.7179H9.71788H9.71787H9.71786H9.71785H9.71784H9.71783H9.71781H9.7178H9.71779H9.71778H9.71777H9.71776H9.71775H9.71773H9.71772H9.71771H9.7177H9.71769H9.71768H9.71766H9.71765H9.71764H9.71763H9.71762H9.71761H9.7176H9.71758H9.71757H9.71756H9.71755H9.71754H9.71753H9.71751H9.7175H9.71749H9.71748H9.71747H9.71746H9.71744H9.71743H9.71742H9.71741H9.7174H9.71739H9.71738H9.71736H9.71735H9.71734H9.71733H9.71732H9.71731H9.71729H9.71728H9.71727H9.71726H9.71725H9.71724H9.71723H9.71721H9.7172H9.71719H9.71718H9.71717H9.71716H9.71714H9.71713H9.71712H9.71711H9.7171H9.71709H9.71707H9.71706H9.71705H9.71704H9.71703H9.71702H9.71701H9.71699H9.71698H9.71697H9.71696H9.71695H9.71694H9.71692H9.71691H9.7169H9.71689H9.71688H9.71687H9.71685H9.71684H9.71683H9.71682H9.71681H9.7168H9.71679H9.71677H9.71676H9.71675H9.71674H9.71673H9.71672H9.7167H9.71669H9.71668H9.71667H9.71666H9.71665H9.71663H9.71662H9.71661H9.7166H9.71659H9.71658H9.71657H9.71655H9.71654H9.71653H9.71652H9.71651H9.7165H9.71648H9.71647H9.71646H9.71645H9.71644H9.71643H9.71642H9.7164H9.71639H9.71638H9.71637H9.71636H9.71635H9.71633H9.71632H9.71631H9.7163H9.71629H9.71628H9.71626H9.71625H9.71624H9.71623H9.71622H9.71621H9.7162H9.71618H9.71617H9.71616H9.71615H9.71614H9.71613H9.71611H9.7161H9.71609H9.71608H9.71607H9.71606H9.71605H9.71603H9.71602H9.71601H9.716H9.71599H9.71598H9.71596H9.71595H9.71594H9.71593H9.71592H9.71591H9.71589H9.71588H9.71587H9.71586H9.71585H9.71584H9.71583H9.71581H9.7158H9.71579H9.71578H9.71577C8.35451 7.65723 7.25557 6.69044 7.25126 5.51309Z" fill="#93A5FF" stroke="#93A5FF" stroke-width="0.1"/>
</svg>
