<svg width="26" height="26" viewBox="0 0 26 26" fill="none" xmlns="http://www.w3.org/2000/svg">
<path d="M9.28888 12.4842H2.81062C1.26248 12.4842 0 11.2217 0 9.67359V3.18609C0 1.63795 1.26248 0.375488 2.81062 0.375488H9.2981C10.8462 0.375488 12.1087 1.63795 12.1087 3.18609V9.67359C12.0995 11.2217 10.837 12.4842 9.28888 12.4842ZM2.81062 1.51816C1.88911 1.51816 1.14268 2.26458 1.14268 3.18609V9.67359C1.14268 10.5951 1.88911 11.3415 2.81062 11.3415H9.2981C10.2196 11.3415 10.966 10.5951 10.966 9.67359V3.18609C10.966 2.26458 10.2196 1.51816 9.2981 1.51816H2.81062Z" fill="black"/>
<path d="M22.4205 12.4842H15.9422C14.3941 12.4842 13.1316 11.2217 13.1316 9.67359V3.18609C13.1316 1.63795 14.3941 0.375488 15.9422 0.375488H22.4297C23.9778 0.375488 25.2403 1.63795 25.2403 3.18609V9.67359C25.2311 11.2217 23.9686 12.4842 22.4205 12.4842ZM15.9422 1.51816C15.0207 1.51816 14.2743 2.26458 14.2743 3.18609V9.67359C14.2743 10.5951 15.0207 11.3415 15.9422 11.3415H22.4297C23.3512 11.3415 24.0976 10.5951 24.0976 9.67359V3.18609C24.0976 2.26458 23.3512 1.51816 22.4297 1.51816H15.9422Z" fill="black"/>
<path d="M9.28888 25.3304H2.81062C1.26248 25.3304 0 24.0679 0 22.5198V16.0323C0 14.4841 1.26248 13.2217 2.81062 13.2217H9.2981C10.8462 13.2217 12.1087 14.4841 12.1087 16.0323V22.5198C12.0995 24.0679 10.837 25.3304 9.28888 25.3304ZM2.81062 14.3643C1.88911 14.3643 1.14268 15.1108 1.14268 16.0323V22.5198C1.14268 23.4413 1.88911 24.1877 2.81062 24.1877H9.2981C10.2196 24.1877 10.966 23.4413 10.966 22.5198V16.0323C10.966 15.1108 10.2196 14.3643 9.2981 14.3643H2.81062Z" fill="black"/>
<path d="M22.4205 25.3304H15.9422C14.3941 25.3304 13.1316 24.0679 13.1316 22.5198V16.0323C13.1316 14.4841 14.3941 13.2217 15.9422 13.2217H22.4297C23.9778 13.2217 25.2403 14.4841 25.2403 16.0323V22.5198C25.2311 24.0679 23.9686 25.3304 22.4205 25.3304ZM15.9422 14.3643C15.0207 14.3643 14.2743 15.1108 14.2743 16.0323V22.5198C14.2743 23.4413 15.0207 24.1877 15.9422 24.1877H22.4297C23.3512 24.1877 24.0976 23.4413 24.0976 22.5198V16.0323C24.0976 15.1108 23.3512 14.3643 22.4297 14.3643H15.9422Z" fill="black"/>
</svg>
